<svg xmlns="http://www.w3.org/2000/svg" xmlns:xlink="http://www.w3.org/1999/xlink" width="108" height="108" viewBox="0 0 108 108">
  <defs>
    <filter id="Trazado_904820" x="0" y="0" width="108" height="108" filterUnits="userSpaceOnUse">
      <feOffset dy="3" input="SourceAlpha"/>
      <feGaussianBlur stdDeviation="3" result="blur"/>
      <feFlood flood-opacity="0.161"/>
      <feComposite operator="in" in2="blur"/>
      <feComposite in="SourceGraphic"/>
    </filter>
    <clipPath id="clip-path">
      <rect id="Rectángulo_405996" data-name="Rectángulo 405996" width="55.157" height="61.285" fill="none"/>
    </clipPath>
  </defs>
  <g id="Icono" transform="translate(-615.101 -5000)">
    <g transform="matrix(1, 0, 0, 1, 615.1, 5000)" filter="url(#Trazado_904820)">
      <g id="Trazado_904820-2" data-name="Trazado 904820" transform="translate(9 6)" fill="#ecf4fa">
        <path d="M 45 88.5 C 39.12687683105469 88.5 33.43022537231445 87.35007476806641 28.06830024719238 85.08217620849609 C 22.88852500915527 82.89131164550781 18.23629951477051 79.75458526611328 14.2408504486084 75.75914764404297 C 10.24541282653809 71.76370239257812 7.108687400817871 67.11147308349609 4.917825222015381 61.93170166015625 C 2.649924993515015 56.56977462768555 1.5 50.87312316894531 1.5 45 C 1.5 39.12687683105469 2.649924993515015 33.43022537231445 4.917825222015381 28.06830024719238 C 7.108687400817871 22.88852500915527 10.24541282653809 18.23629951477051 14.2408504486084 14.2408504486084 C 18.23629951477051 10.24541282653809 22.88852500915527 7.108687400817871 28.06830024719238 4.917825222015381 C 33.43022537231445 2.649924993515015 39.12687683105469 1.5 45 1.5 C 50.87312316894531 1.5 56.56977462768555 2.649924993515015 61.93170166015625 4.917825222015381 C 67.11147308349609 7.108687400817871 71.76370239257812 10.24541282653809 75.75914764404297 14.2408504486084 C 79.75458526611328 18.23629951477051 82.89131164550781 22.88852500915527 85.08217620849609 28.06830024719238 C 87.35007476806641 33.43022537231445 88.5 39.12687683105469 88.5 45 C 88.5 50.87312316894531 87.35007476806641 56.56977462768555 85.08217620849609 61.93170166015625 C 82.89131164550781 67.11147308349609 79.75458526611328 71.76370239257812 75.75914764404297 75.75914764404297 C 71.76370239257812 79.75458526611328 67.11147308349609 82.89131164550781 61.93170166015625 85.08217620849609 C 56.56977462768555 87.35007476806641 50.87312316894531 88.5 45 88.5 Z" stroke="none"/>
        <path d="M 45 3 C 39.32871246337891 3 33.82865524291992 4.110054016113281 28.65262985229492 6.299339294433594 C 23.65165710449219 8.414573669433594 19.15968322753906 11.44334411621094 15.301513671875 15.301513671875 C 11.44334411621094 19.15968322753906 8.414573669433594 23.65165710449219 6.299339294433594 28.65262985229492 C 4.110054016113281 33.82865524291992 3 39.32871246337891 3 45 C 3 50.67128753662109 4.110054016113281 56.17134475708008 6.299339294433594 61.34737396240234 C 8.414573669433594 66.34834289550781 11.44334411621094 70.84031677246094 15.301513671875 74.698486328125 C 19.15968322753906 78.55665588378906 23.65165710449219 81.58542633056641 28.65262985229492 83.70066070556641 C 33.82865524291992 85.88994598388672 39.32871246337891 87 45 87 C 50.67128753662109 87 56.17134475708008 85.88994598388672 61.34737396240234 83.70066070556641 C 66.34834289550781 81.58542633056641 70.84031677246094 78.55665588378906 74.698486328125 74.698486328125 C 78.55665588378906 70.84031677246094 81.58542633056641 66.34834289550781 83.70066070556641 61.34737396240234 C 85.88994598388672 56.17134475708008 87 50.67128753662109 87 45 C 87 39.32871246337891 85.88994598388672 33.82865524291992 83.70066070556641 28.65262985229492 C 81.58542633056641 23.65165710449219 78.55665588378906 19.15968322753906 74.698486328125 15.301513671875 C 70.84031677246094 11.44334411621094 66.34834289550781 8.414573669433594 61.34737396240234 6.299339294433594 C 56.17134475708008 4.110054016113281 50.67128753662109 3 45 3 M 45 0 C 69.85281372070312 0 90 20.14718627929688 90 45 C 90 69.85281372070312 69.85281372070312 90 45 90 C 20.14718627929688 90 0 69.85281372070312 0 45 C 0 20.14718627929688 20.14718627929688 0 45 0 Z" stroke="none" fill="#2a5673"/>
      </g>
    </g>
    <g id="Grupo_1145415" data-name="Grupo 1145415" transform="translate(640.695 5023.357)">
      <g id="Grupo_1145415-2" data-name="Grupo 1145415" transform="translate(0 0)" clip-path="url(#clip-path)">
        <path id="Trazado_982178" data-name="Trazado 982178" d="M5.605,13.679H50.548a4.086,4.086,0,0,1,4.085,4.085V48.408a4.086,4.086,0,0,1-4.085,4.085H5.605A4.085,4.085,0,0,1,1.52,48.408V17.764a4.085,4.085,0,0,1,4.085-4.085" transform="translate(-0.498 -4.486)" fill="#3397e8"/>
        <path id="Trazado_982179" data-name="Trazado 982179" d="M54.634,59.274v4.085a4.086,4.086,0,0,1-4.085,4.086H5.605A4.086,4.086,0,0,1,1.52,63.359V59.274Z" transform="translate(-0.498 -19.438)" fill="#e9eef2"/>
        <path id="Trazado_982180" data-name="Trazado 982180" d="M9.642,1.52H50.5a2.043,2.043,0,0,1,2.042,2.043V34.206A2.043,2.043,0,0,1,50.5,36.249H9.642A2.043,2.043,0,0,1,7.6,34.206V3.563A2.043,2.043,0,0,1,9.642,1.52" transform="translate(-2.492 -0.499)" fill="#dadcde"/>
        <path id="Trazado_982181" data-name="Trazado 982181" d="M52.542,3.563V9.692H7.6V3.563A2.043,2.043,0,0,1,9.642,1.52H50.5a2.043,2.043,0,0,1,2.043,2.043" transform="translate(-2.492 -0.499)" fill="#e9eef2"/>
        <path id="Trazado_982182" data-name="Trazado 982182" d="M44.8,83.591H22.324a4.086,4.086,0,0,0-4.086,4.085H48.881A4.085,4.085,0,0,0,44.8,83.591" transform="translate(-5.981 -27.413)" fill="#e9eef2"/>
        <path id="Trazado_982183" data-name="Trazado 982183" d="M42.654,71.432H32.44L30.4,79.6H44.7Z" transform="translate(-9.968 -23.426)" fill="#dadcde"/>
        <path id="Trazado_982184" data-name="Trazado 982184" d="M16.743,22.8a3.064,3.064,0,1,1-3.065,3.065A3.065,3.065,0,0,1,16.743,22.8" transform="translate(-4.486 -7.477)" fill="#eb423f"/>
        <path id="Trazado_982185" data-name="Trazado 982185" d="M62.338,22.8a3.064,3.064,0,1,1-3.065,3.065A3.065,3.065,0,0,1,62.338,22.8" transform="translate(-19.438 -7.477)" fill="#eb423f"/>
        <rect id="Rectángulo_405994" data-name="Rectángulo 405994" width="6.129" height="6.129" transform="translate(19.407 15.321)" fill="#3397e8"/>
        <rect id="Rectángulo_405995" data-name="Rectángulo 405995" width="4.333" height="4.333" transform="translate(29.616 18.387) rotate(-45)" fill="#3dc285"/>
        <path id="Trazado_982186" data-name="Trazado 982186" d="M5.108,49.029H21.163l-1.532,6.129H16.343a5.112,5.112,0,0,0-5.107,5.107,1.021,1.021,0,0,0,1.021,1.022H42.9a1.021,1.021,0,0,0,1.021-1.022,5.112,5.112,0,0,0-5.107-5.107H35.527l-1.532-6.129H50.05a5.113,5.113,0,0,0,5.108-5.107V13.279a5.116,5.116,0,0,0-4.086-5V3.065A3.068,3.068,0,0,0,48.008,0H7.15A3.068,3.068,0,0,0,4.086,3.065v5.21a5.116,5.116,0,0,0-4.086,5V43.922a5.113,5.113,0,0,0,5.108,5.107M38.814,57.2A3.07,3.07,0,0,1,41.7,59.243H13.454A3.07,3.07,0,0,1,16.343,57.2ZM21.737,55.158l1.532-6.129h8.62l1.532,6.129ZM6.129,3.065A1.023,1.023,0,0,1,7.15,2.043H48.008a1.023,1.023,0,0,1,1.022,1.022V8.172H6.129Zm0,7.15h42.9V33.707a1.023,1.023,0,0,1-1.022,1.022H7.15a1.023,1.023,0,0,1-1.022-1.022ZM2.043,13.279A3.069,3.069,0,0,1,4.086,10.39V33.707A3.068,3.068,0,0,0,7.15,36.772H48.008a3.068,3.068,0,0,0,3.064-3.065V10.39a3.069,3.069,0,0,1,2.043,2.889V38.814H2.043Zm0,27.579H53.115v3.065a3.068,3.068,0,0,1-3.065,3.064H5.108a3.068,3.068,0,0,1-3.065-3.064Z" transform="translate(0 0)"/>
        <path id="Trazado_982187" data-name="Trazado 982187" d="M16.244,29.448A4.092,4.092,0,0,0,20.2,26.384h2.172v2.042a1.021,1.021,0,0,0,1.022,1.022h1.022L22.577,31.9a1.021,1.021,0,0,0,1.634,1.225l1.226-1.634V36.6a1.021,1.021,0,0,0,1.021,1.022H36.673A1.022,1.022,0,0,0,37.694,36.6V28.85l2.466-2.466h2.77a4.086,4.086,0,1,0,0-2.043H40.16L37.4,21.576a1.023,1.023,0,0,0-1.445,0l-2.765,2.766H30.544V22.3a1.022,1.022,0,0,0-1.022-1.022H23.394A1.022,1.022,0,0,0,22.373,22.3v2.043H20.2a4.086,4.086,0,1,0-3.956,5.107ZM46.887,23.32a2.043,2.043,0,1,1-2.042,2.043,2.043,2.043,0,0,1,2.042-2.043m-10.214.423,1.62,1.62-1.62,1.62-1.62-1.62Zm-6.129,4.684V26.384h2.641l2.466,2.466v6.727H27.48V31.491l1.226,1.634A1.021,1.021,0,0,0,30.34,31.9L28.5,29.448h1.022A1.022,1.022,0,0,0,30.544,28.427ZM24.416,23.32H28.5v4.085H24.416Zm-8.172,0A2.043,2.043,0,1,1,14.2,25.363a2.043,2.043,0,0,1,2.043-2.043" transform="translate(-3.987 -6.977)"/>
        <path id="Trazado_982188" data-name="Trazado 982188" d="M13.181,6.079A1.022,1.022,0,1,1,12.159,7.1a1.022,1.022,0,0,1,1.022-1.022" transform="translate(-3.987 -1.994)"/>
        <path id="Trazado_982189" data-name="Trazado 982189" d="M19.26,6.079A1.022,1.022,0,1,1,18.238,7.1,1.022,1.022,0,0,1,19.26,6.079" transform="translate(-5.981 -1.994)"/>
        <path id="Trazado_982190" data-name="Trazado 982190" d="M25.339,6.079A1.022,1.022,0,1,1,24.317,7.1a1.022,1.022,0,0,1,1.022-1.022" transform="translate(-7.974 -1.994)"/>
      </g>
    </g>
  </g>
</svg>
