<svg xmlns="http://www.w3.org/2000/svg" xmlns:xlink="http://www.w3.org/1999/xlink" width="108" height="108" viewBox="0 0 108 108">
  <defs>
    <filter id="Fondo" x="0" y="0" width="108" height="108" filterUnits="userSpaceOnUse">
      <feOffset dy="3" input="SourceAlpha"/>
      <feGaussianBlur stdDeviation="3" result="blur"/>
      <feFlood flood-opacity="0.161"/>
      <feComposite operator="in" in2="blur"/>
      <feComposite in="SourceGraphic"/>
    </filter>
  </defs>
  <g id="Icono" transform="translate(8.5 -689)">
    <g transform="matrix(1, 0, 0, 1, -8.5, 689)" filter="url(#Fondo)">
      <g id="Fondo-2" data-name="Fondo" transform="translate(9 6)" fill="#e6d567" stroke="#bca724" stroke-width="3">
        <circle cx="45" cy="45" r="45" stroke="none"/>
        <circle cx="45" cy="45" r="43.5" fill="none"/>
      </g>
    </g>
    <g id="Page-1" transform="translate(15.211 706.26)">
      <g id="_022---Volume-Calculations" data-name="022---Volume-Calculations" transform="translate(0 0.504)">
        <path id="Shape" d="M44.806,22.43,22.9,32.86,1,22.43,22.9,12Z" transform="translate(0.043 -0.01)" fill="#0377bc"/>
        <path id="Shape-2" data-name="Shape" d="M22.9,32.43V58.5L1,48.075V22Z" transform="translate(0.043 0.42)" fill="#00bcd4"/>
        <path id="Shape-3" data-name="Shape" d="M43.9,22V48.075L22,58.5V32.43Z" transform="translate(0.946 0.42)" fill="#02a9f4"/>
        <path id="Shape-4" data-name="Shape" d="M40.774,23.49V49.118L22,58.057V58.5l21.9-10.43V22Z" transform="translate(0.946 0.42)" fill="#0377bc"/>
        <path id="Shape-5" data-name="Shape" d="M9.464,47.865a1.037,1.037,0,0,1-.447-.1l-4.422-2.1A1.043,1.043,0,0,1,4,44.719V40.043a1.043,1.043,0,0,1,2.086,0v4.013l3.827,1.821a1.043,1.043,0,0,1-.448,1.982Z" transform="translate(0.172 1.151)" fill="#f5f5f5"/>
        <path id="Shape-6" data-name="Shape" d="M.076,49.05a.912.912,0,0,0,.1.171.989.989,0,0,0,.111.165,1.026,1.026,0,0,0,.187.14,1.034,1.034,0,0,0,.117.088l21.9,10.43h.021a.991.991,0,0,0,.855,0h.021L44.849,49.829l5.811,2.76a1.043,1.043,0,1,0,.895-1.884l-5.662-2.69V24.246l4.768,2.269a1.043,1.043,0,1,0,.895-1.884L47.279,22.6l4.262-2.031.115-.052a1.043,1.043,0,0,0-.868-1.9l-5.934,2.821L25.37,12.17l4.485-2.134a1.043,1.043,0,0,0-.9-1.884L.595,21.661a1.043,1.043,0,0,0-.269.191c-.02.02-.034.042-.053.063a1.043,1.043,0,0,0-.157.234c-.015.03-.029.06-.042.093A1.032,1.032,0,0,0,0,22.6V48.675a.994.994,0,0,0,.03.149,1.025,1.025,0,0,0,.046.226Zm43.73-1.034L23.989,57.453V33.688L43.806,24.25ZM21.9,57.453,2.086,48.017V24.252L21.9,33.688Zm1.043-44.128L42.428,22.6,22.946,31.875,3.469,22.6Z" transform="translate(0 -0.18)"/>
        <g id="Grupo_1143751" data-name="Grupo 1143751" transform="translate(31.296)">
          <path id="Shape-7" data-name="Shape" d="M59.927,49.2a1.043,1.043,0,0,0-1.46.209l-1.252,1.669V29.288l1.238,1.727a1.044,1.044,0,0,0,1.7-1.218L57.02,25.431a1.06,1.06,0,0,0-1.682-.015l-3.129,4.172a1.043,1.043,0,0,0,1.669,1.252l1.252-1.669v21.9l-1.252-1.669a1.043,1.043,0,0,0-1.669,1.252l3.129,4.172a1.043,1.043,0,0,0,1.669,0l3.129-4.172a1.043,1.043,0,0,0-.209-1.46Z" transform="translate(-29.06 0.549)" fill="#f44335"/>
          <path id="Shape-8" data-name="Shape" d="M57.4,14.1,54.975,9.486a1.043,1.043,0,1,0-1.846.97L54.1,12.3,34.422,2.951l2.086-.377A1.043,1.043,0,0,0,36.139.521l-5.286.952a1.058,1.058,0,0,0-.735,1.51L32.545,7.6a1.043,1.043,0,0,0,1.846-.97l-.97-1.847,19.783,9.4-2.044.417a1.043,1.043,0,0,0,.209,2.065,1.018,1.018,0,0,0,.209-.021l5.111-1.036A1.058,1.058,0,0,0,57.4,14.1Z" transform="translate(-30.006 -0.504)" fill="#f44335"/>
        </g>
      </g>
    </g>
  </g>
</svg>
