<svg id="Grupo_1145418" data-name="Grupo 1145418" xmlns="http://www.w3.org/2000/svg" xmlns:xlink="http://www.w3.org/1999/xlink" width="505" height="477.321" viewBox="0 0 505 477.321">
  <defs>
    <clipPath id="clip-path">
      <rect id="Rectángulo_406033" data-name="Rectángulo 406033" width="505" height="477.321" fill="none"/>
    </clipPath>
  </defs>
  <g id="Grupo_1145417" data-name="Grupo 1145417" clip-path="url(#clip-path)">
    <path id="Trazado_982191" data-name="Trazado 982191" d="M74.291,24.393q-1.841,1.255-3.633,2.552c-18.558,13.4-68.174,34.36-59.4,63.743,3.479,11.646,16.05,17.8,27.669,21.366,42.1,12.934,63.148-5.544,95.117-32.448,11.292-9.5,23.439-20.584,24.692-35.289,1.605-18.84-17.009-34.782-35.858-36.26C105.5,6.7,88.8,14.492,74.291,24.393" transform="translate(2.74 2.117)" fill="#eee8ff"/>
    <path id="Trazado_982192" data-name="Trazado 982192" d="M328.785,313.91c-18.9,22.022-29.431,53.364,3.66,69.359,32.66,15.786,61.481-12.1,71.051-41.475,5.533-16.988,1.743-38.427-13.423-47.87-13.542-8.433-31.944-4.72-44.839,4.672a98.728,98.728,0,0,0-16.45,15.315" transform="translate(83.322 77.477)" fill="#eee8ff"/>
    <path id="Trazado_982193" data-name="Trazado 982193" d="M77.59,439.588a184.054,184.054,0,0,1-32.857-32.406c-39.68-50.444-46.717-126-11.217-180.7,26.9-41.46,72.588-68.6,120.806-79.456,20.866-4.7,42.488-6.654,62.461-14.3,32.551-12.466,57.84-39.021,77.336-67.914,10.525-15.6,19.946-32.381,34.2-44.665C348.973,2.338,378.541-3.848,405.1,2.323S454.906,26.347,469.45,49.41C478.285,63.42,484.12,79.469,485.22,96c2.013,30.237-11.815,59.59-30.313,83.593s-41.663,43.936-62.35,66.081c-30.464,32.611-47.6,73.317-68.15,112.269-15.265,28.94-34.658,56.1-59.79,77.053s-56.344,35.416-89.011,37.254c-35.257,1.983-69.749-11.076-98.017-32.658" transform="translate(2.818 0)" fill="#eee8ff"/>
    <path id="Trazado_982194" data-name="Trazado 982194" d="M259.144,287.3v41.033a6.411,6.411,0,0,0,6.675,6.107h23.3" transform="translate(69.422 76.964)" fill="none" stroke="#c0a4fc" stroke-linecap="round" stroke-miterlimit="10" stroke-width="2"/>
    <path id="Trazado_982195" data-name="Trazado 982195" d="M215.779,197.891v44.182a5.783,5.783,0,0,0,5.784,5.784h64.775" transform="translate(57.805 53.013)" fill="none" stroke="#c0a4fc" stroke-linecap="round" stroke-miterlimit="10" stroke-width="2"/>
    <path id="Trazado_982196" data-name="Trazado 982196" d="M222.577,189.691v31.823a6.72,6.72,0,0,1-6.72,6.721H66.89a9.717,9.717,0,0,0-9.717,9.717V275.3" transform="translate(15.316 50.816)" fill="none" stroke="#c0a4fc" stroke-linecap="round" stroke-miterlimit="10" stroke-width="2"/>
    <rect id="Rectángulo_405997" data-name="Rectángulo 405997" width="12.337" height="9.993" transform="translate(329.567 29.09)" fill="#ff6363"/>
    <rect id="Rectángulo_405998" data-name="Rectángulo 405998" width="32.236" height="9.993" transform="translate(352.651 29.09)" fill="#ff6363"/>
    <rect id="Rectángulo_405999" data-name="Rectángulo 405999" width="40.295" height="9.993" transform="translate(413.093 29.09)" fill="#ff6363"/>
    <rect id="Rectángulo_406000" data-name="Rectángulo 406000" width="28.207" height="9.993" transform="translate(462.791 29.09)" fill="#ff6363"/>
    <rect id="Rectángulo_406001" data-name="Rectángulo 406001" width="18.804" height="9.993" transform="translate(378.171 46.856)" fill="#ff6363"/>
    <rect id="Rectángulo_406002" data-name="Rectángulo 406002" width="36.514" height="9.993" transform="translate(329.567 46.856)" fill="#ff6363"/>
    <rect id="Rectángulo_406003" data-name="Rectángulo 406003" width="32.236" height="9.993" transform="translate(449.359 46.856)" fill="#ff6363"/>
    <path id="Trazado_982197" data-name="Trazado 982197" d="M388.927,18.753h0a7.236,7.236,0,0,1,7.143,7.325v5.206a7.426,7.426,0,0,0,2.092,5.181l2.149,2.2-1.478,1.516a7.42,7.42,0,0,0-2.093,5.179v4.425a7.236,7.236,0,0,1-7.143,7.325h-1.178" transform="translate(104.053 5.024)" fill="none" stroke="#1c1c1b" stroke-linecap="round" stroke-linejoin="round" stroke-width="1"/>
    <path id="Trazado_982198" data-name="Trazado 982198" d="M261.556,18.753h0a7.236,7.236,0,0,0-7.143,7.325v5.206a7.426,7.426,0,0,1-2.092,5.181l-2.149,2.2,1.478,1.516a7.421,7.421,0,0,1,2.093,5.179v4.425a7.236,7.236,0,0,0,7.143,7.325h1.178" transform="translate(67.018 5.024)" fill="none" stroke="#1c1c1b" stroke-linecap="round" stroke-linejoin="round" stroke-width="1"/>
    <line id="Línea_872" data-name="Línea 872" x2="16.117" y2="28.654" transform="translate(397.92 28.643)" fill="none" stroke="#1c1c1b" stroke-linecap="round" stroke-linejoin="round" stroke-width="1"/>
    <path id="Trazado_982199" data-name="Trazado 982199" d="M335.542,198.211c7.137-6.238,9.827-16.63,9.878-26.269a42.575,42.575,0,0,0-1.746-12.906c-1.216-3.9-2.33-6-6.028-8.182,1.634-4.916,2.4-9.542.2-14.4a15.552,15.552,0,0,0-9.758-8.7l.014.2c-.16-.1-.32-.2-.483-.294a13.159,13.159,0,0,0-1.264-5.276,15.837,15.837,0,0,0-4.379-5.4c-2.154-1.734-4.719-2.23-7.336-3.028a4.292,4.292,0,0,1-1.179-.492,4.974,4.974,0,0,1-1.208-1.415,16.281,16.281,0,0,0-9.75-6.6,2.47,2.47,0,0,1-1.16-.465,2.523,2.523,0,0,1-.563-1.032,11.721,11.721,0,0,0-9.565-7.374,1.82,1.82,0,0,1-.937-.261,1.745,1.745,0,0,1-.449-.635,20.122,20.122,0,0,0-22.982-10.371,15.213,15.213,0,0,0-7.074-9.815c-3.536-2.219-7.494-3.99-11.7-4.012-4.51-.022-7.833,2.425-11.121,5.288a5.792,5.792,0,0,0-1.613-4.031,12.7,12.7,0,0,0-17.9-1.553l.032.018c-.039.01-.077.015-.115.024a2.706,2.706,0,0,0-.285-.512,4.836,4.836,0,0,0-1.96-1.316c-12.348-5.406-28.093-1.563-36.561,8.923a19.517,19.517,0,0,0-27.568,8.974c-.707-1.2-2.2-1.661-3.574-1.9a23.206,23.206,0,0,0-27.1,21.264,24.145,24.145,0,0,0-19.235,10.119c-1.84,2.625-3.123,5.88-2.775,9a17.481,17.481,0,0,0-3.6,3.861,13.1,13.1,0,0,0-1.906,10.5,16.033,16.033,0,0,0,2.171,4.339c-7.223,1.657-12.24,9.05-12.585,16.464a25.93,25.93,0,0,0,4.345,14.914l-.136-.081A17.362,17.362,0,0,0,98.9,200.618a14.393,14.393,0,0,0,9.28-1.2c.039.005.079.006.119.014a13.832,13.832,0,0,0,10.114,10.389,24.55,24.55,0,0,0,9.5.049c4.4-.631,8.874-1.642,12.542-4.149.28-.191.553-.4.819-.609.229.171.456.346.686.519a18.083,18.083,0,0,0,6.509,14.952c4.892,4.014,9.807,5.533,15.916,3.941a17.532,17.532,0,0,0,9.744,10.889,25.13,25.13,0,0,0,14.782,1.506c4.022-.725,8.33-2.637,9.756-6.469a15.059,15.059,0,0,0,11.22,2.443c2.87-.611,5.617-3.222,8.431-3.56,1.125-.137,2.253-.255,3.379-.383,4.813,13.824,20.435,20.393,34.347,15.477,6.816,9.182,17.872,14.9,29.269,15.863a48.784,48.784,0,0,0,32.261-9.365c8.809-6.37,15.961-17.349,12.728-27.727,9.884-3.838,13.871-17.6,6.639-25.354Z" transform="translate(22.062 17.94)" fill="#7a5ce0"/>
    <path id="Trazado_982200" data-name="Trazado 982200" d="M331.847,192.3c7.137-6.241,9.827-16.63,9.878-26.271a42.585,42.585,0,0,0-1.746-12.906c-1.216-3.9-2.33-6-6.028-8.182,1.634-4.914,2.4-9.542.2-14.394a15.547,15.547,0,0,0-9.758-8.7l.015.2c-.161-.1-.321-.2-.484-.294a13.164,13.164,0,0,0-1.264-5.277,15.849,15.849,0,0,0-4.379-5.4c-2.154-1.734-4.718-2.229-7.336-3.026a4.371,4.371,0,0,1-1.179-.492,4.993,4.993,0,0,1-1.208-1.415,16.277,16.277,0,0,0-9.75-6.6,2.456,2.456,0,0,1-1.16-.464,2.532,2.532,0,0,1-.563-1.032,11.72,11.72,0,0,0-9.565-7.375,1.819,1.819,0,0,1-.937-.26,1.755,1.755,0,0,1-.449-.636,20.119,20.119,0,0,0-22.982-10.37,15.219,15.219,0,0,0-7.074-9.816c-3.536-2.218-7.495-3.989-11.7-4.01-4.509-.022-7.833,2.424-11.121,5.287a5.789,5.789,0,0,0-1.613-4.029,12.7,12.7,0,0,0-17.9-1.554l.032.019c-.038.009-.077.015-.115.023a2.7,2.7,0,0,0-.285-.512,4.821,4.821,0,0,0-1.96-1.315c-12.348-5.408-28.091-1.565-36.561,8.923A19.514,19.514,0,0,0,147.289,81.4c-.707-1.2-2.2-1.663-3.574-1.9a23.2,23.2,0,0,0-27.1,21.264,24.141,24.141,0,0,0-19.236,10.118c-1.84,2.625-3.123,5.88-2.775,9a17.5,17.5,0,0,0-3.6,3.859,13.106,13.106,0,0,0-1.906,10.5,16.015,16.015,0,0,0,2.171,4.339c-7.223,1.658-12.24,9.05-12.585,16.464a25.925,25.925,0,0,0,4.345,14.914l-.136-.08A17.363,17.363,0,0,0,95.2,194.708a14.393,14.393,0,0,0,9.28-1.2c.039.006.079.008.119.015a13.83,13.83,0,0,0,10.114,10.388,24.55,24.55,0,0,0,9.5.049c4.4-.631,8.874-1.641,12.542-4.149.28-.191.553-.4.819-.607.229.171.458.345.686.519a18.08,18.08,0,0,0,6.509,14.951c4.892,4.015,9.807,5.534,15.916,3.941A17.526,17.526,0,0,0,170.43,229.5a25.12,25.12,0,0,0,14.782,1.508c4.022-.725,8.33-2.638,9.756-6.469a15.058,15.058,0,0,0,11.22,2.442c2.87-.61,5.617-3.222,8.431-3.56,1.125-.136,2.253-.255,3.379-.382,4.813,13.823,20.435,20.393,34.347,15.476,6.816,9.183,17.872,14.9,29.269,15.864a48.784,48.784,0,0,0,32.261-9.365c8.809-6.371,15.961-17.349,12.728-27.727,9.884-3.838,13.871-17.6,6.639-25.357Z" transform="translate(21.072 16.357)" fill="none" stroke="#1d1d1b" stroke-linecap="round" stroke-linejoin="round" stroke-width="2"/>
    <line id="Línea_873" data-name="Línea 873" x1="2.116" y2="27.593" transform="translate(176.849 192.75)" fill="none" stroke="#000" stroke-miterlimit="10" stroke-width="1"/>
    <path id="Trazado_982201" data-name="Trazado 982201" d="M183.954,139.551l-3.01,22.776,4.7,24.425L163.752,177.2l-18.569,5.76L118.21,163.151" transform="translate(31.667 37.384)" fill="none" stroke="#000" stroke-miterlimit="10" stroke-width="1"/>
    <line id="Línea_874" data-name="Línea 874" x2="35.123" y2="12.025" transform="translate(237.029 208.73)" fill="none" stroke="#000" stroke-miterlimit="10" stroke-width="1"/>
    <line id="Línea_875" data-name="Línea 875" x1="4.978" y2="37.055" transform="translate(291.138 164.713)" fill="none" stroke="#000" stroke-miterlimit="10" stroke-width="1"/>
    <path id="Trazado_982202" data-name="Trazado 982202" d="M130.841,141.676l13.073,18.765,25.7-39.837" transform="translate(35.051 32.308)" fill="none" stroke="#000" stroke-miterlimit="10" stroke-width="1"/>
    <path id="Trazado_982203" data-name="Trazado 982203" d="M149.455,96.008l13.064,16.858,42.145-7.586,32.028-2.95" transform="translate(40.037 25.719)" fill="none" stroke="#000" stroke-miterlimit="10" stroke-width="1"/>
    <line id="Línea_876" data-name="Línea 876" x1="67.821" y1="20.673" transform="translate(225.691 229.667)" fill="none" stroke="#000" stroke-miterlimit="10" stroke-width="1"/>
    <path id="Trazado_982204" data-name="Trazado 982204" d="M271.164,186.4l-27.054-8.7-30.167-2.215" transform="translate(57.313 47.01)" fill="none" stroke="#000" stroke-miterlimit="10" stroke-width="1"/>
    <path id="Trazado_982205" data-name="Trazado 982205" d="M210.283,144.2l24.523,18.933,27.371-.158" transform="translate(56.332 38.631)" fill="none" stroke="#000" stroke-miterlimit="10" stroke-width="1"/>
    <line id="Línea_877" data-name="Línea 877" x1="12.657" y2="34.175" transform="translate(301.211 128.831)" fill="none" stroke="#000" stroke-miterlimit="10" stroke-width="1"/>
    <path id="Trazado_982206" data-name="Trazado 982206" d="M148.514,96.629l56.377,9.968L183.954,78.276" transform="translate(39.785 20.969)" fill="none" stroke="#000" stroke-miterlimit="10" stroke-width="1"/>
    <path id="Trazado_982207" data-name="Trazado 982207" d="M132.415,134.554l-15.347,29.269,29.586-6.8" transform="translate(31.361 36.046)" fill="none" stroke="#000" stroke-miterlimit="10" stroke-width="1"/>
    <line id="Línea_878" data-name="Línea 878" x1="9.81" y1="32.275" transform="translate(320.724 200.977)" fill="none" stroke="#000" stroke-miterlimit="10" stroke-width="1"/>
    <line id="Línea_879" data-name="Línea 879" x1="9.277" y2="24.11" transform="translate(166.308 143.642)" fill="none" stroke="#000" stroke-miterlimit="10" stroke-width="1"/>
    <line id="Línea_880" data-name="Línea 880" y1="26.58" x2="42.401" transform="translate(163.46 146.868)" fill="none" stroke="#000" stroke-miterlimit="10" stroke-width="1"/>
    <path id="Trazado_982208" data-name="Trazado 982208" d="M280.633,188.518l-33.225,17.72L227.79,176.493,172.1,186.62l18.828-21.993" transform="translate(46.103 44.102)" fill="none" stroke="#000" stroke-miterlimit="10" stroke-width="1"/>
    <path id="Trazado_982209" data-name="Trazado 982209" d="M202.977,101.112l-32.751,46.674,41.928,1.424Z" transform="translate(45.602 27.087)" fill="none" stroke="#000" stroke-miterlimit="10" stroke-width="1"/>
    <path id="Trazado_982210" data-name="Trazado 982210" d="M242.879,131.757c0-.95-18.037-31.643-18.037-31.643l-19.3,54.425Z" transform="translate(55.062 26.819)" fill="none" stroke="#000" stroke-miterlimit="10" stroke-width="1"/>
    <line id="Línea_881" data-name="Línea 881" x1="21.042" y2="42.244" transform="translate(122.483 134.843)" fill="none" stroke="#000" stroke-miterlimit="10" stroke-width="1"/>
    <path id="Trazado_982211" data-name="Trazado 982211" d="M118.013,106.353l23.1,41.452-45.882,1.582" transform="translate(25.511 28.491)" fill="none" stroke="#000" stroke-miterlimit="10" stroke-width="1"/>
    <path id="Trazado_982212" data-name="Trazado 982212" d="M190.874,78.276,157.49,96.154l-34.807-6.329,18.772,32,33.122.273,8.386,31.8S145.15,171.78,146.1,171.78s16.453,21.834,16.453,21.834l17.193-14.872L204.638,189.5l20.252-34.173,14.4,44.457,16.929-18.827,12.342,22.783,17.087-23.1L262.861,141.4l34.807,15.189L281,107.862l-35.545-.633.474-25.156Z" transform="translate(32.865 20.969)" fill="none" stroke="#000" stroke-miterlimit="10" stroke-width="1"/>
    <path id="Trazado_982213" data-name="Trazado 982213" d="M281.451,127.618a8.865,8.865,0,0,0-2.195-1.792,6.735,6.735,0,0,0-3.485-.974,5.569,5.569,0,0,0-5.226,4.828,8.909,8.909,0,0,0,1.437,5.162,31.3,31.3,0,0,1,2.568,4.791,9.658,9.658,0,0,1-.193,6.848" transform="translate(72.468 33.446)" fill="none" stroke="#1d1d1b" stroke-linecap="round" stroke-miterlimit="10" stroke-width="2"/>
    <path id="Trazado_982214" data-name="Trazado 982214" d="M283.969,154.734l-18.985-15.188-12.025,24.048Z" transform="translate(67.765 37.383)" fill="none" stroke="#000" stroke-miterlimit="10" stroke-width="1"/>
    <path id="Trazado_982215" data-name="Trazado 982215" d="M276,183.21a36,36,0,0,1-6.326,1.584" transform="translate(72.244 49.08)" fill="none" stroke="#1d1d1b" stroke-linecap="round" stroke-miterlimit="10" stroke-width="2"/>
    <path id="Trazado_982216" data-name="Trazado 982216" d="M97.458,124.723a16.158,16.158,0,0,0-14.713,14.521" transform="translate(22.166 33.412)" fill="none" stroke="#1d1d1b" stroke-linecap="round" stroke-miterlimit="10" stroke-width="2"/>
    <path id="Trazado_982217" data-name="Trazado 982217" d="M97.6,113.878a6.224,6.224,0,0,0,4.384-.24,18.473,18.473,0,0,0,3.84-2.305" transform="translate(26.145 29.825)" fill="none" stroke="#1d1d1b" stroke-linecap="round" stroke-miterlimit="10" stroke-width="2"/>
    <path id="Trazado_982218" data-name="Trazado 982218" d="M156.586,68.366a33.276,33.276,0,0,0-7.17,12.1" transform="translate(40.027 18.314)" fill="none" stroke="#1d1d1b" stroke-linecap="round" stroke-linejoin="round" stroke-width="2"/>
    <path id="Trazado_982219" data-name="Trazado 982219" d="M132.793,75.9q-1.324,3.672-2.374,7.436" transform="translate(34.938 20.334)" fill="none" stroke="#1d1d1b" stroke-linecap="round" stroke-linejoin="round" stroke-width="2"/>
    <path id="Trazado_982220" data-name="Trazado 982220" d="M224.446,75.4a21.048,21.048,0,0,1-1.846,9.952" transform="translate(59.632 20.199)" fill="none" stroke="#1d1d1b" stroke-linecap="round" stroke-linejoin="round" stroke-width="2"/>
    <path id="Trazado_982221" data-name="Trazado 982221" d="M264.709,97.939c-5.371-1.338-11.052.387-16,2.876" transform="translate(66.627 26.112)" fill="none" stroke="#1d1d1b" stroke-linecap="round" stroke-miterlimit="10" stroke-width="2"/>
    <path id="Trazado_982222" data-name="Trazado 982222" d="M262.913,187.193a16.492,16.492,0,0,1-13.707,21.757" transform="translate(66.759 50.147)" fill="none" stroke="#1d1d1b" stroke-linecap="round" stroke-miterlimit="10" stroke-width="2"/>
    <path id="Trazado_982223" data-name="Trazado 982223" d="M256.751,103.216a7.594,7.594,0,1,1-7.595-7.595,7.595,7.595,0,0,1,7.595,7.595" transform="translate(64.712 25.616)" fill="#ff6363"/>
    <path id="Trazado_982224" data-name="Trazado 982224" d="M209.089,103.385a10.759,10.759,0,1,1-10.758-10.759,10.758,10.758,0,0,1,10.758,10.759" transform="translate(50.248 24.813)" fill="#eee8ff"/>
    <path id="Trazado_982225" data-name="Trazado 982225" d="M228.132,82.708a6.8,6.8,0,1,1-6.8-6.8,6.8,6.8,0,0,1,6.8,6.8" transform="translate(57.469 20.334)" fill="#eee8ff"/>
    <path id="Trazado_982226" data-name="Trazado 982226" d="M228.266,101.742a7.12,7.12,0,1,1-7.119-7.119,7.119,7.119,0,0,1,7.119,7.119" transform="translate(57.335 25.348)" fill="#c0a4fc"/>
    <path id="Trazado_982227" data-name="Trazado 982227" d="M107.911,141.643a9.335,9.335,0,1,1-9.334-9.334,9.334,9.334,0,0,1,9.334,9.334" transform="translate(23.907 35.444)" fill="#eee8ff"/>
    <path id="Trazado_982228" data-name="Trazado 982228" d="M120.1,107.556a5.7,5.7,0,1,1-5.7-5.7,5.7,5.7,0,0,1,5.7,5.7" transform="translate(29.122 27.287)" fill="#eee8ff"/>
    <path id="Trazado_982229" data-name="Trazado 982229" d="M144.236,138.094a12.024,12.024,0,1,1-12.025-12.025,12.024,12.024,0,0,1,12.025,12.025" transform="translate(32.197 33.772)" fill="#eee8ff"/>
    <path id="Trazado_982230" data-name="Trazado 982230" d="M249.306,129.858a12.025,12.025,0,1,1-12.026-12.025,12.025,12.025,0,0,1,12.026,12.025" transform="translate(60.344 31.566)" fill="#c0a4fc"/>
    <path id="Trazado_982231" data-name="Trazado 982231" d="M123.392,158.743a5.221,5.221,0,1,1-5.221-5.221,5.222,5.222,0,0,1,5.221,5.221" transform="translate(30.258 41.127)" fill="#ff6363"/>
    <path id="Trazado_982232" data-name="Trazado 982232" d="M164.42,95.526a13.132,13.132,0,1,1-13.132-13.132A13.132,13.132,0,0,1,164.42,95.526" transform="translate(37.011 22.072)" fill="#eee8ff"/>
    <path id="Trazado_982233" data-name="Trazado 982233" d="M146.708,114.287a7.023,7.023,0,1,1-7.023-7.023,7.023,7.023,0,0,1,7.023,7.023" transform="translate(35.538 28.735)" fill="#c0a4fc"/>
    <path id="Trazado_982234" data-name="Trazado 982234" d="M180.593,115.885A14.45,14.45,0,1,1,165.1,102.562a14.451,14.451,0,0,1,15.494,13.323" transform="translate(40.648 27.464)" fill="#ff6363"/>
    <path id="Trazado_982235" data-name="Trazado 982235" d="M160.645,170.382a5.379,5.379,0,1,1-5.38-5.38,5.38,5.38,0,0,1,5.38,5.38" transform="translate(40.153 44.202)" fill="#c0a4fc"/>
    <path id="Trazado_982236" data-name="Trazado 982236" d="M177.193,159.173a7.263,7.263,0,1,1-7.264-7.264,7.264,7.264,0,0,1,7.264,7.264" transform="translate(43.577 40.695)" fill="#eee8ff"/>
    <path id="Trazado_982237" data-name="Trazado 982237" d="M227.287,144.555A18.983,18.983,0,1,1,208.3,125.572a18.983,18.983,0,0,1,18.983,18.983" transform="translate(50.717 33.639)" fill="#ff6363"/>
    <path id="Trazado_982238" data-name="Trazado 982238" d="M195.189,166.065a6.8,6.8,0,1,1-6.8-6.8,6.8,6.8,0,0,1,6.8,6.8" transform="translate(48.644 42.664)" fill="#eee8ff"/>
    <path id="Trazado_982239" data-name="Trazado 982239" d="M225.574,176.016A9.018,9.018,0,1,1,216.555,167a9.018,9.018,0,0,1,9.018,9.018" transform="translate(55.597 44.737)" fill="#eee8ff"/>
    <path id="Trazado_982240" data-name="Trazado 982240" d="M236.332,160.307a5.538,5.538,0,1,1-5.538-5.538,5.537,5.537,0,0,1,5.538,5.538" transform="translate(60.344 41.461)" fill="#ff6363"/>
    <path id="Trazado_982241" data-name="Trazado 982241" d="M183.671,140.269a11.1,11.1,0,1,1-11.1-11.1,11.1,11.1,0,0,1,11.1,11.1" transform="translate(43.257 34.603)" fill="#eee8ff"/>
    <path id="Trazado_982242" data-name="Trazado 982242" d="M271.428,141.917a8.86,8.86,0,1,1-8.86-8.86,8.861,8.861,0,0,1,8.86,8.86" transform="translate(67.965 35.644)" fill="#eee8ff"/>
    <path id="Trazado_982243" data-name="Trazado 982243" d="M261.6,160.048a7.855,7.855,0,1,1-7.855-7.855,7.855,7.855,0,0,1,7.855,7.855" transform="translate(65.871 40.771)" fill="#ff6363"/>
    <path id="Trazado_982244" data-name="Trazado 982244" d="M286.233,153.063a7.278,7.278,0,1,1-7.278-7.278,7.278,7.278,0,0,1,7.278,7.278" transform="translate(72.779 39.054)" fill="#eee8ff"/>
    <path id="Trazado_982245" data-name="Trazado 982245" d="M270,186a9.018,9.018,0,1,1-9.018-9.018A9.019,9.019,0,0,1,270,186" transform="translate(67.497 47.411)" fill="#eee8ff"/>
    <path id="Trazado_982246" data-name="Trazado 982246" d="M243.1,178.167a4.43,4.43,0,1,1-4.43-4.43,4.429,4.429,0,0,1,4.43,4.43" transform="translate(62.751 46.542)" fill="#eee8ff"/>
    <path id="Trazado_982247" data-name="Trazado 982247" d="M244.278,198.222a10.759,10.759,0,1,1-10.758-10.758,10.758,10.758,0,0,1,10.758,10.758" transform="translate(59.675 50.219)" fill="#ff6363"/>
    <path id="Trazado_982248" data-name="Trazado 982248" d="M187.773,80.248a9.335,9.335,0,1,1-9.334-9.334,9.334,9.334,0,0,1,9.334,9.334" transform="translate(45.301 18.997)" fill="#ff6363"/>
    <path id="Trazado_982249" data-name="Trazado 982249" d="M132.765,90.3a7.911,7.911,0,1,1-7.91-7.91,7.91,7.91,0,0,1,7.91,7.91" transform="translate(31.328 22.072)" fill="#ff6363"/>
    <path id="Trazado_982250" data-name="Trazado 982250" d="M149.78,153.529a7.123,7.123,0,1,1-7.123-7.123,7.123,7.123,0,0,1,7.123,7.123" transform="translate(36.308 39.22)" fill="#ff6363"/>
    <path id="Trazado_982251" data-name="Trazado 982251" d="M149.789,174.812a9.809,9.809,0,1,1-9.81-9.81,9.81,9.81,0,0,1,9.81,9.81" transform="translate(34.871 44.202)" fill="#eee8ff"/>
    <path id="Trazado_982252" data-name="Trazado 982252" d="M183.932,182.524a10.284,10.284,0,1,1-10.284-10.284,10.283,10.283,0,0,1,10.284,10.284" transform="translate(43.763 46.141)" fill="#ff6363"/>
    <path id="Trazado_982253" data-name="Trazado 982253" d="M200.939,68.584a40.034,40.034,0,0,1-1.452,7.59" transform="translate(53.44 18.373)" fill="none" stroke="#1d1d1b" stroke-linecap="round" stroke-linejoin="round" stroke-width="2"/>
    <path id="Trazado_982254" data-name="Trazado 982254" d="M184.37,63.913a46.955,46.955,0,0,1,5.248,4.661" transform="translate(49.391 17.122)" fill="none" stroke="#1d1d1b" stroke-linecap="round" stroke-linejoin="round" stroke-width="2"/>
    <path id="Trazado_982255" data-name="Trazado 982255" d="M99.2,167.191a32.724,32.724,0,0,1,.51-6.533" transform="translate(26.572 43.038)" fill="none" stroke="#1d1d1b" stroke-linecap="round" stroke-linejoin="round" stroke-width="2"/>
    <path id="Trazado_982256" data-name="Trazado 982256" d="M112.268,170.44c2.133,1.249,4.861.554,7.113-.465A28.5,28.5,0,0,0,125.758,166" transform="translate(30.075 44.469)" fill="none" stroke="#1d1d1b" stroke-linecap="round" stroke-linejoin="round" stroke-width="2"/>
    <path id="Trazado_982257" data-name="Trazado 982257" d="M106.451,147.453a9.531,9.531,0,0,1,2.962,7.728,21.689,21.689,0,0,1-2.429,8.163" transform="translate(28.517 39.501)" fill="none" stroke="#1d1d1b" stroke-linecap="round" stroke-miterlimit="10" stroke-width="2"/>
    <path id="Trazado_982258" data-name="Trazado 982258" d="M85.655,149.678a11.872,11.872,0,0,0,2,9.67" transform="translate(22.865 40.097)" fill="none" stroke="#1d1d1b" stroke-linecap="round" stroke-miterlimit="10" stroke-width="2"/>
    <path id="Trazado_982259" data-name="Trazado 982259" d="M282.035,165.19c-2.441-.809-9.888-3.214-12.219-4.3" transform="translate(72.281 43.1)" fill="none" stroke="#1d1d1b" stroke-linecap="round" stroke-miterlimit="10" stroke-width="2"/>
    <path id="Trazado_982260" data-name="Trazado 982260" d="M246.729,85.569c-1.232-1.293-3.379-.582-4.98.21l-12.058,5.96" transform="translate(61.532 22.732)" fill="none" stroke="#1d1d1b" stroke-linecap="round" stroke-miterlimit="10" stroke-width="2"/>
    <path id="Trazado_982261" data-name="Trazado 982261" d="M252.253,366.18a5.6,5.6,0,0,1,7-8.741,5.479,5.479,0,0,1,.54.53,33.629,33.629,0,0,0,2.7-6.12,5.509,5.509,0,0,1-.827-.043,5.6,5.6,0,1,1,2.5-10.861,34.06,34.06,0,0,0-.742-6.7,5.59,5.59,0,1,1-4.862-10.026,5.5,5.5,0,0,1,.852-.237,33.734,33.734,0,0,0-4.022-5.444,5.685,5.685,0,0,1-.5.777,5.6,5.6,0,1,1-8.121-7.631,33.654,33.654,0,0,0-6.206-2.694,5.591,5.591,0,1,1-11.116-.775,5.525,5.525,0,0,1,.213-.827,34.22,34.22,0,0,0-6.689.787,5.689,5.689,0,0,1,.393.768,5.6,5.6,0,1,1-10.645,3.3,33.677,33.677,0,0,0-5.358,4.007,5.7,5.7,0,0,1,.668.432,5.6,5.6,0,1,1-7.5,8.25,33.8,33.8,0,0,0-2.621,6.087,5.607,5.607,0,1,1-1.587,10.95,34.2,34.2,0,0,0,.766,6.531,5.884,5.884,0,0,1,.571-.292,5.6,5.6,0,1,1,4.07,10.432,5.694,5.694,0,0,1-.567.157,33.607,33.607,0,0,0,3.909,5.258,5.669,5.669,0,0,1,.331-.512,5.6,5.6,0,0,1,8.741,7,5.54,5.54,0,0,1-.4.408,33.613,33.613,0,0,0,6,2.623,5.375,5.375,0,0,1,.032-.62,5.6,5.6,0,1,1,11.069,1.69,5.657,5.657,0,0,1-.152.59,34.041,34.041,0,0,0,6.538-.725,5.586,5.586,0,1,1,10.128-4.663,5.29,5.29,0,0,1,.183.654,33.708,33.708,0,0,0,5.343-3.925,5.509,5.509,0,0,1-.621-.4M243.7,353.244a18.014,18.014,0,1,1-1.543-25.43,18.034,18.034,0,0,1,1.543,25.43" transform="translate(52.59 82.347)" fill="#7a5ce0"/>
    <path id="Trazado_982262" data-name="Trazado 982262" d="M237.512,347.3a15.062,15.062,0,1,1-1.289-21.261A15.062,15.062,0,0,1,237.512,347.3Z" transform="translate(56.571 86.329)" fill="none" stroke="#000" stroke-miterlimit="10" stroke-width="1"/>
    <path id="Trazado_982263" data-name="Trazado 982263" d="M156.615,282.111a6.482,6.482,0,0,1-.573-.562,38.546,38.546,0,0,0-3,6.968,6.262,6.262,0,0,1,.813.041,6.409,6.409,0,1,1-1.936,12.67,6.236,6.236,0,0,1-.694-.179,39.011,39.011,0,0,0,.876,7.475,6.59,6.59,0,0,1,.653-.333,6.409,6.409,0,0,1,4.658,11.941,6.035,6.035,0,0,1-.649.18,38.6,38.6,0,0,0,4.474,6.019,6.143,6.143,0,0,1,.379-.586,6.408,6.408,0,0,1,10,8.011,5.9,5.9,0,0,1-.458.467,38.575,38.575,0,0,0,6.869,3,6.393,6.393,0,1,1,12.706,1.225,6.259,6.259,0,0,1-.174.675,39.1,39.1,0,0,0,7.486-.829,6.394,6.394,0,1,1,11.592-5.339,6.2,6.2,0,0,1,.208.748,38.507,38.507,0,0,0,6.116-4.492,6.116,6.116,0,0,1-.711-.46,6.412,6.412,0,1,1,8.629-9.4,38.483,38.483,0,0,0,3.087-7.006,6.41,6.41,0,1,1,1.911-12.481,38.941,38.941,0,0,0-.849-7.664,6.4,6.4,0,1,1-5.565-11.477,6.446,6.446,0,0,1,.975-.271,38.542,38.542,0,0,0-4.6-6.23,6.412,6.412,0,1,1-9.87-7.847,38.588,38.588,0,0,0-7.1-3.082,6.4,6.4,0,1,1-12.725-.888,6.465,6.465,0,0,1,.243-.946,39,39,0,0,0-7.657.9,6.291,6.291,0,0,1,.45.879,6.408,6.408,0,0,1-11.94,4.659,6.277,6.277,0,0,1-.245-.877,38.6,38.6,0,0,0-6.134,4.586,6.4,6.4,0,1,1-7.246,10.5m41.94.147a19.938,19.938,0,1,1-26.536,9.534,19.96,19.96,0,0,1,26.536-9.534" transform="translate(40.512 70.043)" fill="#7a5ce0"/>
    <path id="Trazado_982264" data-name="Trazado 982264" d="M198.172,307.014a16.959,16.959,0,1,1-1.452-23.939A16.958,16.958,0,0,1,198.172,307.014Z" transform="translate(45.144 74.69)" fill="none" stroke="#000" stroke-miterlimit="10" stroke-width="1"/>
    <path id="Trazado_982265" data-name="Trazado 982265" d="M90.822,288.012V265.486a8.448,8.448,0,0,0-8.448-8.448H45.495a9.011,9.011,0,0,1-9.011-9.011v-104.7" transform="translate(9.774 38.397)" fill="none" stroke="#c0a4fc" stroke-linecap="round" stroke-miterlimit="10" stroke-width="2"/>
    <rect id="Rectángulo_406004" data-name="Rectángulo 406004" width="134.172" height="32.978" transform="translate(0 332.083)" fill="#7a5ce0"/>
    <rect id="Rectángulo_406005" data-name="Rectángulo 406005" width="90.181" height="1.773" transform="translate(9.164 351.587)" fill="#1d1d1b"/>
    <rect id="Rectángulo_406006" data-name="Rectángulo 406006" width="90.181" height="4.964" transform="translate(9.164 343.43)" fill="#e5dbff"/>
    <rect id="Rectángulo_406007" data-name="Rectángulo 406007" width="11.519" height="1.773" transform="translate(111.81 351.587)" fill="#1d1d1b"/>
    <rect id="Rectángulo_406008" data-name="Rectángulo 406008" width="11.519" height="4.964" transform="translate(111.81 343.43)" fill="#e5dbff"/>
    <rect id="Rectángulo_406009" data-name="Rectángulo 406009" width="135.233" height="32.978" transform="translate(3.185 334.137)" fill="none" stroke="#000" stroke-miterlimit="10" stroke-width="1"/>
    <rect id="Rectángulo_406010" data-name="Rectángulo 406010" width="134.172" height="32.978" transform="translate(0 368.607)" fill="#c0a4fc"/>
    <rect id="Rectángulo_406011" data-name="Rectángulo 406011" width="90.181" height="1.773" transform="translate(9.164 388.111)" fill="#1d1d1b"/>
    <rect id="Rectángulo_406012" data-name="Rectángulo 406012" width="90.181" height="4.964" transform="translate(9.164 379.954)" fill="#e5dbff"/>
    <rect id="Rectángulo_406013" data-name="Rectángulo 406013" width="11.519" height="1.773" transform="translate(111.81 388.111)" fill="#1d1d1b"/>
    <rect id="Rectángulo_406014" data-name="Rectángulo 406014" width="11.519" height="4.964" transform="translate(111.81 379.954)" fill="#e5dbff"/>
    <rect id="Rectángulo_406015" data-name="Rectángulo 406015" width="135.233" height="32.978" transform="translate(3.185 370.661)" fill="none" stroke="#000" stroke-miterlimit="10" stroke-width="1"/>
    <rect id="Rectángulo_406016" data-name="Rectángulo 406016" width="134.172" height="32.978" transform="translate(0 405.131)" fill="#7a5ce0"/>
    <rect id="Rectángulo_406017" data-name="Rectángulo 406017" width="90.181" height="1.773" transform="translate(9.164 424.635)" fill="#1d1d1b"/>
    <rect id="Rectángulo_406018" data-name="Rectángulo 406018" width="90.181" height="4.964" transform="translate(9.164 416.479)" fill="#e5dbff"/>
    <rect id="Rectángulo_406019" data-name="Rectángulo 406019" width="11.519" height="1.773" transform="translate(111.81 424.635)" fill="#1d1d1b"/>
    <rect id="Rectángulo_406020" data-name="Rectángulo 406020" width="11.519" height="4.964" transform="translate(111.81 416.479)" fill="#e5dbff"/>
    <rect id="Rectángulo_406021" data-name="Rectángulo 406021" width="135.233" height="32.978" transform="translate(3.185 407.185)" fill="none" stroke="#000" stroke-miterlimit="10" stroke-width="1"/>
    <rect id="Rectángulo_406022" data-name="Rectángulo 406022" width="134.172" height="32.978" transform="translate(0 441.655)" fill="#c0a4fc"/>
    <rect id="Rectángulo_406023" data-name="Rectángulo 406023" width="90.181" height="1.773" transform="translate(9.164 461.159)" fill="#1d1d1b"/>
    <rect id="Rectángulo_406024" data-name="Rectángulo 406024" width="90.181" height="4.964" transform="translate(9.164 453.003)" fill="#e5dbff"/>
    <rect id="Rectángulo_406025" data-name="Rectángulo 406025" width="11.519" height="1.773" transform="translate(111.81 461.159)" fill="#1d1d1b"/>
    <rect id="Rectángulo_406026" data-name="Rectángulo 406026" width="11.519" height="4.964" transform="translate(111.81 453.003)" fill="#e5dbff"/>
    <rect id="Rectángulo_406027" data-name="Rectángulo 406027" width="135.233" height="32.978" transform="translate(3.185 443.709)" fill="none" stroke="#000" stroke-miterlimit="10" stroke-width="1"/>
    <path id="Trazado_982266" data-name="Trazado 982266" d="M295.678,300.5H252.943c-3.649,0-6.606-2.452-6.606-5.475V236.807" transform="translate(65.991 63.438)" fill="none" stroke="#c0a4fc" stroke-miterlimit="10" stroke-width="2"/>
    <path id="Trazado_982267" data-name="Trazado 982267" d="M398.735,269.157H288.423a8.039,8.039,0,0,1-8.036-7.818l-.752-27.331a8.039,8.039,0,0,1,8.036-8.259H398.735a8.038,8.038,0,0,1,8.038,8.038v27.331a8.039,8.039,0,0,1-8.038,8.038" transform="translate(74.91 60.476)" fill="#ff6363"/>
    <path id="Trazado_982268" data-name="Trazado 982268" d="M287.979,267.1h109.95a7.286,7.286,0,0,1,7.413,7.151V293.1a7.278,7.278,0,0,1-7.233,7.148L289.433,302.8a7.311,7.311,0,0,1-7.581-6.738l-1.275-21.393a7.268,7.268,0,0,1,7.4-7.56" transform="translate(75.16 71.554)" fill="#ff6363"/>
    <path id="Trazado_982269" data-name="Trazado 982269" d="M281.033,310.188v29.675a7.3,7.3,0,0,0,7.4,7.15l108.683.724a7.3,7.3,0,0,0,7.5-7.29l-.571-27.859a7.3,7.3,0,0,0-7.269-7.009l-108.114-2.538a7.315,7.315,0,0,0-7.637,7.148" transform="translate(75.286 81.18)" fill="#ff6363"/>
    <path id="Trazado_982270" data-name="Trazado 982270" d="M351.688,241.619c.444-9.031,3.976-17.7,8.817-25.335s10.967-14.365,17.11-21a66.954,66.954,0,0,0-9.5,44.237" transform="translate(94.213 52.314)" fill="#ff6363"/>
    <path id="Trazado_982271" data-name="Trazado 982271" d="M295.124,331.045a54.675,54.675,0,0,1-5.064,42.183,53.689,53.689,0,0,0,20.677-38.833" transform="translate(77.704 88.683)" fill="#ff6363"/>
    <path id="Trazado_982272" data-name="Trazado 982272" d="M371.6,61.828v40.7a10.646,10.646,0,0,1-10.646,10.646H270.679" transform="translate(72.512 16.563)" fill="none" stroke="#c0a4fc" stroke-linecap="round" stroke-miterlimit="10" stroke-width="2"/>
    <path id="Trazado_982273" data-name="Trazado 982273" d="M326.632,64.046V87.409a9.115,9.115,0,0,0,9.115,9.115h29.239a9.115,9.115,0,0,0,9.115-9.115v-42.7" transform="translate(87.501 11.977)" fill="none" stroke="#c0a4fc" stroke-linecap="round" stroke-miterlimit="10" stroke-width="2"/>
    <path id="Trazado_982274" data-name="Trazado 982274" d="M33.767,41.022,45.689,29.1a1.712,1.712,0,0,0-1.805-.815,7.6,7.6,0,0,1-6.729-2.095,7.932,7.932,0,0,1,11.226-11.2,7.594,7.594,0,0,1,2.081,6.713,1.711,1.711,0,0,0,.815,1.805L63.2,11.591,91.735,40.129,79.813,52.049a1.711,1.711,0,0,0,1.805.815,7.594,7.594,0,0,1,6.713,2.081,7.932,7.932,0,0,1-11.2,11.226,7.6,7.6,0,0,1-2.095-6.729,1.712,1.712,0,0,0-.815-1.805L62.3,69.559Z" transform="translate(9.046 3.105)" fill="#7a5ce0"/>
    <path id="Trazado_982275" data-name="Trazado 982275" d="M49.138,79.749a7.755,7.755,0,0,1-7.129-2.517A7.932,7.932,0,0,1,53.562,66.384a7.758,7.758,0,0,1,2.153,6.788A1.753,1.753,0,0,0,56.553,75L68.475,63.078,57.042,51.645a1.8,1.8,0,0,1,1.838-.863A7.817,7.817,0,1,0,52.4,44.3a1.806,1.806,0,0,1-.865,1.838L39.781,34.384,27.859,46.306a1.754,1.754,0,0,0,1.827.838,7.754,7.754,0,0,1,6.8,2.168,7.929,7.929,0,0,1-11.227,11.2,7.761,7.761,0,0,1-2.153-6.788,1.754,1.754,0,0,0-.838-1.827L10.351,63.815,39.043,92.508,50.965,80.586a1.755,1.755,0,0,0-1.827-.837" transform="translate(2.773 9.211)" fill="#ff6363"/>
    <path id="Trazado_982276" data-name="Trazado 982276" d="M20.616,88.774a7.758,7.758,0,0,1,2.153,6.788,1.753,1.753,0,0,0,.838,1.826L35.527,85.467,47.281,97.219a3.138,3.138,0,0,0,.815-2.214c-.412-3.985,2.211-8.258,7.879-9.074,8.084,1.035,9.882,9.273,5.472,13.682a7.942,7.942,0,0,1-6.819,2.251,1.807,1.807,0,0,0-1.84.863L64.54,114.48,35.11,143.91,6.1,114.9l11.921-11.921a1.751,1.751,0,0,0-1.826-.838,7.757,7.757,0,0,1-6.906-2.275,7.957,7.957,0,0,1,.039-10.847,7.875,7.875,0,0,1,11.291-.243" transform="translate(1.633 22.896)" fill="#7a5ce0"/>
    <path id="Trazado_982277" data-name="Trazado 982277" d="M44.349,141.917a6.37,6.37,0,1,1-6.37-6.37,6.369,6.369,0,0,1,6.37,6.37" transform="translate(8.468 36.311)" fill="#c0a4fc"/>
    <path id="Trazado_982278" data-name="Trazado 982278" d="M64.382,260.73a6.37,6.37,0,1,1-6.37-6.37,6.369,6.369,0,0,1,6.37,6.37" transform="translate(13.834 68.14)" fill="#c0a4fc"/>
    <path id="Trazado_982279" data-name="Trazado 982279" d="M86.466,260.73a6.37,6.37,0,1,1-6.37-6.37,6.369,6.369,0,0,1,6.37,6.37" transform="translate(19.75 68.14)" fill="#c0a4fc"/>
    <path id="Trazado_982280" data-name="Trazado 982280" d="M280.062,238.132a6.37,6.37,0,1,1-6.37-6.37,6.369,6.369,0,0,1,6.37,6.37" transform="translate(71.613 62.086)" fill="#c0a4fc"/>
    <path id="Trazado_982281" data-name="Trazado 982281" d="M285.072,289.126a6.37,6.37,0,1,1-6.37-6.37,6.369,6.369,0,0,1,6.37,6.37" transform="translate(72.955 75.747)" fill="#c0a4fc"/>
    <path id="Trazado_982282" data-name="Trazado 982282" d="M290.081,325.856a6.37,6.37,0,1,1-6.37-6.37,6.369,6.369,0,0,1,6.37,6.37" transform="translate(74.296 85.587)" fill="#c0a4fc"/>
    <path id="Trazado_982283" data-name="Trazado 982283" d="M334.348,61.306a6.37,6.37,0,1,1-6.37-6.37,6.369,6.369,0,0,1,6.37,6.37" transform="translate(86.155 14.717)" fill="#c0a4fc"/>
    <path id="Trazado_982284" data-name="Trazado 982284" d="M357.994,61.306a6.37,6.37,0,1,1-6.371-6.37,6.37,6.37,0,0,1,6.371,6.37" transform="translate(92.49 14.717)" fill="#c0a4fc"/>
    <path id="Trazado_982285" data-name="Trazado 982285" d="M373.08,45.138a6.37,6.37,0,1,1-6.37-6.37,6.369,6.369,0,0,1,6.37,6.37" transform="translate(96.531 10.386)" fill="#c0a4fc"/>
    <rect id="Rectángulo_406028" data-name="Rectángulo 406028" width="6.009" height="42.184" transform="translate(409.921 181.011)" fill="#ff6363"/>
    <rect id="Rectángulo_406029" data-name="Rectángulo 406029" width="6.009" height="22.704" transform="translate(421.392 200.491)" fill="#ff6363"/>
    <rect id="Rectángulo_406030" data-name="Rectángulo 406030" width="6.009" height="38.068" transform="translate(432.861 185.127)" fill="#ff6363"/>
    <rect id="Rectángulo_406031" data-name="Rectángulo 406031" width="6.007" height="54.58" transform="translate(444.332 168.615)" fill="#ff6363"/>
    <rect id="Rectángulo_406032" data-name="Rectángulo 406032" width="6.009" height="27.154" transform="translate(455.801 196.041)" fill="#ff6363"/>
    <path id="Trazado_982286" data-name="Trazado 982286" d="M388.468,186.468h-70v-51.39" transform="translate(85.315 36.186)" fill="none" stroke="#1d1d1b" stroke-miterlimit="10" stroke-width="1"/>
    <line id="Línea_882" data-name="Línea 882" x1="11.543" y2="11.542" transform="translate(168.998 306.338)" fill="none" stroke="#1c1c1b" stroke-linecap="round" stroke-linejoin="round" stroke-width="1"/>
    <line id="Línea_883" data-name="Línea 883" x1="11.542" y2="11.542" transform="translate(177.589 306.338)" fill="none" stroke="#1c1c1b" stroke-linecap="round" stroke-linejoin="round" stroke-width="1"/>
    <line id="Línea_884" data-name="Línea 884" x1="11.543" y2="11.542" transform="translate(196.541 306.338)" fill="none" stroke="#1c1c1b" stroke-linecap="round" stroke-linejoin="round" stroke-width="1"/>
    <path id="Trazado_982287" data-name="Trazado 982287" d="M314.624,196.395l10.834,10-10.834,10" transform="translate(84.284 52.612)" fill="none" stroke="#1c1c1b" stroke-linecap="round" stroke-linejoin="round" stroke-width="1"/>
    <path id="Trazado_982288" data-name="Trazado 982288" d="M308.852,196.395l10.834,10-10.834,10" transform="translate(82.738 52.612)" fill="none" stroke="#1c1c1b" stroke-linecap="round" stroke-linejoin="round" stroke-width="1"/>
    <circle id="Elipse_11604" data-name="Elipse 11604" cx="4.147" cy="4.147" r="4.147" transform="translate(368.997 253.982)" fill="none" stroke="#1c1c1b" stroke-linecap="round" stroke-linejoin="round" stroke-width="1"/>
    <line id="Línea_885" data-name="Línea 885" x2="12.179" transform="translate(383.51 258.695)" fill="none" stroke="#1c1c1b" stroke-linecap="round" stroke-linejoin="round" stroke-width="1"/>
    <path id="Trazado_982289" data-name="Trazado 982289" d="M14.042,180.849l-9.9,9.143,9.9,9.144" transform="translate(1.108 48.447)" fill="none" stroke="#1c1c1b" stroke-linecap="round" stroke-linejoin="round" stroke-width="1"/>
    <path id="Trazado_982290" data-name="Trazado 982290" d="M19.319,180.849l-9.9,9.143,9.9,9.144" transform="translate(2.522 48.447)" fill="none" stroke="#1c1c1b" stroke-linecap="round" stroke-linejoin="round" stroke-width="1"/>
    <path id="Trazado_982291" data-name="Trazado 982291" d="M55.005,180.849l9.887,9.143-9.887,9.144" transform="translate(14.735 48.447)" fill="none" stroke="#1c1c1b" stroke-linecap="round" stroke-linejoin="round" stroke-width="1"/>
    <path id="Trazado_982292" data-name="Trazado 982292" d="M25.031,188.818a3.747,3.747,0,1,1-3.748-3.748A3.747,3.747,0,0,1,25.031,188.818Z" transform="translate(4.698 49.578)" fill="none" stroke="#1c1c1b" stroke-linecap="round" stroke-linejoin="round" stroke-width="1"/>
    <line id="Línea_886" data-name="Línea 886" x2="14.677" transform="translate(36.245 238.397)" fill="none" stroke="#1c1c1b" stroke-linecap="round" stroke-linejoin="round" stroke-width="1"/>
    <line id="Línea_887" data-name="Línea 887" x2="8.745" transform="translate(57.168 238.397)" fill="none" stroke="#1c1c1b" stroke-linecap="round" stroke-linejoin="round" stroke-width="1"/>
    <path id="Trazado_982293" data-name="Trazado 982293" d="M238.08,25.493a3.638,3.638,0,1,1-3.638-3.636A3.638,3.638,0,0,1,238.08,25.493Z" transform="translate(61.83 5.855)" fill="none" stroke="#1c1c1b" stroke-linecap="round" stroke-linejoin="round" stroke-width="1"/>
    <line id="Línea_888" data-name="Línea 888" x1="12.126" y2="15.158" transform="translate(229.283 21.979)" fill="none" stroke="#1c1c1b" stroke-linecap="round" stroke-linejoin="round" stroke-width="1"/>
    <line id="Línea_889" data-name="Línea 889" x1="12.126" y2="15.158" transform="translate(241.409 21.979)" fill="none" stroke="#1c1c1b" stroke-linecap="round" stroke-linejoin="round" stroke-width="1"/>
    <line id="Línea_890" data-name="Línea 890" x1="12.126" y2="15.158" transform="translate(248.685 21.979)" fill="none" stroke="#1c1c1b" stroke-linecap="round" stroke-linejoin="round" stroke-width="1"/>
    <line id="Línea_891" data-name="Línea 891" x2="22.485" transform="translate(263.996 31.661)" fill="none" stroke="#1c1c1b" stroke-linecap="round" stroke-linejoin="round" stroke-width="1"/>
    <path id="Trazado_982294" data-name="Trazado 982294" d="M131.244,351.388a3.688,3.688,0,1,0,3.687-3.638A3.662,3.662,0,0,0,131.244,351.388Z" transform="translate(35.159 93.158)" fill="none" stroke="#1c1c1b" stroke-linecap="round" stroke-linejoin="round" stroke-width="1"/>
    <line id="Línea_892" data-name="Línea 892" x2="12.291" y2="15.158" transform="translate(213.408 435.175)" fill="none" stroke="#1c1c1b" stroke-linecap="round" stroke-linejoin="round" stroke-width="1"/>
    <line id="Línea_893" data-name="Línea 893" x2="12.291" y2="15.158" transform="translate(206.033 435.175)" fill="none" stroke="#1c1c1b" stroke-linecap="round" stroke-linejoin="round" stroke-width="1"/>
    <line id="Línea_894" data-name="Línea 894" x1="22.79" transform="translate(180.014 444.858)" fill="none" stroke="#1c1c1b" stroke-linecap="round" stroke-linejoin="round" stroke-width="1"/>
  </g>
</svg>
