<svg xmlns="http://www.w3.org/2000/svg" xmlns:xlink="http://www.w3.org/1999/xlink" width="108" height="108" viewBox="0 0 108 108">
  <defs>
    <filter id="Fondo" x="0" y="0" width="108" height="108" filterUnits="userSpaceOnUse">
      <feOffset dy="3" input="SourceAlpha"/>
      <feGaussianBlur stdDeviation="3" result="blur"/>
      <feFlood flood-opacity="0.161"/>
      <feComposite operator="in" in2="blur"/>
      <feComposite in="SourceGraphic"/>
    </filter>
  </defs>
  <g id="Icono" transform="translate(9.5 -689)">
    <g transform="matrix(1, 0, 0, 1, -9.5, 689)" filter="url(#Fondo)">
      <g id="Fondo-2" data-name="Fondo" transform="translate(9 6)" fill="#fffbe8">
        <path d="M 45 88.5 C 39.12687683105469 88.5 33.43022537231445 87.35007476806641 28.06830024719238 85.08217620849609 C 22.88852500915527 82.89131164550781 18.23629951477051 79.75458526611328 14.2408504486084 75.75914764404297 C 10.24541282653809 71.76370239257812 7.108687400817871 67.11147308349609 4.917825222015381 61.93170166015625 C 2.649924993515015 56.56977462768555 1.5 50.87312316894531 1.5 45 C 1.5 39.12687683105469 2.649924993515015 33.43022537231445 4.917825222015381 28.06830024719238 C 7.108687400817871 22.88852500915527 10.24541282653809 18.23629951477051 14.2408504486084 14.2408504486084 C 18.23629951477051 10.24541282653809 22.88852500915527 7.108687400817871 28.06830024719238 4.917825222015381 C 33.43022537231445 2.649924993515015 39.12687683105469 1.5 45 1.5 C 50.87312316894531 1.5 56.56977462768555 2.649924993515015 61.93170166015625 4.917825222015381 C 67.11147308349609 7.108687400817871 71.76370239257812 10.24541282653809 75.75914764404297 14.2408504486084 C 79.75458526611328 18.23629951477051 82.89131164550781 22.88852500915527 85.08217620849609 28.06830024719238 C 87.35007476806641 33.43022537231445 88.5 39.12687683105469 88.5 45 C 88.5 50.87312316894531 87.35007476806641 56.56977462768555 85.08217620849609 61.93170166015625 C 82.89131164550781 67.11147308349609 79.75458526611328 71.76370239257812 75.75914764404297 75.75914764404297 C 71.76370239257812 79.75458526611328 67.11147308349609 82.89131164550781 61.93170166015625 85.08217620849609 C 56.56977462768555 87.35007476806641 50.87312316894531 88.5 45 88.5 Z" stroke="none"/>
        <path d="M 45 3 C 39.32871246337891 3 33.82865524291992 4.110054016113281 28.65262985229492 6.299339294433594 C 23.65165710449219 8.414573669433594 19.15968322753906 11.44334411621094 15.301513671875 15.301513671875 C 11.44334411621094 19.15968322753906 8.414573669433594 23.65165710449219 6.299339294433594 28.65262985229492 C 4.110054016113281 33.82865524291992 3 39.32871246337891 3 45 C 3 50.67128753662109 4.110054016113281 56.17134475708008 6.299339294433594 61.34737396240234 C 8.414573669433594 66.34834289550781 11.44334411621094 70.84031677246094 15.301513671875 74.698486328125 C 19.15968322753906 78.55665588378906 23.65165710449219 81.58542633056641 28.65262985229492 83.70066070556641 C 33.82865524291992 85.88994598388672 39.32871246337891 87 45 87 C 50.67128753662109 87 56.17134475708008 85.88994598388672 61.34737396240234 83.70066070556641 C 66.34834289550781 81.58542633056641 70.84031677246094 78.55665588378906 74.698486328125 74.698486328125 C 78.55665588378906 70.84031677246094 81.58542633056641 66.34834289550781 83.70066070556641 61.34737396240234 C 85.88994598388672 56.17134475708008 87 50.67128753662109 87 45 C 87 39.32871246337891 85.88994598388672 33.82865524291992 83.70066070556641 28.65262985229492 C 81.58542633056641 23.65165710449219 78.55665588378906 19.15968322753906 74.698486328125 15.301513671875 C 70.84031677246094 11.44334411621094 66.34834289550781 8.414573669433594 61.34737396240234 6.299339294433594 C 56.17134475708008 4.110054016113281 50.67128753662109 3 45 3 M 45 0 C 69.85281372070312 0 90 20.14718627929688 90 45 C 90 69.85281372070312 69.85281372070312 90 45 90 C 20.14718627929688 90 0 69.85281372070312 0 45 C 0 20.14718627929688 20.14718627929688 0 45 0 Z" stroke="none" fill="#bca724"/>
      </g>
    </g>
    <g id="Page-1" transform="translate(17.068 712.568)">
      <g id="_067---Algorithm" data-name="067---Algorithm">
        <path id="Path" d="M55.234,27V53.518a2.743,2.743,0,0,1-2.743,2.743H17.743A2.743,2.743,0,0,1,15,53.518V27Z" transform="translate(-1.284 -2.311)" fill="#f5f5f5" fill-rule="evenodd"/>
        <path id="Path-2" data-name="Path" d="M55.743,27V53.518A2.743,2.743,0,0,1,53,56.261h2.743a2.743,2.743,0,0,0,2.743-2.743V27Z" transform="translate(-4.537 -2.311)" fill="#cfd8dc" fill-rule="evenodd"/>
        <path id="Path-3" data-name="Path" d="M55.234,21.743v4.572H15V21.743A2.743,2.743,0,0,1,17.743,19H52.49A2.743,2.743,0,0,1,55.234,21.743Z" transform="translate(-1.284 -1.626)" fill="#02a9f4" fill-rule="evenodd"/>
        <path id="Path-4" data-name="Path" d="M55.743,19H53a2.743,2.743,0,0,1,2.743,2.743v4.572h2.743V21.743A2.743,2.743,0,0,0,55.743,19Z" transform="translate(-4.537 -1.626)" fill="#0377bc" fill-rule="evenodd"/>
        <path id="Path-5" data-name="Path" d="M41.234,9v9.144H16.545A2.743,2.743,0,0,0,13.8,20.887V38.261H3.743A2.743,2.743,0,0,1,1,35.518V9Z" transform="translate(-0.086 -0.77)" fill="#f5f5f5" fill-rule="evenodd"/>
        <path id="Path-6" data-name="Path" d="M12,21.743V39.117h2.743V21.743A2.743,2.743,0,0,1,17.486,19H14.743A2.743,2.743,0,0,0,12,21.743Z" transform="translate(-1.027 -1.626)" fill="#cfd8dc" fill-rule="evenodd"/>
        <path id="Rectangle" d="M42,9h2.743v9.144H42Z" transform="translate(-3.595 -0.77)" fill="#cfd8dc" fill-rule="evenodd"/>
        <path id="Path-7" data-name="Path" d="M41.234,3.743V8.315H1V3.743A2.743,2.743,0,0,1,3.743,1H38.49A2.743,2.743,0,0,1,41.234,3.743Z" transform="translate(-0.086 -0.086)" fill="#02a9f4" fill-rule="evenodd"/>
        <path id="Path-8" data-name="Path" d="M41.743,1H39a2.743,2.743,0,0,1,2.743,2.743V8.315h2.743V3.743A2.743,2.743,0,0,0,41.743,1Z" transform="translate(-3.338 -0.086)" fill="#0377bc" fill-rule="evenodd"/>
        <rect id="Rectangle-2" data-name="Rectangle" width="13" height="7" rx="2" transform="translate(27.432 28.432)" fill="#ffdc00"/>
        <rect id="Rectangle-3" data-name="Rectangle" width="7" height="6" rx="2" transform="translate(18.432 44.432)" fill="#e91e63"/>
        <rect id="Rectangle-4" data-name="Rectangle" width="7" height="6" rx="2" transform="translate(30.432 44.432)" fill="#60a917"/>
        <rect id="Rectangle-5" data-name="Rectangle" width="7" height="6" rx="2" transform="translate(42.432 44.432)" fill="#ff9801"/>
        <g id="Grupo_1144092" data-name="Grupo 1144092">
          <path id="Shape" d="M51.206,16.459H42.062V3.658A3.658,3.658,0,0,0,38.4,0H3.658A3.658,3.658,0,0,0,0,3.658v31.09A3.658,3.658,0,0,0,3.658,38.4H12.8v12.8a3.658,3.658,0,0,0,3.658,3.658H51.206a3.658,3.658,0,0,0,3.658-3.658V20.117A3.658,3.658,0,0,0,51.206,16.459Zm1.829,3.658v3.658H14.63V20.117a1.829,1.829,0,0,1,1.829-1.829H51.206A1.829,1.829,0,0,1,53.035,20.117ZM3.658,1.829H38.4a1.829,1.829,0,0,1,1.829,1.829V7.315H1.829V3.658A1.829,1.829,0,0,1,3.658,1.829Zm0,34.747a1.829,1.829,0,0,1-1.829-1.829V9.144h38.4v7.315H16.459a3.646,3.646,0,0,0-3.149,1.829H9.144a.914.914,0,1,0,0,1.829H12.8v1.829H9.144a.914.914,0,1,0,0,1.829H12.8v5.486H9.144a.914.914,0,1,0,0,1.829H12.8v1.829H9.144a.914.914,0,1,0,0,1.829H12.8v1.829ZM51.206,53.035H16.459a1.829,1.829,0,0,1-1.829-1.829V25.6h38.4v25.6A1.829,1.829,0,0,1,51.206,53.035Z"/>
          <path id="Path-9" data-name="Path" d="M46.914,23.829H54.23a.914.914,0,0,0,0-1.829H46.914a.914.914,0,0,0,0,1.829Z" transform="translate(-3.938 -1.883)" fill-rule="evenodd"/>
          <circle id="Oval" cx="1" cy="1" r="1" transform="translate(16.432 20.432)"/>
          <circle id="Oval-2" data-name="Oval" cx="1" cy="1" r="1" transform="translate(20.432 20.432)"/>
          <circle id="Oval-3" data-name="Oval" cx="1" cy="1" r="1" transform="translate(23.432 20.432)"/>
          <path id="Path-10" data-name="Path" d="M32.914,5.829H40.23A.914.914,0,0,0,40.23,4H32.914a.914.914,0,0,0,0,1.829Z" transform="translate(-2.739 -0.342)" fill-rule="evenodd"/>
          <circle id="Oval-4" data-name="Oval" cx="1" cy="1" r="1" transform="translate(3.432 3.432)"/>
          <circle id="Oval-5" data-name="Oval" cx="1" cy="1" r="1" transform="translate(7.432 3.432)"/>
          <ellipse id="Oval-6" data-name="Oval" cx="0.5" cy="1" rx="0.5" ry="1" transform="translate(11.432 3.432)"/>
          <path id="Path-11" data-name="Path" d="M5.829,12H4.914a.914.914,0,1,0,0,1.829h.914a.914.914,0,0,0,0-1.829Z" transform="translate(-0.342 -1.027)" fill-rule="evenodd"/>
          <path id="Path-12" data-name="Path" d="M9.914,13.829H21.8A.914.914,0,1,0,21.8,12H9.914a.914.914,0,1,0,0,1.829Z" transform="translate(-0.77 -1.027)" fill-rule="evenodd"/>
          <path id="Path-13" data-name="Path" d="M9.914,17.829h2.743a.914.914,0,1,0,0-1.829H9.914a.914.914,0,1,0,0,1.829Z" transform="translate(-0.77 -1.37)" fill-rule="evenodd"/>
          <path id="Path-14" data-name="Path" d="M9.914,29.829h.914a.914.914,0,1,0,0-1.829H9.914a.914.914,0,1,0,0,1.829Z" transform="translate(-0.77 -2.397)" fill-rule="evenodd"/>
          <path id="Path-15" data-name="Path" d="M5.829,16H4.914a.914.914,0,1,0,0,1.829h.914a.914.914,0,1,0,0-1.829Z" transform="translate(-0.342 -1.37)" fill-rule="evenodd"/>
          <path id="Path-16" data-name="Path" d="M5.829,20H4.914a.914.914,0,1,0,0,1.829h.914a.914.914,0,1,0,0-1.829Z" transform="translate(-0.342 -1.712)" fill-rule="evenodd"/>
          <path id="Path-17" data-name="Path" d="M5.829,24H4.914a.914.914,0,1,0,0,1.829h.914a.914.914,0,1,0,0-1.829Z" transform="translate(-0.342 -2.054)" fill-rule="evenodd"/>
          <path id="Path-18" data-name="Path" d="M5.829,28H4.914a.914.914,0,1,0,0,1.829h.914a.914.914,0,1,0,0-1.829Z" transform="translate(-0.342 -2.397)" fill-rule="evenodd"/>
          <path id="Path-19" data-name="Path" d="M5.829,32H4.914a.914.914,0,1,0,0,1.829h.914a.914.914,0,1,0,0-1.829Z" transform="translate(-0.342 -2.739)" fill-rule="evenodd"/>
          <path id="Path-20" data-name="Path" d="M5.829,36H4.914a.914.914,0,1,0,0,1.829h.914a.914.914,0,1,0,0-1.829Z" transform="translate(-0.342 -3.082)" fill-rule="evenodd"/>
          <path id="Path-21" data-name="Path" d="M26.914,13.829H37.887a.914.914,0,1,0,0-1.829H26.914a.914.914,0,0,0,0,1.829Z" transform="translate(-2.226 -1.027)" fill-rule="evenodd"/>
          <path id="Shape-2" data-name="Shape" d="M49.175,46.459h-.914V44.63a2.743,2.743,0,0,0-2.743-2.743H36.374V39.144h3.658A2.743,2.743,0,0,0,42.774,36.4V32.743A2.743,2.743,0,0,0,40.031,30H30.887a2.743,2.743,0,0,0-2.743,2.743V36.4a2.743,2.743,0,0,0,2.743,2.743h3.658v2.743H25.4a2.743,2.743,0,0,0-2.743,2.743v1.829h-.914A2.743,2.743,0,0,0,19,49.2v1.829a2.743,2.743,0,0,0,2.743,2.743H25.4a2.743,2.743,0,0,0,2.743-2.743V49.2A2.743,2.743,0,0,0,25.4,46.459h-.914V44.63a.914.914,0,0,1,.914-.914h9.144v2.743H33.63A2.743,2.743,0,0,0,30.887,49.2v1.829a2.743,2.743,0,0,0,2.743,2.743h3.658a2.743,2.743,0,0,0,2.743-2.743V49.2a2.743,2.743,0,0,0-2.743-2.743h-.914V43.716h9.144a.914.914,0,0,1,.914.914v1.829h-.914A2.743,2.743,0,0,0,42.774,49.2v1.829a2.743,2.743,0,0,0,2.743,2.743h3.658a2.743,2.743,0,0,0,2.743-2.743V49.2A2.743,2.743,0,0,0,49.175,46.459ZM29.973,36.4V32.743a.914.914,0,0,1,.914-.914h9.144a.914.914,0,0,1,.914.914V36.4a.914.914,0,0,1-.914.914H30.887A.914.914,0,0,1,29.973,36.4ZM26.315,49.2v1.829a.914.914,0,0,1-.914.914H21.743a.914.914,0,0,1-.914-.914V49.2a.914.914,0,0,1,.914-.914H25.4A.914.914,0,0,1,26.315,49.2Zm11.887,0v1.829a.914.914,0,0,1-.914.914H33.63a.914.914,0,0,1-.914-.914V49.2a.914.914,0,0,1,.914-.914h3.658A.914.914,0,0,1,38.2,49.2ZM50.09,51.031a.914.914,0,0,1-.914.914H45.518a.914.914,0,0,1-.914-.914V49.2a.914.914,0,0,1,.914-.914h3.658a.914.914,0,0,1,.914.914Z" transform="translate(-1.626 -2.568)"/>
        </g>
      </g>
    </g>
  </g>
</svg>
