<svg xmlns="http://www.w3.org/2000/svg" xmlns:xlink="http://www.w3.org/1999/xlink" width="108" height="108" viewBox="0 0 108 108">
  <defs>
    <filter id="Fondo" x="0" y="0" width="108" height="108" filterUnits="userSpaceOnUse">
      <feOffset dy="3" input="SourceAlpha"/>
      <feGaussianBlur stdDeviation="3" result="blur"/>
      <feFlood flood-opacity="0.161"/>
      <feComposite operator="in" in2="blur"/>
      <feComposite in="SourceGraphic"/>
    </filter>
  </defs>
  <g id="Icono" transform="translate(9.5 -689)">
    <g transform="matrix(1, 0, 0, 1, -9.5, 689)" filter="url(#Fondo)">
      <g id="Fondo-2" data-name="Fondo" transform="translate(9 6)" fill="#fffbe8">
        <path d="M 45 88.5 C 39.12687683105469 88.5 33.43022537231445 87.35007476806641 28.06830024719238 85.08217620849609 C 22.88852500915527 82.89131164550781 18.23629951477051 79.75458526611328 14.2408504486084 75.75914764404297 C 10.24541282653809 71.76370239257812 7.108687400817871 67.11147308349609 4.917825222015381 61.93170166015625 C 2.649924993515015 56.56977462768555 1.5 50.87312316894531 1.5 45 C 1.5 39.12687683105469 2.649924993515015 33.43022537231445 4.917825222015381 28.06830024719238 C 7.108687400817871 22.88852500915527 10.24541282653809 18.23629951477051 14.2408504486084 14.2408504486084 C 18.23629951477051 10.24541282653809 22.88852500915527 7.108687400817871 28.06830024719238 4.917825222015381 C 33.43022537231445 2.649924993515015 39.12687683105469 1.5 45 1.5 C 50.87312316894531 1.5 56.56977462768555 2.649924993515015 61.93170166015625 4.917825222015381 C 67.11147308349609 7.108687400817871 71.76370239257812 10.24541282653809 75.75914764404297 14.2408504486084 C 79.75458526611328 18.23629951477051 82.89131164550781 22.88852500915527 85.08217620849609 28.06830024719238 C 87.35007476806641 33.43022537231445 88.5 39.12687683105469 88.5 45 C 88.5 50.87312316894531 87.35007476806641 56.56977462768555 85.08217620849609 61.93170166015625 C 82.89131164550781 67.11147308349609 79.75458526611328 71.76370239257812 75.75914764404297 75.75914764404297 C 71.76370239257812 79.75458526611328 67.11147308349609 82.89131164550781 61.93170166015625 85.08217620849609 C 56.56977462768555 87.35007476806641 50.87312316894531 88.5 45 88.5 Z" stroke="none"/>
        <path d="M 45 3 C 39.32871246337891 3 33.82865524291992 4.110054016113281 28.65262985229492 6.299339294433594 C 23.65165710449219 8.414573669433594 19.15968322753906 11.44334411621094 15.301513671875 15.301513671875 C 11.44334411621094 19.15968322753906 8.414573669433594 23.65165710449219 6.299339294433594 28.65262985229492 C 4.110054016113281 33.82865524291992 3 39.32871246337891 3 45 C 3 50.67128753662109 4.110054016113281 56.17134475708008 6.299339294433594 61.34737396240234 C 8.414573669433594 66.34834289550781 11.44334411621094 70.84031677246094 15.301513671875 74.698486328125 C 19.15968322753906 78.55665588378906 23.65165710449219 81.58542633056641 28.65262985229492 83.70066070556641 C 33.82865524291992 85.88994598388672 39.32871246337891 87 45 87 C 50.67128753662109 87 56.17134475708008 85.88994598388672 61.34737396240234 83.70066070556641 C 66.34834289550781 81.58542633056641 70.84031677246094 78.55665588378906 74.698486328125 74.698486328125 C 78.55665588378906 70.84031677246094 81.58542633056641 66.34834289550781 83.70066070556641 61.34737396240234 C 85.88994598388672 56.17134475708008 87 50.67128753662109 87 45 C 87 39.32871246337891 85.88994598388672 33.82865524291992 83.70066070556641 28.65262985229492 C 81.58542633056641 23.65165710449219 78.55665588378906 19.15968322753906 74.698486328125 15.301513671875 C 70.84031677246094 11.44334411621094 66.34834289550781 8.414573669433594 61.34737396240234 6.299339294433594 C 56.17134475708008 4.110054016113281 50.67128753662109 3 45 3 M 45 0 C 69.85281372070312 0 90 20.14718627929688 90 45 C 90 69.85281372070312 69.85281372070312 90 45 90 C 20.14718627929688 90 0 69.85281372070312 0 45 C 0 20.14718627929688 20.14718627929688 0 45 0 Z" stroke="none" fill="#bca724"/>
      </g>
    </g>
    <g id="_4._Script" data-name="4. Script" transform="translate(16.209 711.709)">
      <path id="Trazado_979904" data-name="Trazado 979904" d="M45.9,13.536v43.32H14.073a3.536,3.536,0,0,1-3.536-3.536V13.536A3.536,3.536,0,0,0,7,10H42.364A3.536,3.536,0,0,1,45.9,13.536Z" transform="translate(-0.811 -1.159)" fill="#f5f7ff"/>
      <path id="Trazado_979905" data-name="Trazado 979905" d="M3,25.029h7.073V13.536a3.536,3.536,0,1,0-7.073,0Z" transform="translate(-0.348 -1.159)" fill="#ccd3eb"/>
      <path id="Trazado_979906" data-name="Trazado 979906" d="M5.5,10.266a3.536,3.536,0,0,1,2.21,3.271V25.03h2.652V13.537A3.536,3.536,0,0,0,5.5,10.266Z" transform="translate(-0.638 -1.16)" fill="#96a1c3"/>
      <path id="Trazado_979907" data-name="Trazado 979907" d="M58.989,8.957a1.238,1.238,0,0,1-.884-2.1,1.22,1.22,0,0,0,0-1.768l-2-1.98a1.22,1.22,0,0,0-1.768,0,1.238,1.238,0,0,1-2.1-.884A1.229,1.229,0,0,0,51.032,1H48.186a1.229,1.229,0,0,0-1.229,1.229,1.238,1.238,0,0,1-2.1.884,1.22,1.22,0,0,0-1.768,0l-1.98,2a1.22,1.22,0,0,0,0,1.768,1.238,1.238,0,0,1-.884,2.1,1.229,1.229,0,0,0-1.22,1.2v2.847a1.229,1.229,0,0,0,1.229,1.229,1.238,1.238,0,0,1,.884,2.1,1.22,1.22,0,0,0,0,1.768l2.007,2.007a1.22,1.22,0,0,0,1.768,0,1.238,1.238,0,0,1,2.1.884,1.229,1.229,0,0,0,1.194,1.194h2.847a1.229,1.229,0,0,0,1.229-1.229,1.238,1.238,0,0,1,2.1-.884,1.22,1.22,0,0,0,1.768,0L58.141,18.1a1.22,1.22,0,0,0,0-1.768,1.238,1.238,0,0,1,.884-2.1,1.229,1.229,0,0,0,1.194-1.194V10.186a1.229,1.229,0,0,0-1.229-1.229Z" transform="translate(-4.521 -0.116)" fill="#0074ff"/>
      <circle id="Elipse_11574" data-name="Elipse 11574" cx="3.5" cy="3.5" r="3.5" transform="translate(41.291 8.291)" fill="#f5f7ff"/>
      <rect id="Rectángulo_405480" data-name="Rectángulo 405480" width="18" height="14" rx="2" transform="translate(0.291 29.291)" fill="#0074ff"/>
      <path id="Trazado_979908" data-name="Trazado 979908" d="M7.279,38.256a.884.884,0,0,0-1.255,0L4.256,40.024a.884.884,0,0,0,0,1.255l1.768,1.768a.888.888,0,1,0,1.255-1.255L6.13,40.652l1.149-1.14a.884.884,0,0,0,0-1.255Z" transform="translate(-0.463 -4.404)" fill="#f5f7ff"/>
      <path id="Trazado_979909" data-name="Trazado 979909" d="M17.279,40.024l-1.768-1.768a.888.888,0,0,0-1.255,1.255l1.149,1.14-1.149,1.14a.888.888,0,0,0,1.255,1.255l1.768-1.768a.884.884,0,0,0,0-1.255Z" transform="translate(-1.622 -4.404)" fill="#f5f7ff"/>
      <path id="Trazado_979910" data-name="Trazado 979910" d="M11.863,36a.884.884,0,0,0-1.07.645L9.025,43.715a.884.884,0,1,0,1.715.424l1.768-7.073A.884.884,0,0,0,11.863,36Z" transform="translate(-1.042 -4.169)" fill="#f5f7ff"/>
      <g id="Grupo_1144095" data-name="Grupo 1144095" transform="translate(14.145 14.145)">
        <path id="Trazado_979911" data-name="Trazado 979911" d="M16.884,21.768h5.3a.884.884,0,1,0,0-1.768h-5.3a.884.884,0,1,0,0,1.768Z" transform="translate(-16 -16.464)" fill="#96a1c3"/>
        <path id="Trazado_979912" data-name="Trazado 979912" d="M16.884,17.768h5.3a.884.884,0,1,0,0-1.768h-5.3a.884.884,0,1,0,0,1.768Z" transform="translate(-16 -16)" fill="#96a1c3"/>
        <path id="Trazado_979913" data-name="Trazado 979913" d="M26.884,21.768h7.073a.884.884,0,1,0,0-1.768H26.884a.884.884,0,0,0,0,1.768Z" transform="translate(-17.159 -16.464)" fill="#96a1c3"/>
        <path id="Trazado_979914" data-name="Trazado 979914" d="M16.884,25.768h1.768a.884.884,0,0,0,0-1.768H16.884a.884.884,0,1,0,0,1.768Z" transform="translate(-16 -16.927)" fill="#96a1c3"/>
        <path id="Trazado_979915" data-name="Trazado 979915" d="M22,24.884a.884.884,0,0,0,.884.884H38.8A.884.884,0,1,0,38.8,24H22.884A.884.884,0,0,0,22,24.884Z" transform="translate(-16.695 -16.927)" fill="#96a1c3"/>
        <path id="Trazado_979916" data-name="Trazado 979916" d="M22.189,28h-5.3a.884.884,0,1,0,0,1.768h5.3a.884.884,0,1,0,0-1.768Z" transform="translate(-16 -17.391)" fill="#96a1c3"/>
        <path id="Trazado_979917" data-name="Trazado 979917" d="M26,28.884a.884.884,0,0,0,.884.884H42.8A.884.884,0,0,0,42.8,28H26.884A.884.884,0,0,0,26,28.884Z" transform="translate(-17.159 -17.391)" fill="#96a1c3"/>
        <path id="Trazado_979918" data-name="Trazado 979918" d="M24.884,32a.884.884,0,1,0,0,1.768h8.841a.884.884,0,0,0,0-1.768Z" transform="translate(-16.927 -17.855)" fill="#96a1c3"/>
        <path id="Trazado_979919" data-name="Trazado 979919" d="M42.566,36H24.884a.884.884,0,1,0,0,1.768H42.566a.884.884,0,0,0,0-1.768Z" transform="translate(-16.927 -18.318)" fill="#96a1c3"/>
        <path id="Trazado_979920" data-name="Trazado 979920" d="M24.884,41.768H28.42a.884.884,0,0,0,0-1.768H24.884a.884.884,0,1,0,0,1.768Z" transform="translate(-16.927 -18.782)" fill="#96a1c3"/>
        <path id="Trazado_979921" data-name="Trazado 979921" d="M32.841,44H24.884a.884.884,0,1,0,0,1.768h7.957a.884.884,0,0,0,0-1.768Z" transform="translate(-16.927 -19.246)" fill="#96a1c3"/>
        <path id="Trazado_979922" data-name="Trazado 979922" d="M32.841,48H24.884a.884.884,0,1,0,0,1.768h7.957a.884.884,0,0,0,0-1.768Z" transform="translate(-16.927 -19.709)" fill="#96a1c3"/>
        <path id="Trazado_979923" data-name="Trazado 979923" d="M44.189,32h-5.3a.884.884,0,1,0,0,1.768h5.3a.884.884,0,0,0,0-1.768Z" transform="translate(-18.55 -17.855)" fill="#96a1c3"/>
        <path id="Trazado_979924" data-name="Trazado 979924" d="M43.493,40H32.884a.884.884,0,0,0,0,1.768H43.493a.884.884,0,0,0,0-1.768Z" transform="translate(-17.855 -18.782)" fill="#96a1c3"/>
        <path id="Trazado_979925" data-name="Trazado 979925" d="M39.652,44H37.884a.884.884,0,0,0,0,1.768h1.768a.884.884,0,0,0,0-1.768Z" transform="translate(-18.434 -19.246)" fill="#96a1c3"/>
      </g>
      <path id="Trazado_979926" data-name="Trazado 979926" d="M53.9,53v5.3a3.536,3.536,0,0,1-3.536,3.536H15A3.536,3.536,0,0,0,18.536,58.3V53Z" transform="translate(-1.739 -6.143)" fill="#ccd3eb"/>
      <path id="Trazado_979927" data-name="Trazado 979927" d="M50.364,59.536H18.413A3.536,3.536,0,0,1,15,62.189H50.364A3.536,3.536,0,0,0,53.9,58.652V56A3.536,3.536,0,0,1,50.364,59.536Z" transform="translate(-1.739 -6.491)" fill="#96a1c3"/>
      <path id="Trazado_979928" data-name="Trazado 979928" d="M50.884,45.536a.884.884,0,0,0,.884-.884V42.884a.884.884,0,0,0-1.768,0v1.768A.884.884,0,0,0,50.884,45.536Z" transform="translate(-5.796 -4.868)" fill="#033c59"/>
      <path id="Trazado_979929" data-name="Trazado 979929" d="M54.7,7.957a.345.345,0,0,1-.248-.592,2.131,2.131,0,0,0,0-3L52.446,2.361a2.131,2.131,0,0,0-3,0,.345.345,0,0,1-.592-.248A2.113,2.113,0,0,0,46.744,0H43.9a2.113,2.113,0,0,0-2.113,2.113.345.345,0,0,1-.592.248,2.131,2.131,0,0,0-3,0L36.188,4.367a2.131,2.131,0,0,0,0,3,.345.345,0,0,1-.248.592H6.42A4.42,4.42,0,0,0,2,12.377V23.87a.884.884,0,0,0,.884.884H9.073v.884a.884.884,0,0,0,1.768,0V12.377a4.35,4.35,0,0,0-.884-2.652h23.87a23.411,23.411,0,0,0,0,3.192,2.113,2.113,0,0,0,2.113,2.113.345.345,0,0,1,.248.592,2.131,2.131,0,0,0,0,3l2.007,2.007a2.131,2.131,0,0,0,3,0,.345.345,0,0,1,.592.248A2.113,2.113,0,0,0,43.9,22.986h.539V34.479a.884.884,0,1,0,1.768,0V22.986h.539a2.113,2.113,0,0,0,2.113-2.113.345.345,0,0,1,.592-.248,2.131,2.131,0,0,0,3,0l2.007-2.007a2.131,2.131,0,0,0,0-3,.345.345,0,0,1,.248-.592,2.113,2.113,0,0,0,2.113-2.113V10.07A2.113,2.113,0,0,0,54.7,7.957ZM9.073,12.377V22.986h-5.3V12.377a2.652,2.652,0,1,1,5.3,0Zm45.973.539a.354.354,0,0,1-.345.345,2.122,2.122,0,0,0-1.5,3.616.336.336,0,0,1,0,.486L51.191,19.37a.336.336,0,0,1-.486,0,2.122,2.122,0,0,0-3.616,1.5.354.354,0,0,1-.345.345H43.9a.354.354,0,0,1-.345-.345,2.122,2.122,0,0,0-3.616-1.5.336.336,0,0,1-.486,0l-2.007-2.007a.336.336,0,0,1,0-.486,2.122,2.122,0,0,0-1.5-3.616.354.354,0,0,1-.345-.345V10.07a.354.354,0,0,1,.345-.345,2.122,2.122,0,0,0,1.5-3.616.336.336,0,0,1,0-.486L39.45,3.616a.336.336,0,0,1,.486,0,2.122,2.122,0,0,0,3.616-1.5.354.354,0,0,1,.345-.345h2.847a.354.354,0,0,1,.345.345,2.122,2.122,0,0,0,3.616,1.5.336.336,0,0,1,.486,0L53.2,5.623a.336.336,0,0,1,0,.486,2.122,2.122,0,0,0,1.5,3.616.354.354,0,0,1,.345.345Z" transform="translate(-0.232)" fill="#033c59"/>
      <path id="Trazado_979930" data-name="Trazado 979930" d="M52.161,49.682H45.973V47.029a.884.884,0,0,0-1.768,0v2.652H16.8a.884.884,0,0,0-.884.884v5.3a2.652,2.652,0,1,1-5.3,0V47.914H16.8a2.652,2.652,0,0,0,2.652-2.652V34.652A2.652,2.652,0,0,0,16.8,32H2.652A2.652,2.652,0,0,0,0,34.652V45.261a2.652,2.652,0,0,0,2.652,2.652H8.841V55.87a4.42,4.42,0,0,0,4.42,4.42H48.625a4.42,4.42,0,0,0,4.42-4.42v-5.3A.884.884,0,0,0,52.161,49.682ZM1.768,45.261V34.652a.884.884,0,0,1,.884-.884H16.8a.884.884,0,0,1,.884.884V45.261a.884.884,0,0,1-.884.884H2.652A.884.884,0,0,1,1.768,45.261ZM51.277,55.87a2.652,2.652,0,0,1-2.652,2.652H16.8a4.42,4.42,0,0,0,.884-2.652V51.45h33.6Z" transform="translate(0 -3.709)" fill="#033c59"/>
      <path id="Trazado_979931" data-name="Trazado 979931" d="M36.884,5a.884.884,0,1,0,.884.884A.884.884,0,0,0,36.884,5Z" transform="translate(-4.173 -0.58)" fill="#96a1c3"/>
      <path id="Trazado_979932" data-name="Trazado 979932" d="M32.884,5a.884.884,0,1,0,.884.884A.884.884,0,0,0,32.884,5Z" transform="translate(-3.709 -0.58)" fill="#96a1c3"/>
    </g>
  </g>
</svg>
