<svg xmlns="http://www.w3.org/2000/svg" xmlns:xlink="http://www.w3.org/1999/xlink" width="108" height="108" viewBox="0 0 108 108">
  <defs>
    <filter id="Trazado_904820" x="0" y="0" width="108" height="108" filterUnits="userSpaceOnUse">
      <feOffset dy="3" input="SourceAlpha"/>
      <feGaussianBlur stdDeviation="3" result="blur"/>
      <feFlood flood-opacity="0.161"/>
      <feComposite operator="in" in2="blur"/>
      <feComposite in="SourceGraphic"/>
    </filter>
  </defs>
  <g id="Icono" transform="translate(-615.101 -5000)">
    <g transform="matrix(1, 0, 0, 1, 615.1, 5000)" filter="url(#Trazado_904820)">
      <g id="Trazado_904820-2" data-name="Trazado 904820" transform="translate(9 6)" fill="#ecf4fa">
        <path d="M 45 88.5 C 39.12687683105469 88.5 33.43022537231445 87.35007476806641 28.06830024719238 85.08217620849609 C 22.88852500915527 82.89131164550781 18.23629951477051 79.75458526611328 14.2408504486084 75.75914764404297 C 10.24541282653809 71.76370239257812 7.108687400817871 67.11147308349609 4.917825222015381 61.93170166015625 C 2.649924993515015 56.56977462768555 1.5 50.87312316894531 1.5 45 C 1.5 39.12687683105469 2.649924993515015 33.43022537231445 4.917825222015381 28.06830024719238 C 7.108687400817871 22.88852500915527 10.24541282653809 18.23629951477051 14.2408504486084 14.2408504486084 C 18.23629951477051 10.24541282653809 22.88852500915527 7.108687400817871 28.06830024719238 4.917825222015381 C 33.43022537231445 2.649924993515015 39.12687683105469 1.5 45 1.5 C 50.87312316894531 1.5 56.56977462768555 2.649924993515015 61.93170166015625 4.917825222015381 C 67.11147308349609 7.108687400817871 71.76370239257812 10.24541282653809 75.75914764404297 14.2408504486084 C 79.75458526611328 18.23629951477051 82.89131164550781 22.88852500915527 85.08217620849609 28.06830024719238 C 87.35007476806641 33.43022537231445 88.5 39.12687683105469 88.5 45 C 88.5 50.87312316894531 87.35007476806641 56.56977462768555 85.08217620849609 61.93170166015625 C 82.89131164550781 67.11147308349609 79.75458526611328 71.76370239257812 75.75914764404297 75.75914764404297 C 71.76370239257812 79.75458526611328 67.11147308349609 82.89131164550781 61.93170166015625 85.08217620849609 C 56.56977462768555 87.35007476806641 50.87312316894531 88.5 45 88.5 Z" stroke="none"/>
        <path d="M 45 3 C 39.32871246337891 3 33.82865524291992 4.110054016113281 28.65262985229492 6.299339294433594 C 23.65165710449219 8.414573669433594 19.15968322753906 11.44334411621094 15.301513671875 15.301513671875 C 11.44334411621094 19.15968322753906 8.414573669433594 23.65165710449219 6.299339294433594 28.65262985229492 C 4.110054016113281 33.82865524291992 3 39.32871246337891 3 45 C 3 50.67128753662109 4.110054016113281 56.17134475708008 6.299339294433594 61.34737396240234 C 8.414573669433594 66.34834289550781 11.44334411621094 70.84031677246094 15.301513671875 74.698486328125 C 19.15968322753906 78.55665588378906 23.65165710449219 81.58542633056641 28.65262985229492 83.70066070556641 C 33.82865524291992 85.88994598388672 39.32871246337891 87 45 87 C 50.67128753662109 87 56.17134475708008 85.88994598388672 61.34737396240234 83.70066070556641 C 66.34834289550781 81.58542633056641 70.84031677246094 78.55665588378906 74.698486328125 74.698486328125 C 78.55665588378906 70.84031677246094 81.58542633056641 66.34834289550781 83.70066070556641 61.34737396240234 C 85.88994598388672 56.17134475708008 87 50.67128753662109 87 45 C 87 39.32871246337891 85.88994598388672 33.82865524291992 83.70066070556641 28.65262985229492 C 81.58542633056641 23.65165710449219 78.55665588378906 19.15968322753906 74.698486328125 15.301513671875 C 70.84031677246094 11.44334411621094 66.34834289550781 8.414573669433594 61.34737396240234 6.299339294433594 C 56.17134475708008 4.110054016113281 50.67128753662109 3 45 3 M 45 0 C 69.85281372070312 0 90 20.14718627929688 90 45 C 90 69.85281372070312 69.85281372070312 90 45 90 C 20.14718627929688 90 0 69.85281372070312 0 45 C 0 20.14718627929688 20.14718627929688 0 45 0 Z" stroke="none" fill="#2a5673"/>
      </g>
    </g>
    <g id="layer1" transform="translate(642.697 4742.466)">
      <path id="path31493" d="M4.244,280.86H43.356a1.858,1.858,0,0,1,1.862,1.862V308.8a1.858,1.858,0,0,1-1.862,1.863H4.244A1.858,1.858,0,0,1,2.381,308.8V282.722A1.858,1.858,0,0,1,4.244,280.86Z" transform="translate(4.667 0.668)" fill="#e7ebef"/>
      <path id="path31495" d="M3.44,281.919H38.827v18.625H3.44Z" transform="translate(7.333 3.336)" fill="#68b1fc"/>
      <g id="Grupo_1143883" data-name="Grupo 1143883" transform="translate(1.46 289.912)">
        <path id="path31497" d="M19.652,294.915a6.984,6.984,0,0,1-2.794-5.587H9.408a6.984,6.984,0,0,1-2.794,5.587Z" transform="translate(13.873 -267.909)" fill="#e7ebef"/>
        <path id="rect31501" d="M2.656,291.973H38.044a1.858,1.858,0,0,1,1.862,1.863V305.01a1.859,1.859,0,0,1-1.862,1.863H2.656A1.859,1.859,0,0,1,.794,305.01V293.836a1.858,1.858,0,0,1,1.862-1.863Z" transform="translate(-0.794 -261.243)" fill="#e7ebef"/>
        <path id="path31531" d="M16.69,291.973h3.725a3.717,3.717,0,0,1,3.725,3.725v5.588a5.587,5.587,0,0,1-11.175,0V295.7a3.717,3.717,0,0,1,3.725-3.725Z" transform="translate(29.872 -261.243)" fill="#e7ebef"/>
        <path id="path31913" d="M4.762,283.242h9.312v9.312H4.762Z" transform="translate(9.206 -283.242)" fill="#e7ebef"/>
      </g>
      <path id="path34855-3" d="M36.376,291.973a2.767,2.767,0,0,1,.718,1.846v9.316a2.8,2.8,0,0,1-2.79,2.79H2.64A2.768,2.768,0,0,1,.8,305.212a1.852,1.852,0,0,0,1.842,1.661H38.029a1.859,1.859,0,0,0,1.862-1.863V293.836a1.858,1.858,0,0,0-1.862-1.863Z" transform="translate(0.681 28.669)" fill="#dbe1e7"/>
      <path id="path34857-3" d="M15.76,291.973a4.637,4.637,0,0,1,1.875,3.71v5.589a6.493,6.493,0,0,1-3.2,5.58c.134.01.267.021.4.021a5.575,5.575,0,0,0,5.587-5.587V295.7a3.717,3.717,0,0,0-3.725-3.725Z" transform="translate(35.044 28.669)" fill="#dbe1e7"/>
      <path id="path34999-1" d="M41.676,280.86a2.775,2.775,0,0,1,.735,1.864v24.211a2.81,2.81,0,0,1-2.8,2.792H4.23a2.777,2.777,0,0,1-1.842-.715,1.851,1.851,0,0,0,1.841,1.648H43.34A1.858,1.858,0,0,0,45.2,308.8V282.722a1.858,1.858,0,0,0-1.862-1.862Z" transform="translate(4.682 0.668)" fill="#dbe1e7"/>
      <path id="path35001-4" d="M3.44,281.919v18.625H6.231V283.783a.931.931,0,0,1,.935-.935H38.827v-.929Z" transform="translate(7.333 3.336)" fill="#4fa4fb"/>
      <path id="path35003-0" d="M7.837,289.328a6.782,6.782,0,0,1-.6,2.79h5.788a11.946,11.946,0,0,0,1.9,2.8H18.08a6.984,6.984,0,0,1-2.794-5.586H7.837Z" transform="translate(16.905 22.004)" fill="#dbe1e7"/>
      <path id="path2936-2" d="M8.912,280.595a2.816,2.816,0,0,0-2.8,2.8v8.379a.931.931,0,1,0,1.862,0v-8.379a.916.916,0,0,1,.935-.935H48.021a.916.916,0,0,1,.935.935v26.073a.911.911,0,0,1-.935.929H8.912a.911.911,0,0,1-.935-.929v-9.314a.931.931,0,1,0-1.862,0v9.314a2.81,2.81,0,0,0,2.8,2.792H23.736a5.72,5.72,0,0,1-2.106,3.727H20.083a.931.931,0,1,0,0,1.862H36.849a.931.931,0,1,0,0-1.862H35.3a5.72,5.72,0,0,1-2.106-3.727H48.021a2.81,2.81,0,0,0,2.8-2.792V283.394a2.816,2.816,0,0,0-2.8-2.8Zm1.862,3.727a.931.931,0,0,0-.935.935V303.88a.931.931,0,0,0,.935.935H46.156a.933.933,0,0,0,.937-.935V285.257a.933.933,0,0,0-.937-.935Zm.928,1.863H45.229v16.768H11.7Zm3.679,2.8a.936.936,0,0,0-.88.928v9.314a.931.931,0,0,0,.928.928h9.314a.931.931,0,0,0,.928-.928v-9.314a.931.931,0,0,0-.928-.928Zm13.039,0a.932.932,0,1,0,.049,1.862h7.444a.931.931,0,1,0,0-1.862Zm11.175,0a.932.932,0,1,0,.044,1.862H41.5a.931.931,0,1,0,0-1.862Zm-23.239,1.862h7.452v7.444H16.357Zm12.064,2.79a.932.932,0,1,0,.049,1.863H41.5a.931.931,0,1,0,0-1.863Zm-21.386.915a.931.931,0,0,0-.92.948v.929a.931.931,0,1,0,1.862,0V295.5A.931.931,0,0,0,7.035,294.551Zm21.435,3.74a.931.931,0,1,0,0,1.862h1.855a.931.931,0,1,0,0-1.862Zm5.582,0a.931.931,0,1,0,0,1.862H41.5a.931.931,0,1,0,0-1.862Zm-7.444,8.379a.931.931,0,1,0,0,1.863h3.718a.931.931,0,1,0,0-1.863Zm-.995,5.589H31.32a7.814,7.814,0,0,0,1.482,3.727H24.13a7.815,7.815,0,0,0,1.482-3.727ZM3.321,319.714A2.8,2.8,0,0,0,.529,322.5v11.178a2.8,2.8,0,0,0,2.792,2.79H38.71a2.8,2.8,0,0,0,2.79-2.79V322.5a2.8,2.8,0,0,0-2.79-2.79Zm44.7,0a4.67,4.67,0,0,0-4.662,4.654v5.589a6.521,6.521,0,0,0,13.041,0v-5.589a4.662,4.662,0,0,0-4.653-4.654Zm-44.7,1.862H38.71a.909.909,0,0,1,.935.928v11.178a.909.909,0,0,1-.935.928H3.321a.9.9,0,0,1-.928-.928V322.5A.9.9,0,0,1,3.321,321.577Zm44.7,0h.928v4.654a.931.931,0,1,0,1.862,0v-4.654h.937a2.763,2.763,0,0,1,2.79,2.792v5.589a4.657,4.657,0,0,1-9.314,0v-5.589A2.769,2.769,0,0,1,48.024,321.577Zm-41.91,1.863a.932.932,0,1,0,0,1.864H7.981a.932.932,0,0,0,0-1.864Zm5.587,0a.932.932,0,1,0,0,1.864h1.862a.932.932,0,0,0,0-1.864Zm5.587,0a.932.932,0,1,0,0,1.864h1.862a.932.932,0,0,0,0-1.864Zm5.587,0a.932.932,0,1,0,0,1.864h1.862a.932.932,0,0,0,0-1.864Zm5.587,0a.932.932,0,1,0,0,1.864h1.862a.932.932,0,0,0,0-1.864Zm5.587,0a.932.932,0,1,0,0,1.864h1.862a.932.932,0,0,0,0-1.864ZM8.907,327.164a.931.931,0,1,0,.006,1.863h1.862a.931.931,0,1,0,0-1.863Zm5.587,0a.931.931,0,1,0,.006,1.863h1.862a.931.931,0,1,0,0-1.863Zm5.587,0a.931.931,0,1,0,.006,1.863h1.862a.931.931,0,1,0,0-1.863Zm5.587,0a.931.931,0,1,0,.006,1.863h1.862a.931.931,0,1,0,0-1.863Zm5.587,0a.931.931,0,1,0,.006,1.863h1.862a.931.931,0,1,0,0-1.863ZM6.115,330.891a.931.931,0,1,0,0,1.862H7.981a.931.931,0,1,0,0-1.862Zm27.937,0a.931.931,0,1,0,0,1.862h1.862a.931.931,0,1,0,0-1.862Zm-22.393,0a.932.932,0,1,0,.049,1.862H30.33a.931.931,0,1,0,0-1.862Z" transform="translate(0 0)"/>
    </g>
  </g>
</svg>
