<svg xmlns="http://www.w3.org/2000/svg" xmlns:xlink="http://www.w3.org/1999/xlink" width="108" height="108" viewBox="0 0 108 108">
  <defs>
    <filter id="Fondo" x="0" y="0" width="108" height="108" filterUnits="userSpaceOnUse">
      <feOffset dy="3" input="SourceAlpha"/>
      <feGaussianBlur stdDeviation="3" result="blur"/>
      <feFlood flood-opacity="0.161"/>
      <feComposite operator="in" in2="blur"/>
      <feComposite in="SourceGraphic"/>
    </filter>
  </defs>
  <g id="Icono" transform="translate(8.5 -689)">
    <g transform="matrix(1, 0, 0, 1, -8.5, 689)" filter="url(#Fondo)">
      <g id="Fondo-2" data-name="Fondo" transform="translate(9 6)" fill="#fffbe8">
        <path d="M 45 88.5 C 39.12687683105469 88.5 33.43022537231445 87.35007476806641 28.06830024719238 85.08217620849609 C 22.88852500915527 82.89131164550781 18.23629951477051 79.75458526611328 14.2408504486084 75.75914764404297 C 10.24541282653809 71.76370239257812 7.108687400817871 67.11147308349609 4.917825222015381 61.93170166015625 C 2.649924993515015 56.56977462768555 1.5 50.87312316894531 1.5 45 C 1.5 39.12687683105469 2.649924993515015 33.43022537231445 4.917825222015381 28.06830024719238 C 7.108687400817871 22.88852500915527 10.24541282653809 18.23629951477051 14.2408504486084 14.2408504486084 C 18.23629951477051 10.24541282653809 22.88852500915527 7.108687400817871 28.06830024719238 4.917825222015381 C 33.43022537231445 2.649924993515015 39.12687683105469 1.5 45 1.5 C 50.87312316894531 1.5 56.56977462768555 2.649924993515015 61.93170166015625 4.917825222015381 C 67.11147308349609 7.108687400817871 71.76370239257812 10.24541282653809 75.75914764404297 14.2408504486084 C 79.75458526611328 18.23629951477051 82.89131164550781 22.88852500915527 85.08217620849609 28.06830024719238 C 87.35007476806641 33.43022537231445 88.5 39.12687683105469 88.5 45 C 88.5 50.87312316894531 87.35007476806641 56.56977462768555 85.08217620849609 61.93170166015625 C 82.89131164550781 67.11147308349609 79.75458526611328 71.76370239257812 75.75914764404297 75.75914764404297 C 71.76370239257812 79.75458526611328 67.11147308349609 82.89131164550781 61.93170166015625 85.08217620849609 C 56.56977462768555 87.35007476806641 50.87312316894531 88.5 45 88.5 Z" stroke="none"/>
        <path d="M 45 3 C 39.32871246337891 3 33.82865524291992 4.110054016113281 28.65262985229492 6.299339294433594 C 23.65165710449219 8.414573669433594 19.15968322753906 11.44334411621094 15.301513671875 15.301513671875 C 11.44334411621094 19.15968322753906 8.414573669433594 23.65165710449219 6.299339294433594 28.65262985229492 C 4.110054016113281 33.82865524291992 3 39.32871246337891 3 45 C 3 50.67128753662109 4.110054016113281 56.17134475708008 6.299339294433594 61.34737396240234 C 8.414573669433594 66.34834289550781 11.44334411621094 70.84031677246094 15.301513671875 74.698486328125 C 19.15968322753906 78.55665588378906 23.65165710449219 81.58542633056641 28.65262985229492 83.70066070556641 C 33.82865524291992 85.88994598388672 39.32871246337891 87 45 87 C 50.67128753662109 87 56.17134475708008 85.88994598388672 61.34737396240234 83.70066070556641 C 66.34834289550781 81.58542633056641 70.84031677246094 78.55665588378906 74.698486328125 74.698486328125 C 78.55665588378906 70.84031677246094 81.58542633056641 66.34834289550781 83.70066070556641 61.34737396240234 C 85.88994598388672 56.17134475708008 87 50.67128753662109 87 45 C 87 39.32871246337891 85.88994598388672 33.82865524291992 83.70066070556641 28.65262985229492 C 81.58542633056641 23.65165710449219 78.55665588378906 19.15968322753906 74.698486328125 15.301513671875 C 70.84031677246094 11.44334411621094 66.34834289550781 8.414573669433594 61.34737396240234 6.299339294433594 C 56.17134475708008 4.110054016113281 50.67128753662109 3 45 3 M 45 0 C 69.85281372070312 0 90 20.14718627929688 90 45 C 90 69.85281372070312 69.85281372070312 90 45 90 C 20.14718627929688 90 0 69.85281372070312 0 45 C 0 20.14718627929688 20.14718627929688 0 45 0 Z" stroke="none" fill="#bca724"/>
      </g>
    </g>
    <g id="Grupo_1145485" data-name="Grupo 1145485" transform="translate(13.915 708.415)">
      <path id="Trazado_982386" data-name="Trazado 982386" d="M57.126,23.67V61.959a2.914,2.914,0,0,1-.047.522,3.133,3.133,0,0,1-3.086,2.611H10.133A3.133,3.133,0,0,1,7.188,63,3.008,3.008,0,0,1,7,61.959V23.67Z" transform="translate(-0.478 -8.444)" fill="#f4f6f8"/>
      <path id="Trazado_982387" data-name="Trazado 982387" d="M57.09,23.27V62.29a3.133,3.133,0,0,1-3.1,2.611H10.133a3.133,3.133,0,0,1-2.945-2.089C7.1,62.29,7.042,61.867,7,61.549v-.2a2.49,2.49,0,0,0,.4,0h4.584A41.6,41.6,0,0,0,53.435,23.479c0-.068,0-.141,0-.209Z" transform="translate(-0.478 -8.252)" fill="#e4e8eb"/>
      <path id="Trazado_982388" data-name="Trazado 982388" d="M52.008,54.675a11.043,11.043,0,0,1-.736,1.749l2.564,3.655-4.177,4.177L46,61.709a11.263,11.263,0,0,1-1.739.715l-.783,4.4h-5.89l-.068-.4V66.34l-.7-3.916a11.264,11.264,0,0,1-1.739-.715l-3.655,2.548L27.253,60.08,29.3,57.161l.522-.736a11.373,11.373,0,0,1-.731-1.754L24.7,53.908v-5.89l4.391-.773a12.009,12.009,0,0,1,.71-1.754l-2.559-3.655,4.177-4.177,3.655,2.553a11.393,11.393,0,0,1,1.6-.668.5.5,0,0,0,.141-.047l.783-4.4h5.869l.778,4.4A10.746,10.746,0,0,1,46,40.212l3.655-2.548,4.177,4.177L51.272,45.5a10.929,10.929,0,0,1,.736,1.749l4.386.773v5.9Z" transform="translate(-8.936 -13.905)" fill="#b3a4ee"/>
      <path id="Trazado_982389" data-name="Trazado 982389" d="M54.345,57.046a11.044,11.044,0,0,1-.736,1.749l2.564,3.655L52,66.627,48.34,64.079a11.263,11.263,0,0,1-1.739.715l-.783,4.4h-5.89l-.068-.4V68.71l-.7-3.916a11.263,11.263,0,0,1-1.739-.715l-3.655,2.548L29.59,62.45l2.047-2.919.522-.736c21,1.566,16.187-16.187,16.187-16.187L52,40.06l4.177,4.177-2.564,3.655a10.929,10.929,0,0,1,.731,1.723l4.386.773v5.9Z" transform="translate(-11.272 -16.276)" fill="#ac92ea"/>
      <path id="Trazado_982390" data-name="Trazado 982390" d="M55.667,58.388a7.749,7.749,0,1,1-7.754-7.738A7.749,7.749,0,0,1,55.667,58.388Z" transform="translate(-16.328 -21.336)" fill="#fff"/>
      <path id="Trazado_982391" data-name="Trazado 982391" d="M53.994,7H10.133A3.133,3.133,0,0,0,7,10.133V15.7H57.126V10.133A3.133,3.133,0,0,0,53.994,7Z" transform="translate(-0.478 -0.478)" fill="#656d78"/>
      <path id="Trazado_982392" data-name="Trazado 982392" d="M96.119,10.133V15.7H91.733V10.133A3.133,3.133,0,0,0,88.6,7h4.386a3.133,3.133,0,0,1,3.133,3.133Z" transform="translate(-39.47 -0.478)" fill="#434a54"/>
      <path id="Trazado_982393" data-name="Trazado 982393" d="M56.649,15.749H6.522A.522.522,0,0,1,6,15.226V9.655A3.655,3.655,0,0,1,9.655,6H53.516a3.655,3.655,0,0,1,3.655,3.655v5.571A.522.522,0,0,1,56.649,15.749ZM7.044,14.7H56.126V9.655a2.611,2.611,0,0,0-2.611-2.611H9.655A2.611,2.611,0,0,0,7.044,9.655Z" transform="translate(0 0)"/>
      <path id="Trazado_982394" data-name="Trazado 982394" d="M53.516,65.136H9.655A3.655,3.655,0,0,1,6,61.481V23.192a.522.522,0,0,1,.522-.522H56.649a.522.522,0,0,1,.522.522V61.481A3.655,3.655,0,0,1,53.516,65.136ZM7.044,23.714V61.481a2.611,2.611,0,0,0,2.611,2.611H53.516a2.611,2.611,0,0,0,2.611-2.611V23.714Z" transform="translate(0 -7.966)"/>
      <g id="Grupo_1145484" data-name="Grupo 1145484" transform="translate(9.274 10.35)">
        <path id="Trazado_982395" data-name="Trazado 982395" d="M14.442,15.374h-1.65a.522.522,0,1,1,0-1.044h1.65a.522.522,0,0,1,0,1.044Z" transform="translate(-12.27 -14.33)" fill="#fff"/>
        <path id="Trazado_982396" data-name="Trazado 982396" d="M23.107,15.374H21.452a.522.522,0,0,1,0-1.044h1.655a.522.522,0,0,1,0,1.044Z" transform="translate(-16.408 -14.33)" fill="#fff"/>
        <path id="Trazado_982397" data-name="Trazado 982397" d="M31.777,15.374H30.122a.522.522,0,0,1,0-1.044h1.655a.522.522,0,0,1,0,1.044Z" transform="translate(-20.551 -14.33)" fill="#fff"/>
        <path id="Trazado_982398" data-name="Trazado 982398" d="M79.069,15.374H60.522a.522.522,0,1,1,0-1.044H79.069a.522.522,0,0,1,0,1.044Z" transform="translate(-35.078 -14.33)" fill="#fff"/>
      </g>
      <path id="Trazado_982399" data-name="Trazado 982399" d="M23.789,32.174h-11a.522.522,0,1,1,0-1.044h11a.522.522,0,1,1,0,1.044Z" transform="translate(-2.996 -12.008)"/>
      <path id="Trazado_982400" data-name="Trazado 982400" d="M18.054,38.044H12.832a.522.522,0,1,1,0-1.044h5.222a.522.522,0,1,1,0,1.044Z" transform="translate(-3.015 -14.813)"/>
      <path id="Trazado_982401" data-name="Trazado 982401" d="M42.965,66.9H37.081a.522.522,0,0,1-.522-.439L36.48,66l-.647-3.624a10.345,10.345,0,0,1-1.232-.522l-3.41,2.376a.522.522,0,0,1-.668-.057L26.345,60a.522.522,0,0,1-.057-.668l2.381-3.4a12.531,12.531,0,0,1-.522-1.248l-4.083-.715a.522.522,0,0,1-.433-.522V47.578a.522.522,0,0,1,.433-.522l4.083-.721a12.709,12.709,0,0,1,.522-1.238l-2.381-3.41a.522.522,0,0,1,.057-.668l4.177-4.177a.522.522,0,0,1,.668-.057l3.4,2.376a12.109,12.109,0,0,1,1.243-.522l.731-4.031a.522.522,0,0,1,.522-.428H42.96a.522.522,0,0,1,.522.428l.7,4.062a11.889,11.889,0,0,1,1.253.522l3.394-2.376a.522.522,0,0,1,.668.057l4.177,4.177a.522.522,0,0,1,.063.668l-2.381,3.415a12.25,12.25,0,0,1,.522,1.232l4.088.721a.522.522,0,0,1,.428.522v5.864a.522.522,0,0,1-.433.522l-4.083.715a11.668,11.668,0,0,1-.522,1.238l2.381,3.41a.522.522,0,0,1-.063.668L49.5,64.2a.522.522,0,0,1-.668.057l-3.394-2.4a10.344,10.344,0,0,1-1.232.522l-.726,4.073a.522.522,0,0,1-.517.439Zm-5.446-1.044h5.007l.71-3.968a.522.522,0,0,1,.355-.407,10.114,10.114,0,0,0,1.64-.679.522.522,0,0,1,.522.031l3.295,2.3L52.6,59.588l-2.313-3.305a.522.522,0,0,1-.031-.522,11.115,11.115,0,0,0,.721-1.687.522.522,0,0,1,.4-.35l3.958-.689V48.012l-3.958-.694a.522.522,0,0,1-.4-.35,10.835,10.835,0,0,0-.7-1.66.522.522,0,0,1,.031-.522l2.313-3.31-3.545-3.54-3.29,2.3a.522.522,0,0,1-.522.037,11.107,11.107,0,0,0-1.671-.684.522.522,0,0,1-.36-.407l-.7-3.963H37.519l-.71,3.963a.522.522,0,0,1-.319.4l-.1.031-.063.026a9.816,9.816,0,0,0-1.535.616.522.522,0,0,1-.522-.037l-3.295-2.3-3.545,3.54,2.308,3.305a.522.522,0,0,1,.037.522,10.787,10.787,0,0,0-.726,1.687.522.522,0,0,1-.407.35l-3.958.694v5.023l3.958.689a.522.522,0,0,1,.407.35,10.192,10.192,0,0,0,.7,1.676.522.522,0,0,1-.037.522l-2.308,3.3,3.545,3.545,3.321-2.287a.522.522,0,0,1,.522-.031,10.114,10.114,0,0,0,1.65.679.522.522,0,0,1,.355.407Z" transform="translate(-8.424 -13.466)"/>
      <path id="Trazado_982402" data-name="Trazado 982402" d="M47.445,66.181a8.266,8.266,0,1,1,8.276-8.271A8.266,8.266,0,0,1,47.445,66.181Zm0-15.487a7.221,7.221,0,1,0,7.232,7.216A7.221,7.221,0,0,0,47.445,50.694Z" transform="translate(-15.86 -20.858)"/>
      <path id="Trazado_982403" data-name="Trazado 982403" d="M28.051,38.044H26.792a.522.522,0,1,1,0-1.044h1.258a.522.522,0,0,1,0,1.044Z" transform="translate(-9.686 -14.813)"/>
      <path id="Trazado_982404" data-name="Trazado 982404" d="M50.422,65.863a.475.475,0,0,1-.235-.057.522.522,0,0,1-.24-.71l4.287-8.354a.528.528,0,1,1,.935.491l-4.287,8.354A.522.522,0,0,1,50.422,65.863Z" transform="translate(-20.973 -24.111)"/>
      <path id="Trazado_982405" data-name="Trazado 982405" d="M59.162,68.057a.52.52,0,0,1-.371-.888l1.331-1.337L58.791,64.5a.522.522,0,0,1,.736-.736l1.7,1.7a.522.522,0,0,1,0,.736l-1.7,1.7a.522.522,0,0,1-.366.151Z" transform="translate(-25.154 -27.543)"/>
      <path id="Trazado_982406" data-name="Trazado 982406" d="M48.364,63.332a.522.522,0,0,1-.371-.157l-1.7-1.7a.522.522,0,0,1,0-.736l1.7-1.7a.522.522,0,0,1,.736.736L47.4,61.108l1.331,1.331a.525.525,0,0,1-.366.893Z" transform="translate(-19.181 -25.283)"/>
    </g>
  </g>
</svg>
