<svg xmlns="http://www.w3.org/2000/svg" xmlns:xlink="http://www.w3.org/1999/xlink" width="108" height="108" viewBox="0 0 108 108">
  <defs>
    <filter id="Trazado_904820" x="0" y="0" width="108" height="108" filterUnits="userSpaceOnUse">
      <feOffset dy="3" input="SourceAlpha"/>
      <feGaussianBlur stdDeviation="3" result="blur"/>
      <feFlood flood-opacity="0.161"/>
      <feComposite operator="in" in2="blur"/>
      <feComposite in="SourceGraphic"/>
    </filter>
  </defs>
  <g id="Icono" transform="translate(-615.101 -5000)">
    <g transform="matrix(1, 0, 0, 1, 615.1, 5000)" filter="url(#Trazado_904820)">
      <g id="Trazado_904820-2" data-name="Trazado 904820" transform="translate(9 6)" fill="#ecf4fa">
        <path d="M 45 88.5 C 39.12687683105469 88.5 33.43022537231445 87.35007476806641 28.06830024719238 85.08217620849609 C 22.88852500915527 82.89131164550781 18.23629951477051 79.75458526611328 14.2408504486084 75.75914764404297 C 10.24541282653809 71.76370239257812 7.108687400817871 67.11147308349609 4.917825222015381 61.93170166015625 C 2.649924993515015 56.56977462768555 1.5 50.87312316894531 1.5 45 C 1.5 39.12687683105469 2.649924993515015 33.43022537231445 4.917825222015381 28.06830024719238 C 7.108687400817871 22.88852500915527 10.24541282653809 18.23629951477051 14.2408504486084 14.2408504486084 C 18.23629951477051 10.24541282653809 22.88852500915527 7.108687400817871 28.06830024719238 4.917825222015381 C 33.43022537231445 2.649924993515015 39.12687683105469 1.5 45 1.5 C 50.87312316894531 1.5 56.56977462768555 2.649924993515015 61.93170166015625 4.917825222015381 C 67.11147308349609 7.108687400817871 71.76370239257812 10.24541282653809 75.75914764404297 14.2408504486084 C 79.75458526611328 18.23629951477051 82.89131164550781 22.88852500915527 85.08217620849609 28.06830024719238 C 87.35007476806641 33.43022537231445 88.5 39.12687683105469 88.5 45 C 88.5 50.87312316894531 87.35007476806641 56.56977462768555 85.08217620849609 61.93170166015625 C 82.89131164550781 67.11147308349609 79.75458526611328 71.76370239257812 75.75914764404297 75.75914764404297 C 71.76370239257812 79.75458526611328 67.11147308349609 82.89131164550781 61.93170166015625 85.08217620849609 C 56.56977462768555 87.35007476806641 50.87312316894531 88.5 45 88.5 Z" stroke="none"/>
        <path d="M 45 3 C 39.32871246337891 3 33.82865524291992 4.110054016113281 28.65262985229492 6.299339294433594 C 23.65165710449219 8.414573669433594 19.15968322753906 11.44334411621094 15.301513671875 15.301513671875 C 11.44334411621094 19.15968322753906 8.414573669433594 23.65165710449219 6.299339294433594 28.65262985229492 C 4.110054016113281 33.82865524291992 3 39.32871246337891 3 45 C 3 50.67128753662109 4.110054016113281 56.17134475708008 6.299339294433594 61.34737396240234 C 8.414573669433594 66.34834289550781 11.44334411621094 70.84031677246094 15.301513671875 74.698486328125 C 19.15968322753906 78.55665588378906 23.65165710449219 81.58542633056641 28.65262985229492 83.70066070556641 C 33.82865524291992 85.88994598388672 39.32871246337891 87 45 87 C 50.67128753662109 87 56.17134475708008 85.88994598388672 61.34737396240234 83.70066070556641 C 66.34834289550781 81.58542633056641 70.84031677246094 78.55665588378906 74.698486328125 74.698486328125 C 78.55665588378906 70.84031677246094 81.58542633056641 66.34834289550781 83.70066070556641 61.34737396240234 C 85.88994598388672 56.17134475708008 87 50.67128753662109 87 45 C 87 39.32871246337891 85.88994598388672 33.82865524291992 83.70066070556641 28.65262985229492 C 81.58542633056641 23.65165710449219 78.55665588378906 19.15968322753906 74.698486328125 15.301513671875 C 70.84031677246094 11.44334411621094 66.34834289550781 8.414573669433594 61.34737396240234 6.299339294433594 C 56.17134475708008 4.110054016113281 50.67128753662109 3 45 3 M 45 0 C 69.85281372070312 0 90 20.14718627929688 90 45 C 90 69.85281372070312 69.85281372070312 90 45 90 C 20.14718627929688 90 0 69.85281372070312 0 45 C 0 20.14718627929688 20.14718627929688 0 45 0 Z" stroke="none" fill="#2a5673"/>
      </g>
    </g>
    <g id="Grupo_1143716" data-name="Grupo 1143716" transform="translate(637.888 4994.027)">
      <path id="Trazado_978906" data-name="Trazado 978906" d="M42.042,87.3V100.13H25.572l-.927-7.744A3.613,3.613,0,0,0,20.883,89.5H16.536A2.9,2.9,0,0,1,13.65,87L12.4,78.335H7l2.7-5.163A25.25,25.25,0,0,0,12.617,63.05C14.967,33.732,74.986,50.126,42.042,87.3Z" transform="translate(-6.148 -16.379)" fill="#427396" fill-rule="evenodd"/>
      <path id="Trazado_978907" data-name="Trazado 978907" d="M113.793,107.778a11.925,11.925,0,0,1-1.475,3.556l.681,1.144.829,1.39A14.563,14.563,0,0,1,111,116.69l-1.39-.829-1.14-.681a11.9,11.9,0,0,1-3.56,1.475l-.325,1.286-.394,1.573a14.861,14.861,0,0,1-3.995,0l-.4-1.573-.325-1.286a11.964,11.964,0,0,1-3.556-1.475l-1.14.681-1.39.829a14.582,14.582,0,0,1-2.827-2.823l.833-1.39.681-1.14a11.891,11.891,0,0,1-1.475-3.56l-1.286-.325-1.573-.394a14.862,14.862,0,0,1,0-3.995l1.573-.4,1.286-.325a11.872,11.872,0,0,1,1.475-3.556l-.679-1.14-.833-1.39a14.677,14.677,0,0,1,2.827-2.823l1.39.829,1.14.681a11.872,11.872,0,0,1,3.556-1.475l.325-1.286.4-1.573a14.861,14.861,0,0,1,3.995,0l.394,1.573.325,1.286a11.833,11.833,0,0,1,3.556,1.475l1.144-.681,1.39-.829a14.659,14.659,0,0,1,2.823,2.823L113,97.645l-.681,1.14a11.855,11.855,0,0,1,1.475,3.56l1.286.321,1.573.4a14.863,14.863,0,0,1,0,3.995l-1.573.394Z" transform="translate(-76.927 -53.68)" fill="#ffba57" fill-rule="evenodd"/>
      <path id="Trazado_978908" data-name="Trazado 978908" d="M160.886,156.272a7.478,7.478,0,1,1-7.478-7.478,7.478,7.478,0,0,1,7.478,7.478Z" transform="translate(-128.136 -104.891)" fill="#dfeef5" fill-rule="evenodd"/>
      <path id="Trazado_978909" data-name="Trazado 978909" d="M437.688,43.793a3.725,3.725,0,1,0-3.729-3.725,3.725,3.725,0,0,0,3.729,3.725Z" transform="translate(-381.052 -6.148)" fill="#fa4655" fill-rule="evenodd"/>
      <path id="Trazado_978910" data-name="Trazado 978910" d="M433.959,179.578h7.454v7.45h-7.454Z" transform="translate(-381.052 -131.922)" fill="#4090ff"/>
      <g id="Grupo_1143715" data-name="Grupo 1143715" transform="translate(0.857 30.195)">
        <path id="Trazado_978911" data-name="Trazado 978911" d="M429,306.8l2.464,4.271,2.467,4.271h-9.866l2.467-4.271Z" transform="translate(-373.222 -273.826)" fill="#45bf64" fill-rule="evenodd"/>
        <path id="Trazado_978912" data-name="Trazado 978912" d="M9.745,78.329l2.7-5.163a25.254,25.254,0,0,0,2.914-10.122c.791-9.859,8.1-14.548,16.21-15.018-9.13-.515-18.073,4.057-18.951,15.018A25.25,25.25,0,0,1,9.7,73.166l-2.7,5.163Zm18.571,21.8-.927-7.744a3.613,3.613,0,0,0-3.763-2.885H20.883a3.613,3.613,0,0,1,3.763,2.885l.927,7.744ZM16.394,87l-1.251-8.667H12.4L13.65,87a2.9,2.9,0,0,0,2.885,2.5H19.28A2.9,2.9,0,0,1,16.394,87Z" transform="translate(-7.005 -46.567)" fill="#3b6887" fill-rule="evenodd"/>
        <path id="Trazado_978913" data-name="Trazado 978913" d="M98.4,94.954a11.833,11.833,0,0,1,3.556-1.475l.325-1.286.394-1.573c.252-.035.508-.062.764-.083q-.612-.052-1.234-.052a14.654,14.654,0,0,0-2,.135l-.4,1.573-.325,1.286a11.771,11.771,0,0,0-2.257.778l.031.017Zm3.556,21.712a11.924,11.924,0,0,1-3.556-1.475l-1.14.681-.031.017a12.009,12.009,0,0,0,2.257.778l.325,1.286.4,1.573a14.653,14.653,0,0,0,2,.135q.622,0,1.234-.052c-.256-.021-.511-.049-.764-.083l-.394-1.573Zm-8.912-2.789.829-1.39.681-1.14a11.887,11.887,0,0,1-1.472-3.56l-1.289-.325-1.568-.393a14.511,14.511,0,0,1,0-3.995l1.569-.4,1.289-.325A11.868,11.868,0,0,1,94.559,98.8l-.681-1.14-.829-1.39A14.431,14.431,0,0,1,94.843,94.3l-.049-.028-1.39-.829a14.677,14.677,0,0,0-2.827,2.823l.833,1.39.681,1.14a11.872,11.872,0,0,0-1.475,3.556l-1.286.325-1.573.4a14.862,14.862,0,0,0,0,3.995l1.573.394,1.286.325a11.8,11.8,0,0,0,1.475,3.56l-.681,1.14-.833,1.39A14.582,14.582,0,0,0,93.4,116.7l1.39-.829.049-.028a14.432,14.432,0,0,1-1.794-1.966Z" transform="translate(-77.795 -83.885)" fill="#e6a74e" fill-rule="evenodd"/>
        <path id="Trazado_978914" data-name="Trazado 978914" d="M429.046,311.068l1.21-2.094L429,306.8l-2.467,4.271-.387.667-.919,1.593-1.161,2.011h2.516Z" transform="translate(-373.222 -273.826)" fill="#3eac5a" fill-rule="evenodd"/>
        <path id="Trazado_978915" data-name="Trazado 978915" d="M433.959,187.028h2.516v-7.451h-2.516v7.451Z" transform="translate(-381.909 -162.116)" fill="#3a82e6" fill-rule="evenodd"/>
        <path id="Trazado_978916" data-name="Trazado 978916" d="M434.056,40.915a3.731,3.731,0,0,0,3.632,2.879,3.679,3.679,0,0,0,1.254-.218,3.727,3.727,0,0,1,0-7.015,3.682,3.682,0,0,0-1.254-.218,3.725,3.725,0,0,0-3.632,4.572Z" transform="translate(-381.909 -36.343)" fill="#e13f4d" fill-rule="evenodd"/>
      </g>
      <path id="Trazado_978917" data-name="Trazado 978917" d="M37.633,59.749l-1.251-2.1A12.751,12.751,0,0,0,37.566,54.8l2.365-.594a.853.853,0,0,0,.639-.716,15.72,15.72,0,0,0,0-4.218.853.853,0,0,0-.637-.716l-2.367-.6a12.779,12.779,0,0,0-1.183-2.85l1.25-2.094a.853.853,0,0,0-.053-.953,15.539,15.539,0,0,0-2.987-2.991.853.853,0,0,0-.955-.052l-2.1,1.252a12.675,12.675,0,0,0-2.853-1.183L28.1,36.722a.853.853,0,0,0-.712-.638,15.8,15.8,0,0,0-4.227,0,.853.853,0,0,0-.711.636l-.6,2.367A12.7,12.7,0,0,0,19,40.27L16.9,39.018a.853.853,0,0,0-.954.052,15.461,15.461,0,0,0-2.992,2.992.853.853,0,0,0-.052.954l1.252,2.092a12.693,12.693,0,0,0-1.183,2.851l-2.366.6a.853.853,0,0,0-.636.711,15.72,15.72,0,0,0,0,4.227.853.853,0,0,0,.638.712l2.364.594a12.64,12.64,0,0,0,1.184,2.855l-1.252,2.092a.853.853,0,0,0,.052.955,15.424,15.424,0,0,0,2.992,2.988.853.853,0,0,0,.952.051L19,62.493a12.784,12.784,0,0,0,2.85,1.183l.6,2.368a.853.853,0,0,0,.716.637,15.722,15.722,0,0,0,4.219,0,.853.853,0,0,0,.716-.639l.594-2.365a12.81,12.81,0,0,0,2.853-1.183l2.095,1.25a.853.853,0,0,0,.954-.053A15.617,15.617,0,0,0,37.58,60.7a.853.853,0,0,0,.053-.954Zm-1.6-5.847a11.065,11.065,0,0,1-1.37,3.3.853.853,0,0,0-.008.886l1.209,2.027a13.918,13.918,0,0,1-1.857,1.857l-2.024-1.208a.853.853,0,0,0-.886.007,11.13,11.13,0,0,1-3.306,1.371.853.853,0,0,0-.632.622l-.576,2.286a13.874,13.874,0,0,1-2.628,0l-.577-2.285a.853.853,0,0,0-.632-.622,11.085,11.085,0,0,1-3.3-1.37.853.853,0,0,0-.887-.007l-2.026,1.209a13.732,13.732,0,0,1-1.858-1.857l1.211-2.025a.853.853,0,0,0-.008-.888,10.943,10.943,0,0,1-1.369-3.3.853.853,0,0,0-.622-.634L11.6,52.694c-.041-.432-.061-.871-.061-1.313s.02-.882.061-1.314l2.287-.578a.853.853,0,0,0,.622-.632,11,11,0,0,1,1.369-3.3.853.853,0,0,0,.008-.889l-1.211-2.026a13.747,13.747,0,0,1,1.858-1.858L18.559,42a.853.853,0,0,0,.889-.009,11,11,0,0,1,3.3-1.369A.853.853,0,0,0,23.38,40l.578-2.287a14.176,14.176,0,0,1,2.627,0L27.161,40a.853.853,0,0,0,.632.622,10.982,10.982,0,0,1,3.3,1.369.853.853,0,0,0,.888.009l2.029-1.211a13.828,13.828,0,0,1,1.856,1.859l-1.209,2.025a.853.853,0,0,0,.007.887,11.087,11.087,0,0,1,1.37,3.3.853.853,0,0,0,.622.632l2.286.578c.042.445.063.886.063,1.315s-.021.868-.063,1.313l-2.285.575a.853.853,0,0,0-.622.633ZM25.272,43.05A8.332,8.332,0,1,0,33.6,51.381,8.332,8.332,0,0,0,25.272,43.05Zm0,14.956A6.625,6.625,0,1,1,31.9,51.381a6.625,6.625,0,0,1-6.625,6.625ZM62.307,71.281l-4.935-8.542a.853.853,0,0,0-1.478,0L53.43,67.01l-.567.98H43.177L40.989,65.8a32.4,32.4,0,0,0,5.159-11.424,21.5,21.5,0,0,0,.336-2.142h5.569v2.872a.853.853,0,0,0,.853.853h7.454a.853.853,0,0,0,.853-.853V47.656a.853.853,0,0,0-.853-.853H52.907a.853.853,0,0,0-.853.853v2.872H46.591A17.393,17.393,0,0,0,44.18,41.19a18.685,18.685,0,0,0-3.329-4.09l2.326-2.326h8.958a4.579,4.579,0,1,0,0-1.707H42.824a.853.853,0,0,0-.6.25l-2.668,2.667a23.716,23.716,0,0,0-6.5-3.6A25.205,25.205,0,0,0,18.8,31.346c-7.745,1.8-12.55,7.363-13.182,15.256A24.45,24.45,0,0,1,2.8,56.4L.1,61.561A.853.853,0,0,0,.857,62.81H5.512l1.145,7.935a3.74,3.74,0,0,0,3.73,3.231h4.347a2.777,2.777,0,0,1,2.916,2.133l.927,7.744a.853.853,0,0,0,.848.752h16.47a.853.853,0,0,0,.853-.853V71.246q1.78-2.029,3.242-4.029l2.23,2.23a.854.854,0,0,0,.6.25h9.054l-.915,1.585a.853.853,0,0,0,.739,1.28h9.866a.853.853,0,0,0,.739-1.28ZM53.761,48.51h5.747v5.743H53.761Zm2.872-17.462a2.872,2.872,0,1,1-2.872,2.872,2.872,2.872,0,0,1,2.872-2.872ZM35.256,70.358a.853.853,0,0,0-.215.566V82.9H20.182L19.346,75.9a4.448,4.448,0,0,0-4.611-3.637H10.388A2.046,2.046,0,0,1,8.347,70.5L7.1,61.834a.853.853,0,0,0-.845-.731H2.266l2.043-3.913A26.079,26.079,0,0,0,7.32,46.74c.569-7.1,4.9-12.109,11.868-13.731a23.572,23.572,0,0,1,19.14,4.2l-1.617,1.617a.853.853,0,1,0,1.207,1.207l1.719-1.719a16.873,16.873,0,0,1,3.076,3.75,15.505,15.505,0,0,1,2.176,8.465H42.06a.853.853,0,0,0,0,1.707h2.706a28.8,28.8,0,0,1-5.011,12.332l-1.836-1.836a.853.853,0,1,0-1.207,1.207l2.054,2.054q-1.561,2.163-3.51,4.365Zm17.924.5,3.453-5.982,3.455,5.982Z" transform="translate(0)"/>
    </g>
  </g>
</svg>
