<svg id="Grupo_1144954" data-name="Grupo 1144954" xmlns="http://www.w3.org/2000/svg" xmlns:xlink="http://www.w3.org/1999/xlink" width="500.805" height="465.755" viewBox="0 0 500.805 465.755">
  <defs>
    <clipPath id="clip-path">
      <rect id="Rectángulo_405839" data-name="Rectángulo 405839" width="500.805" height="465.755" fill="none"/>
    </clipPath>
    <clipPath id="clip-path-3">
      <rect id="Rectángulo_405803" data-name="Rectángulo 405803" width="102.061" height="104.055" fill="none"/>
    </clipPath>
    <clipPath id="clip-path-4">
      <rect id="Rectángulo_405804" data-name="Rectángulo 405804" width="14.04" height="59.625" fill="none"/>
    </clipPath>
    <clipPath id="clip-path-5">
      <rect id="Rectángulo_405805" data-name="Rectángulo 405805" width="98.029" height="92.704" fill="none"/>
    </clipPath>
    <clipPath id="clip-path-6">
      <rect id="Rectángulo_405806" data-name="Rectángulo 405806" width="68.573" height="75.638" fill="none"/>
    </clipPath>
    <clipPath id="clip-path-8">
      <rect id="Rectángulo_405808" data-name="Rectángulo 405808" width="50.57" height="34.169" fill="none"/>
    </clipPath>
    <clipPath id="clip-path-9">
      <rect id="Rectángulo_405809" data-name="Rectángulo 405809" width="242.201" height="344.59" fill="none"/>
    </clipPath>
    <clipPath id="clip-path-10">
      <rect id="Rectángulo_405810" data-name="Rectángulo 405810" width="234.389" height="339.136" fill="none"/>
    </clipPath>
    <clipPath id="clip-path-11">
      <rect id="Rectángulo_405811" data-name="Rectángulo 405811" width="11.367" height="30.218" fill="none"/>
    </clipPath>
    <clipPath id="clip-path-12">
      <rect id="Rectángulo_405812" data-name="Rectángulo 405812" width="234.388" height="160.548" fill="none"/>
    </clipPath>
    <clipPath id="clip-path-13">
      <rect id="Rectángulo_405813" data-name="Rectángulo 405813" width="7.814" height="10.091" fill="none"/>
    </clipPath>
    <clipPath id="clip-path-14">
      <rect id="Rectángulo_405814" data-name="Rectángulo 405814" width="9.04" height="184.241" fill="none"/>
    </clipPath>
    <clipPath id="clip-path-15">
      <rect id="Rectángulo_405815" data-name="Rectángulo 405815" width="223.936" height="134.998" fill="none"/>
    </clipPath>
    <clipPath id="clip-path-16">
      <rect id="Rectángulo_405816" data-name="Rectángulo 405816" width="223.935" height="129.29" fill="none"/>
    </clipPath>
    <clipPath id="clip-path-17">
      <rect id="Rectángulo_405817" data-name="Rectángulo 405817" width="57.308" height="38.766" fill="none"/>
    </clipPath>
    <clipPath id="clip-path-18">
      <rect id="Rectángulo_405819" data-name="Rectángulo 405819" width="218.316" height="287.922" fill="none"/>
    </clipPath>
    <clipPath id="clip-path-20">
      <rect id="Rectángulo_405820" data-name="Rectángulo 405820" width="220.408" height="127.671" fill="none"/>
    </clipPath>
    <clipPath id="clip-path-21">
      <rect id="Rectángulo_405821" data-name="Rectángulo 405821" width="5.151" height="16.304" fill="none"/>
    </clipPath>
    <clipPath id="clip-path-22">
      <rect id="Rectángulo_405822" data-name="Rectángulo 405822" width="5.366" height="150.852" fill="none"/>
    </clipPath>
    <clipPath id="clip-path-23">
      <rect id="Rectángulo_405824" data-name="Rectángulo 405824" width="96.804" height="217.503" fill="none"/>
    </clipPath>
    <clipPath id="clip-path-25">
      <rect id="Rectángulo_405825" data-name="Rectángulo 405825" width="98.895" height="57.251" fill="none"/>
    </clipPath>
    <clipPath id="clip-path-27">
      <rect id="Rectángulo_405827" data-name="Rectángulo 405827" width="5.366" height="150.853" fill="none"/>
    </clipPath>
    <clipPath id="clip-path-28">
      <rect id="Rectángulo_405828" data-name="Rectángulo 405828" width="33.954" height="21.125" fill="none"/>
    </clipPath>
    <clipPath id="clip-path-29">
      <rect id="Rectángulo_405829" data-name="Rectángulo 405829" width="13.05" height="9.051" fill="none"/>
    </clipPath>
    <clipPath id="clip-path-33">
      <rect id="Rectángulo_405833" data-name="Rectángulo 405833" width="16.075" height="10.763" fill="none"/>
    </clipPath>
    <clipPath id="clip-path-35">
      <rect id="Rectángulo_405835" data-name="Rectángulo 405835" width="16.075" height="10.764" fill="none"/>
    </clipPath>
    <clipPath id="clip-path-36">
      <rect id="Rectángulo_405836" data-name="Rectángulo 405836" width="14.999" height="16.53" fill="none"/>
    </clipPath>
    <clipPath id="clip-path-37">
      <rect id="Rectángulo_405837" data-name="Rectángulo 405837" width="25.031" height="13.693" fill="none"/>
    </clipPath>
  </defs>
  <g id="Grupo_1144953" data-name="Grupo 1144953" clip-path="url(#clip-path)">
    <g id="Grupo_1144952" data-name="Grupo 1144952">
      <g id="Grupo_1144951" data-name="Grupo 1144951" clip-path="url(#clip-path)">
        <path id="Trazado_981180" data-name="Trazado 981180" d="M427.465,209.208c97.788,56.457,97.788,147.994,0,204.453s-256.335,56.458-354.124,0-97.787-148,0-204.453,256.336-56.458,354.123,0" transform="translate(0 9.749)" fill="#f0f0f0"/>
        <path id="Trazado_981181" data-name="Trazado 981181" d="M400.517,353.556c14.511,8.378,14.511,21.962,0,30.341s-38.04,8.377-52.552,0-14.511-21.962,0-30.341,38.04-8.379,52.552,0" transform="translate(19.694 20.289)" fill="#e0e0e0"/>
        <path id="Trazado_981182" data-name="Trazado 981182" d="M55.875,353.79l-41.563-24c-1.467-.847-1.467-2.221,0-3.068L243.382,194.472a5.87,5.87,0,0,1,5.314,0l41.564,24c1.468.847,1.468,2.221,0,3.068L61.189,353.79a5.87,5.87,0,0,1-5.314,0" transform="translate(0.772 11.325)" fill="#e0e0e0"/>
        <path id="Trazado_981183" data-name="Trazado 981183" d="M193.227,315.035l33.466-19.35c3.449-1.992,5.175-4.6,5.175-7.212s.015-4.655.015-4.655L191.609,261a7.366,7.366,0,0,1-3.331-5.771V213.968l-58.454,33.777,0,41.262a7.362,7.362,0,0,0,3.331,5.77l35.089,20.258c6.9,3.984,18.085,3.983,24.985,0" transform="translate(7.585 12.501)" fill="#27debf"/>
        <g id="Grupo_1144848" data-name="Grupo 1144848" transform="translate(137.407 226.469)" opacity="0.5">
          <g id="Grupo_1144847" data-name="Grupo 1144847">
            <g id="Grupo_1144846" data-name="Grupo 1144846" clip-path="url(#clip-path-3)">
              <path id="Trazado_981184" data-name="Trazado 981184" d="M193.227,315.035l33.466-19.35c3.449-1.992,5.175-4.6,5.175-7.212s.015-4.655.015-4.655L191.609,261a7.366,7.366,0,0,1-3.331-5.771V213.968l-58.454,33.777,0,41.262a7.362,7.362,0,0,0,3.331,5.77l35.089,20.258c6.9,3.984,18.085,3.983,24.985,0" transform="translate(-129.822 -213.968)"/>
            </g>
          </g>
        </g>
        <path id="Trazado_981185" data-name="Trazado 981185" d="M143.857,294.8v4.635l-10.713-6.174a7.37,7.37,0,0,1-3.328-5.769V246.238l11.137-6.424c.231,2.827.481,5.75.711,8.6l-7.809,4.519v32.236a7.317,7.317,0,0,0,3.329,5.769Z" transform="translate(7.584 14.011)" fill="#27debf"/>
        <g id="Grupo_1144851" data-name="Grupo 1144851" transform="translate(137.402 253.824)" opacity="0.7">
          <g id="Grupo_1144850" data-name="Grupo 1144850">
            <g id="Grupo_1144849" data-name="Grupo 1144849" clip-path="url(#clip-path-4)">
              <path id="Trazado_981186" data-name="Trazado 981186" d="M143.857,294.8v4.635l-10.713-6.174a7.37,7.37,0,0,1-3.328-5.769V246.238l11.137-6.424c.231,2.827.481,5.75.711,8.6l-7.809,4.519v32.236a7.317,7.317,0,0,0,3.329,5.769Z" transform="translate(-129.817 -239.813)"/>
            </g>
          </g>
        </g>
        <path id="Trazado_981187" data-name="Trazado 981187" d="M133.631,286.314a7.364,7.364,0,0,0,3.332,5.771l31.051,17.927c6.9,3.984,18.087,3.985,24.987,0l33.483-19.349c6.9-3.982,6.9-10.439,0-14.422l-31.068-17.938a7.362,7.362,0,0,1-3.331-5.769V220.295l-58.456,33.778Z" transform="translate(7.807 12.871)" fill="#27debf"/>
        <g id="Grupo_1144854" data-name="Grupo 1144854" transform="translate(141.438 233.167)" opacity="0.3">
          <g id="Grupo_1144853" data-name="Grupo 1144853">
            <g id="Grupo_1144852" data-name="Grupo 1144852" clip-path="url(#clip-path-5)">
              <path id="Trazado_981188" data-name="Trazado 981188" d="M133.631,286.314a7.364,7.364,0,0,0,3.332,5.771l31.051,17.927c6.9,3.984,18.087,3.985,24.987,0l33.483-19.349c6.9-3.982,6.9-10.439,0-14.422l-31.068-17.938a7.362,7.362,0,0,1-3.331-5.769V220.295l-58.456,33.778Z" transform="translate(-133.631 -220.296)"/>
            </g>
          </g>
        </g>
        <g id="Grupo_1144857" data-name="Grupo 1144857" transform="translate(141.438 233.167)" opacity="0.7">
          <g id="Grupo_1144856" data-name="Grupo 1144856">
            <g id="Grupo_1144855" data-name="Grupo 1144855" clip-path="url(#clip-path-6)">
              <path id="Trazado_981189" data-name="Trazado 981189" d="M202.2,262.229v-.005l-6.786-3.917a7.364,7.364,0,0,1-3.331-5.769V220.3l-58.455,33.778v32.242a7.362,7.362,0,0,0,3.331,5.769l6.668,3.851Z" transform="translate(-133.631 -220.296)" fill="#27debf"/>
            </g>
          </g>
        </g>
        <g id="Grupo_1144860" data-name="Grupo 1144860" transform="translate(141.438 233.167)" opacity="0.6">
          <g id="Grupo_1144859" data-name="Grupo 1144859">
            <g id="Grupo_1144858" data-name="Grupo 1144858" clip-path="url(#clip-path-6)">
              <path id="Trazado_981190" data-name="Trazado 981190" d="M202.2,262.229v-.005l-6.786-3.917a7.364,7.364,0,0,1-3.331-5.769V220.3l-58.455,33.778v32.242a7.362,7.362,0,0,0,3.331,5.769l6.668,3.851Z" transform="translate(-133.631 -220.296)"/>
            </g>
          </g>
        </g>
        <path id="Trazado_981191" data-name="Trazado 981191" d="M229.034,279.965v4.655c0,2.615-1.731,5.212-5.174,7.212l-33.472,19.34a25.061,25.061,0,0,1-11.925,2.963V309.5a25.049,25.049,0,0,0,11.925-2.961l33.472-19.359c3.443-1.981,5.174-4.6,5.174-7.213" transform="translate(10.427 16.357)" fill="#27debf"/>
        <g id="Grupo_1144863" data-name="Grupo 1144863" transform="translate(188.891 296.322)" opacity="0.2">
          <g id="Grupo_1144862" data-name="Grupo 1144862">
            <g id="Grupo_1144861" data-name="Grupo 1144861" clip-path="url(#clip-path-8)">
              <path id="Trazado_981192" data-name="Trazado 981192" d="M229.034,279.965v4.655c0,2.615-1.731,5.212-5.174,7.212l-33.472,19.34a25.061,25.061,0,0,1-11.925,2.963V309.5a25.049,25.049,0,0,0,11.925-2.961l33.472-19.359c3.443-1.981,5.174-4.6,5.174-7.213" transform="translate(-178.464 -279.965)"/>
            </g>
          </g>
        </g>
        <path id="Trazado_981193" data-name="Trazado 981193" d="M45.172,343.7a8.93,8.93,0,0,0,8.07-.149L279.3,213.036a9.2,9.2,0,0,0,4.163-7.212V7.955A8.928,8.928,0,0,0,279.56.891a8.934,8.934,0,0,0-8.07.149L45.432,131.555a9.2,9.2,0,0,0-4.164,7.212l0,197.867a8.931,8.931,0,0,0,3.907,7.064" transform="translate(2.411 0)" fill="#27debf"/>
        <g id="Grupo_1144866" data-name="Grupo 1144866" transform="translate(43.677)" opacity="0.3">
          <g id="Grupo_1144865" data-name="Grupo 1144865">
            <g id="Grupo_1144864" data-name="Grupo 1144864" clip-path="url(#clip-path-9)">
              <path id="Trazado_981194" data-name="Trazado 981194" d="M45.172,343.7a8.93,8.93,0,0,0,8.07-.149L279.3,213.036a9.2,9.2,0,0,0,4.163-7.212V7.955A8.928,8.928,0,0,0,279.56.891a8.934,8.934,0,0,0-8.07.149L45.432,131.555a9.2,9.2,0,0,0-4.164,7.212l0,197.867a8.931,8.931,0,0,0,3.907,7.064" transform="translate(-41.266 0)"/>
            </g>
          </g>
        </g>
        <path id="Trazado_981195" data-name="Trazado 981195" d="M52.813,343.269,278.872,212.755a9.2,9.2,0,0,0,4.165-7.212V7.675c0-2.656-1.864-3.732-4.165-2.4L52.816,135.785A9.2,9.2,0,0,0,48.651,143l0,197.868c0,2.655,1.864,3.731,4.164,2.4" transform="translate(2.842 0.275)" fill="#27debf"/>
        <path id="Trazado_981196" data-name="Trazado 981196" d="M52.813,343.269,278.872,212.755a9.2,9.2,0,0,0,4.165-7.212V7.675c0-2.656-1.864-3.732-4.165-2.4L52.816,135.785A9.2,9.2,0,0,0,48.651,143l0,197.868c0,2.655,1.864,3.731,4.164,2.4" transform="translate(2.842 0.275)" fill="#27debf"/>
        <g id="Grupo_1144869" data-name="Grupo 1144869" transform="translate(51.491 4.977)" opacity="0.5">
          <g id="Grupo_1144868" data-name="Grupo 1144868">
            <g id="Grupo_1144867" data-name="Grupo 1144867" clip-path="url(#clip-path-10)">
              <path id="Trazado_981197" data-name="Trazado 981197" d="M52.813,343.269,278.872,212.755a9.2,9.2,0,0,0,4.165-7.212V7.675c0-2.656-1.864-3.732-4.165-2.4L52.816,135.785A9.2,9.2,0,0,0,48.651,143l0,197.868c0,2.655,1.864,3.731,4.164,2.4" transform="translate(-48.648 -4.702)"/>
            </g>
          </g>
        </g>
        <path id="Trazado_981198" data-name="Trazado 981198" d="M52.631,326.5a9,9,0,0,1-7.464-.153,8.943,8.943,0,0,1-3.9-7.079V297.019l7.81,4.521v22.253c0,2.423,1.538,3.519,3.557,2.712" transform="translate(2.411 17.353)" fill="#27debf"/>
        <g id="Grupo_1144872" data-name="Grupo 1144872" transform="translate(43.675 314.372)" opacity="0.7">
          <g id="Grupo_1144871" data-name="Grupo 1144871">
            <g id="Grupo_1144870" data-name="Grupo 1144870" clip-path="url(#clip-path-11)">
              <path id="Trazado_981199" data-name="Trazado 981199" d="M52.631,326.5a9,9,0,0,1-7.464-.153,8.943,8.943,0,0,1-3.9-7.079V297.019l7.81,4.521v22.253c0,2.423,1.538,3.519,3.557,2.712" transform="translate(-41.264 -297.019)"/>
            </g>
          </g>
        </g>
        <path id="Trazado_981200" data-name="Trazado 981200" d="M48.648,308.754v22.253c0,2.655,1.865,3.731,4.164,2.4L278.872,202.9a9.205,9.205,0,0,0,4.164-7.213V173.431Z" transform="translate(2.842 10.133)" fill="#27debf"/>
        <g id="Grupo_1144875" data-name="Grupo 1144875" transform="translate(51.491 183.565)" opacity="0.5">
          <g id="Grupo_1144874" data-name="Grupo 1144874">
            <g id="Grupo_1144873" data-name="Grupo 1144873" clip-path="url(#clip-path-12)">
              <path id="Trazado_981201" data-name="Trazado 981201" d="M48.648,308.754v22.253c0,2.655,1.865,3.731,4.164,2.4L278.872,202.9a9.205,9.205,0,0,0,4.164-7.213V173.431Z" transform="translate(-48.648 -173.432)"/>
            </g>
          </g>
        </g>
        <path id="Trazado_981202" data-name="Trazado 981202" d="M56.028,301.489l0-156.606a5.522,5.522,0,0,1,2.5-4.327L272.289,17.141c1.38-.8,2.5-.15,2.5,1.443l.007,156.609a5.524,5.524,0,0,1-2.5,4.328L58.527,302.931c-1.38.8-2.5.151-2.5-1.443" transform="translate(3.273 0.982)" fill="#fafafa"/>
        <path id="Trazado_981203" data-name="Trazado 981203" d="M159.586,245.912a8.637,8.637,0,0,0-3.908,6.768c0,2.492,1.75,3.5,3.908,2.256a8.637,8.637,0,0,0,3.908-6.768c0-2.492-1.75-3.5-3.908-2.256" transform="translate(9.095 14.336)" fill="#27debf"/>
        <g id="Grupo_1144878" data-name="Grupo 1144878" transform="translate(164.775 259.714)" opacity="0.5">
          <g id="Grupo_1144877" data-name="Grupo 1144877">
            <g id="Grupo_1144876" data-name="Grupo 1144876" clip-path="url(#clip-path-13)">
              <path id="Trazado_981204" data-name="Trazado 981204" d="M159.586,245.912a8.637,8.637,0,0,0-3.908,6.768c0,2.492,1.75,3.5,3.908,2.256a8.637,8.637,0,0,0,3.908-6.768c0-2.492-1.75-3.5-3.908-2.256" transform="translate(-155.679 -245.378)" fill="#fff"/>
            </g>
          </g>
        </g>
        <path id="Trazado_981205" data-name="Trazado 981205" d="M50.3,131.719a8.848,8.848,0,0,0-1.231,4.116V311.46l-7.809-4.521v-175.6a8.616,8.616,0,0,1,1.231-4.116Z" transform="translate(2.411 7.433)" fill="#27debf"/>
        <g id="Grupo_1144881" data-name="Grupo 1144881" transform="translate(43.675 134.652)" opacity="0.7">
          <g id="Grupo_1144880" data-name="Grupo 1144880">
            <g id="Grupo_1144879" data-name="Grupo 1144879" clip-path="url(#clip-path-14)">
              <path id="Trazado_981206" data-name="Trazado 981206" d="M50.3,131.719a8.848,8.848,0,0,0-1.231,4.116V311.46l-7.809-4.521v-175.6a8.616,8.616,0,0,1,1.231-4.116Z" transform="translate(-41.264 -127.219)"/>
            </g>
          </g>
        </g>
        <path id="Trazado_981207" data-name="Trazado 981207" d="M126.5,372.9l56.485,32.7a6.989,6.989,0,0,0,6.328.006L356.187,309.4c1.749-1.009,1.751-2.646,0-3.657L299.706,273.04a6.991,6.991,0,0,0-6.329-.005L126.5,369.248c-1.749,1.009-1.751,2.645,0,3.657" transform="translate(7.314 15.908)" fill="#e0e0e0"/>
        <path id="Trazado_981208" data-name="Trazado 981208" d="M352.565,300.253a2.225,2.225,0,0,0-1.311-1.828l-53.065-30.632a6.988,6.988,0,0,0-6.329,0l-161.92,93.638a2.224,2.224,0,0,0-1.309,1.827c0,.66,0,4.9,0,5.564a2.218,2.218,0,0,0,1.315,1.828l53.038,30.63a7.013,7.013,0,0,0,6.334-.006l161.938-93.489a2.228,2.228,0,0,0,1.311-1.82c0-.664,0-5.052,0-5.713" transform="translate(7.515 15.602)" fill="#27debf"/>
        <g id="Grupo_1144884" data-name="Grupo 1144884" transform="translate(136.145 282.638)" opacity="0.5">
          <g id="Grupo_1144883" data-name="Grupo 1144883">
            <g id="Grupo_1144882" data-name="Grupo 1144882" clip-path="url(#clip-path-15)">
              <path id="Trazado_981209" data-name="Trazado 981209" d="M352.565,300.253a2.225,2.225,0,0,0-1.311-1.828l-53.065-30.632a6.988,6.988,0,0,0-6.329,0l-161.92,93.638a2.224,2.224,0,0,0-1.309,1.827c0,.66,0,4.9,0,5.564a2.218,2.218,0,0,0,1.315,1.828l53.038,30.63a7.013,7.013,0,0,0,6.334-.006l161.938-93.489a2.228,2.228,0,0,0,1.311-1.82c0-.664,0-5.052,0-5.713" transform="translate(-128.63 -267.036)"/>
            </g>
          </g>
        </g>
        <path id="Trazado_981210" data-name="Trazado 981210" d="M182.982,395.574l-53.039-30.49c-1.75-1.007-1.752-2.641,0-3.652l161.92-93.638a6.988,6.988,0,0,1,6.329,0l53.065,30.632c1.749,1.009,1.749,2.645,0,3.655L189.316,395.568a7.013,7.013,0,0,1-6.334.006" transform="translate(7.515 15.602)" fill="#27debf"/>
        <g id="Grupo_1144887" data-name="Grupo 1144887" transform="translate(136.145 282.638)" opacity="0.3">
          <g id="Grupo_1144886" data-name="Grupo 1144886">
            <g id="Grupo_1144885" data-name="Grupo 1144885" clip-path="url(#clip-path-16)">
              <path id="Trazado_981211" data-name="Trazado 981211" d="M182.982,395.574l-53.039-30.49c-1.75-1.007-1.752-2.641,0-3.652l161.92-93.638a6.988,6.988,0,0,1,6.329,0l53.065,30.632c1.749,1.009,1.749,2.645,0,3.655L189.316,395.568a7.013,7.013,0,0,1-6.334.006" transform="translate(-128.63 -267.036)"/>
            </g>
          </g>
        </g>
        <path id="Trazado_981212" data-name="Trazado 981212" d="M185.944,391.016V396.7a6.544,6.544,0,0,1-2.973-.73l-53.02-30.629a2.237,2.237,0,0,1-1.316-1.827v-5.58a2.24,2.24,0,0,0,1.316,1.828l53.02,30.506a6.537,6.537,0,0,0,2.973.743" transform="translate(7.516 20.912)" fill="#27debf"/>
        <g id="Grupo_1144890" data-name="Grupo 1144890" transform="translate(136.152 378.852)" opacity="0.7">
          <g id="Grupo_1144889" data-name="Grupo 1144889">
            <g id="Grupo_1144888" data-name="Grupo 1144888" clip-path="url(#clip-path-17)">
              <path id="Trazado_981213" data-name="Trazado 981213" d="M185.944,391.016V396.7a6.544,6.544,0,0,1-2.973-.73l-53.02-30.629a2.237,2.237,0,0,1-1.316-1.827v-5.58a2.24,2.24,0,0,0,1.316,1.828l53.02,30.506a6.537,6.537,0,0,0,2.973.743" transform="translate(-128.636 -357.939)"/>
            </g>
          </g>
        </g>
        <path id="Trazado_981214" data-name="Trazado 981214" d="M246.772,305.187l6.046,3.489a.81.81,0,0,0,.385.094l5.574-3.1-6.5-3.656Z" transform="translate(14.418 17.645)" fill="#37474f"/>
        <path id="Trazado_981215" data-name="Trazado 981215" d="M253.647,301.22l6.07,3.5a.818.818,0,0,0,.359.077l.225-.014,5.348-3.089-6.5-3.657Z" transform="translate(14.819 17.413)" fill="#37474f"/>
        <path id="Trazado_981216" data-name="Trazado 981216" d="M235.2,311.981l6.068,3.5a.817.817,0,0,0,.356.078l9.023-5.092-6.5-3.657Z" transform="translate(13.742 17.926)" fill="#37474f"/>
        <path id="Trazado_981217" data-name="Trazado 981217" d="M228.329,315.839l6.062,3.5a.8.8,0,0,0,.362.08l5.579-3.1-6.5-3.656Z" transform="translate(13.34 18.267)" fill="#37474f"/>
        <path id="Trazado_981218" data-name="Trazado 981218" d="M197.29,367.959l5.574-3.1-6.5-3.653-5.5,3.174,6.072,3.5a.819.819,0,0,0,.358.077" transform="translate(11.151 21.103)" fill="#37474f"/>
        <path id="Trazado_981219" data-name="Trazado 981219" d="M221.456,319.807l6.035,3.484a.787.787,0,0,0,.392.1l5.576-3.1-6.5-3.657Z" transform="translate(12.938 18.499)" fill="#37474f"/>
        <path id="Trazado_981220" data-name="Trazado 981220" d="M260.045,306.5l-5.5,3.176,6.056,3.5a.8.8,0,0,0,.373.085l5.576-3.105Z" transform="translate(14.872 17.907)" fill="#37474f"/>
        <path id="Trazado_981221" data-name="Trazado 981221" d="M240.886,333.821l5.577-3.1-6.5-3.656-5.5,3.173,6.061,3.5a.792.792,0,0,0,.369.086" transform="translate(13.698 19.109)" fill="#37474f"/>
        <path id="Trazado_981222" data-name="Trazado 981222" d="M267.844,309.287l5.576-3.1-6.506-3.656-5.5,3.176,6.067,3.506a.824.824,0,0,0,.359.077" transform="translate(15.273 17.675)" fill="#37474f"/>
        <path id="Trazado_981223" data-name="Trazado 981223" d="M234.013,337.789l5.577-3.1-6.5-3.656-5.5,3.174,6.037,3.485a.778.778,0,0,0,.392.1" transform="translate(13.297 19.34)" fill="#37474f"/>
        <path id="Trazado_981224" data-name="Trazado 981224" d="M227.143,341.757l5.574-3.1-6.5-3.656-5.5,3.173,6.071,3.505a.833.833,0,0,0,.361.079" transform="translate(12.895 19.572)" fill="#37474f"/>
        <path id="Trazado_981225" data-name="Trazado 981225" d="M254.789,326.342l11.7-6.639-14.717-8.4-6.271,3.618,7.693,4.438a.383.383,0,0,1,.218.319.342.342,0,0,1-.189.282l-4.855,2.8,6.03,3.481a.766.766,0,0,0,.4.1" transform="translate(14.343 18.188)" fill="#37474f"/>
        <path id="Trazado_981226" data-name="Trazado 981226" d="M207.709,327.741l6.065,3.5a.814.814,0,0,0,.362.08l5.578-3.1-6.5-3.657Z" transform="translate(12.135 18.963)" fill="#37474f"/>
        <path id="Trazado_981227" data-name="Trazado 981227" d="M247.756,329.853l5.579-3.1-6.5-3.657-5.5,3.174,6.028,3.48a.782.782,0,0,0,.4.1" transform="translate(14.1 18.877)" fill="#37474f"/>
        <path id="Trazado_981228" data-name="Trazado 981228" d="M169.456,366.091l5.576-3.1-6.5-3.656-5.5,3.176,6.038,3.484a.794.794,0,0,0,.392.1" transform="translate(9.525 20.994)" fill="#37474f"/>
        <path id="Trazado_981229" data-name="Trazado 981229" d="M152.728,359.485,158.813,363a.845.845,0,0,0,.344.07l.225-.014,5.348-3.089-6.5-3.654Z" transform="translate(8.923 20.817)" fill="#37474f"/>
        <path id="Trazado_981230" data-name="Trazado 981230" d="M179.033,369.53l.225-.015,5.348-3.089-6.5-3.653-5.5,3.174,6.071,3.5a.813.813,0,0,0,.358.077" transform="translate(10.084 21.195)" fill="#37474f"/>
        <path id="Trazado_981231" data-name="Trazado 981231" d="M183.545,375.9l5.576-3.1-6.505-3.656-5.5,3.176,6.037,3.484a.794.794,0,0,0,.392.1" transform="translate(10.348 21.567)" fill="#37474f"/>
        <path id="Trazado_981232" data-name="Trazado 981232" d="M159.6,355.516l6.07,3.5a.828.828,0,0,0,.359.078L171.6,356l-6.5-3.654Z" transform="translate(9.325 20.585)" fill="#37474f"/>
        <path id="Trazado_981233" data-name="Trazado 981233" d="M190.419,371.929l5.57-3.105-6.5-3.653-5.5,3.173,6.065,3.5a.826.826,0,0,0,.367.084" transform="translate(10.749 21.335)" fill="#37474f"/>
        <path id="Trazado_981234" data-name="Trazado 981234" d="M180.218,343.612l6.065,3.5a.814.814,0,0,0,.365.08l5.576-3.1-6.5-3.656Z" transform="translate(10.529 19.89)" fill="#37474f"/>
        <path id="Trazado_981235" data-name="Trazado 981235" d="M187.09,339.644l6.051,3.494a.8.8,0,0,0,.381.091l5.574-3.1-6.5-3.656Z" transform="translate(10.931 19.658)" fill="#37474f"/>
        <path id="Trazado_981236" data-name="Trazado 981236" d="M193.964,335.677,200,339.164a.786.786,0,0,0,.392.1l5.577-3.1-6.505-3.656Z" transform="translate(11.332 19.426)" fill="#37474f"/>
        <path id="Trazado_981237" data-name="Trazado 981237" d="M173.345,347.581l6.038,3.485a.773.773,0,0,0,.388.1l5.579-3.1-6.5-3.657Z" transform="translate(10.128 20.122)" fill="#37474f"/>
        <path id="Trazado_981238" data-name="Trazado 981238" d="M200.839,331.711l6.065,3.5a.819.819,0,0,0,.361.079l5.576-3.1-6.506-3.656Z" transform="translate(11.734 19.195)" fill="#37474f"/>
        <path id="Trazado_981239" data-name="Trazado 981239" d="M166.473,351.549l6.065,3.5a.818.818,0,0,0,.366.084l5.575-3.1-6.506-3.656Z" transform="translate(9.726 20.354)" fill="#37474f"/>
        <path id="Trazado_981240" data-name="Trazado 981240" d="M214.581,323.772l6.079,3.512a.829.829,0,0,0,.348.073l5.578-3.1-6.5-3.656Z" transform="translate(12.537 18.731)" fill="#37474f"/>
        <path id="Trazado_981241" data-name="Trazado 981241" d="M231.752,322.828l6.046,3.489a.789.789,0,0,0,.386.093l.223-.015,5.346-3.087-6.5-3.653Z" transform="translate(13.54 18.676)" fill="#37474f"/>
        <path id="Trazado_981242" data-name="Trazado 981242" d="M268.84,292.45l6.043,3.489a.8.8,0,0,0,.383.093l5.577-3.1-6.5-3.656Z" transform="translate(15.707 16.901)" fill="#37474f"/>
        <path id="Trazado_981243" data-name="Trazado 981243" d="M275.712,288.482l6.048,3.487a.76.76,0,0,0,.378.094l5.578-3.1-6.5-3.657Z" transform="translate(16.108 16.669)" fill="#37474f"/>
        <path id="Trazado_981244" data-name="Trazado 981244" d="M224.882,326.8l6.05,3.492a.8.8,0,0,0,.379.09l5.574-3.1-6.5-3.657Z" transform="translate(13.139 18.907)" fill="#37474f"/>
        <path id="Trazado_981245" data-name="Trazado 981245" d="M282.586,284.514,288.628,288a.814.814,0,0,0,.383.093l5.578-3.1-6.5-3.657Z" transform="translate(16.51 16.437)" fill="#37474f"/>
        <path id="Trazado_981246" data-name="Trazado 981246" d="M245.056,322.443l.225-.015,5.348-3.085-6.5-3.656-5.5,3.174,6.047,3.489a.788.788,0,0,0,.385.093" transform="translate(13.942 18.444)" fill="#37474f"/>
        <path id="Trazado_981247" data-name="Trazado 981247" d="M276.6,296.932l6.034,3.48a.765.765,0,0,0,.4.1l5.574-3.1-6.5-3.655Z" transform="translate(16.16 17.163)" fill="#37474f"/>
        <path id="Trazado_981248" data-name="Trazado 981248" d="M290.349,289l6.034,3.48a.777.777,0,0,0,.4.1l5.577-3.1-6.5-3.656Z" transform="translate(16.964 16.699)" fill="#37474f"/>
        <path id="Trazado_981249" data-name="Trazado 981249" d="M289.909,296.549l5.575-3.1-6.5-3.656-5.5,3.174,6.066,3.5a.771.771,0,0,0,.367.086" transform="translate(16.562 16.931)" fill="#37474f"/>
        <path id="Trazado_981250" data-name="Trazado 981250" d="M311.531,293.287a.856.856,0,0,0,.344.07l.225-.014,5.347-3.087-14.719-8.4-5.5,3.175Z" transform="translate(17.365 16.467)" fill="#37474f"/>
        <path id="Trazado_981251" data-name="Trazado 981251" d="M218.007,330.764l6.045,3.489a.787.787,0,0,0,.384.093l.225-.014,5.35-3.088-6.5-3.656Z" transform="translate(12.737 19.139)" fill="#37474f"/>
        <path id="Trazado_981252" data-name="Trazado 981252" d="M297.676,301.032l.227-.015,5.347-3.088-6.5-3.653-5.5,3.174,6.047,3.488a.794.794,0,0,0,.385.094" transform="translate(17.016 17.193)" fill="#37474f"/>
        <path id="Trazado_981253" data-name="Trazado 981253" d="M304.549,297.064l5.577-3.1-6.506-3.653-5.5,3.173,6.029,3.478a.777.777,0,0,0,.4.1" transform="translate(17.417 16.961)" fill="#37474f"/>
        <path id="Trazado_981254" data-name="Trazado 981254" d="M183.644,350.6l6.038,3.483a.788.788,0,0,0,.394.1l5.574-3.1-6.5-3.657Z" transform="translate(10.729 20.298)" fill="#37474f"/>
        <path id="Trazado_981255" data-name="Trazado 981255" d="M169.9,358.54l6.035,3.484a.783.783,0,0,0,.391.1l.225-.014,5.351-3.088-6.5-3.656Z" transform="translate(9.926 20.762)" fill="#37474f"/>
        <path id="Trazado_981256" data-name="Trazado 981256" d="M192.78,361.6l5.575-3.1-6.506-3.656-5.5,3.173,6.076,3.505a.8.8,0,0,0,.356.079" transform="translate(10.887 20.731)" fill="#37474f"/>
        <path id="Trazado_981257" data-name="Trazado 981257" d="M185.9,365.563l5.576-3.1-6.505-3.656-5.5,3.173,6.071,3.505a.816.816,0,0,0,.358.077" transform="translate(10.486 20.963)" fill="#37474f"/>
        <path id="Trazado_981258" data-name="Trazado 981258" d="M199.651,357.627l.224-.015,5.35-3.085-6.5-3.656-5.5,3.174,6.038,3.483a.8.8,0,0,0,.393.1" transform="translate(11.289 20.5)" fill="#37474f"/>
        <path id="Trazado_981259" data-name="Trazado 981259" d="M211.134,334.733l6.053,3.492a.775.775,0,0,0,.377.09l.225-.014,5.347-3.089-6.5-3.654Z" transform="translate(12.335 19.371)" fill="#37474f"/>
        <path id="Trazado_981260" data-name="Trazado 981260" d="M213.4,349.693l5.576-3.1-6.5-3.656-5.5,3.173L213,349.595a.794.794,0,0,0,.392.1" transform="translate(12.092 20.036)" fill="#37474f"/>
        <path id="Trazado_981261" data-name="Trazado 981261" d="M206.526,353.661l5.575-3.1L205.6,346.9l-5.5,3.174,6.071,3.5a.835.835,0,0,0,.362.079" transform="translate(11.69 20.268)" fill="#37474f"/>
        <path id="Trazado_981262" data-name="Trazado 981262" d="M197.389,342.669l6.038,3.483a.785.785,0,0,0,.394.1l5.574-3.1-6.5-3.656Z" transform="translate(11.532 19.835)" fill="#37474f"/>
        <path id="Trazado_981263" data-name="Trazado 981263" d="M176.772,354.573l6.037,3.483a.786.786,0,0,0,.395.1l5.573-3.1-6.5-3.656Z" transform="translate(10.328 20.53)" fill="#37474f"/>
        <path id="Trazado_981264" data-name="Trazado 981264" d="M204.262,338.7l6.045,3.489a.794.794,0,0,0,.386.093l5.574-3.1-6.5-3.656Z" transform="translate(11.934 19.603)" fill="#37474f"/>
        <path id="Trazado_981265" data-name="Trazado 981265" d="M190.519,346.637l6.035,3.484a.791.791,0,0,0,.394.1l.225-.014,5.348-3.089-6.5-3.656Z" transform="translate(11.131 20.067)" fill="#37474f"/>
        <path id="Trazado_981266" data-name="Trazado 981266" d="M220.266,345.725l5.579-3.1-6.5-3.656-5.5,3.174,6.061,3.5a.784.784,0,0,0,.367.085" transform="translate(12.493 19.804)" fill="#37474f"/>
        <path id="Trazado_981267" data-name="Trazado 981267" d="M260.519,297.252l6.071,3.5a.823.823,0,0,0,.358.077l5.574-3.1-6.5-3.656Z" transform="translate(15.221 17.181)" fill="#37474f"/>
        <path id="Trazado_981268" data-name="Trazado 981268" d="M151.355,360.279l-5.5,3.174,6.074,3.5a.809.809,0,0,0,.358.077l.225-.015,5.351-3.088Z" transform="translate(8.521 21.049)" fill="#37474f"/>
        <path id="Trazado_981269" data-name="Trazado 981269" d="M161.8,363.3l-8.182,4.723,6.071,3.506a.823.823,0,0,0,.358.077l.225-.015,8.03-4.635Z" transform="translate(8.975 21.226)" fill="#37474f"/>
        <path id="Trazado_981270" data-name="Trazado 981270" d="M143.078,354.209l-6.652,3.838,6.046,3.489a.8.8,0,0,0,.386.094l6.723-3.764Z" transform="translate(7.971 20.695)" fill="#37474f"/>
        <path id="Trazado_981271" data-name="Trazado 981271" d="M175.808,373.1l-6.649,3.84,6.035,3.484a.794.794,0,0,0,.392.1l6.725-3.767Z" transform="translate(9.883 21.798)" fill="#37474f"/>
        <path id="Trazado_981272" data-name="Trazado 981272" d="M171.484,366.742l-10.1,5.827,6.071,3.505a.817.817,0,0,0,.359.077l.224-.015,9.946-5.742Z" transform="translate(9.429 21.427)" fill="#37474f"/>
        <path id="Trazado_981273" data-name="Trazado 981273" d="M153.8,355.273l5.576-3.1-6.5-3.656-5.5,3.173,6.038,3.488a.778.778,0,0,0,.392.1" transform="translate(8.61 20.362)" fill="#37474f"/>
        <path id="Trazado_981274" data-name="Trazado 981274" d="M176.927,381.479l6.044,3.489a.778.778,0,0,0,.381.093l8.255-4.652-6.5-3.654Z" transform="translate(10.337 22.012)" fill="#37474f"/>
        <path id="Trazado_981275" data-name="Trazado 981275" d="M160.679,351.305l5.574-3.1-6.5-3.656-5.5,3.177,6.068,3.5a.822.822,0,0,0,.36.077" transform="translate(9.012 20.13)" fill="#37474f"/>
        <path id="Trazado_981276" data-name="Trazado 981276" d="M191.157,333.706l.225-.015,5.351-3.088-6.5-3.656-5.5,3.177,6.05,3.492a.786.786,0,0,0,.377.09" transform="translate(10.793 19.102)" fill="#37474f"/>
        <path id="Trazado_981277" data-name="Trazado 981277" d="M198.032,329.738l5.574-3.1-6.5-3.656-5.5,3.177,6.052,3.492a.794.794,0,0,0,.379.09" transform="translate(11.194 18.87)" fill="#37474f"/>
        <path id="Trazado_981278" data-name="Trazado 981278" d="M184.284,337.674l.225-.015,5.351-3.089-6.5-3.656-5.5,3.177,6.037,3.483a.8.8,0,0,0,.392.1" transform="translate(10.391 19.334)" fill="#37474f"/>
        <path id="Trazado_981279" data-name="Trazado 981279" d="M174.422,343.369l.225-.015,5.35-3.089-6.5-3.656-5.5,3.177,6.049,3.492a.794.794,0,0,0,.378.09" transform="translate(9.815 19.666)" fill="#37474f"/>
        <path id="Trazado_981280" data-name="Trazado 981280" d="M167.549,347.337l5.576-3.1-6.5-3.656-5.5,3.176,6.061,3.5a.8.8,0,0,0,.365.081" transform="translate(9.414 19.898)" fill="#37474f"/>
        <path id="Trazado_981281" data-name="Trazado 981281" d="M313.658,302.451l6.081,3.512a.857.857,0,0,0,.344.07l.225-.014,5.351-3.088-6.5-3.656Z" transform="translate(18.325 17.485)" fill="#37474f"/>
        <path id="Trazado_981282" data-name="Trazado 981282" d="M277.842,323.125l6.038,3.482a.76.76,0,0,0,.392.1l5.577-3.1-6.5-3.657Z" transform="translate(16.233 18.693)" fill="#37474f"/>
        <path id="Trazado_981283" data-name="Trazado 981283" d="M299.909,310.62l6.045,3.487a.806.806,0,0,0,.384.094l.225-.014,12.625-7.288-6.5-3.656Z" transform="translate(17.522 17.717)" fill="#37474f"/>
        <path id="Trazado_981284" data-name="Trazado 981284" d="M284.715,319.158l6.033,3.48a.776.776,0,0,0,.4.1l5.575-3.1-6.5-3.657Z" transform="translate(16.634 18.461)" fill="#37474f"/>
        <path id="Trazado_981285" data-name="Trazado 981285" d="M291.589,315.19l6.011,3.468a.764.764,0,0,0,.42.115l5.574-3.1-6.5-3.656Z" transform="translate(17.036 18.229)" fill="#37474f"/>
        <path id="Trazado_981286" data-name="Trazado 981286" d="M204.9,325.77l.225-.015,5.35-3.088-6.5-3.656-5.5,3.177,6.037,3.483a.778.778,0,0,0,.392.1" transform="translate(11.596 18.638)" fill="#37474f"/>
        <path id="Trazado_981287" data-name="Trazado 981287" d="M318.263,290.821,312.76,294l14.3,8.259a.838.838,0,0,0,.346.07l.224-.014,5.346-3.087Z" transform="translate(18.273 16.991)" fill="#37474f"/>
        <path id="Trazado_981288" data-name="Trazado 981288" d="M194.29,371.4l6.035,3.483a.791.791,0,0,0,.391.1l6.723-3.766-6.5-3.657Z" transform="translate(11.351 21.475)" fill="#37474f"/>
        <path id="Trazado_981289" data-name="Trazado 981289" d="M202.248,367.92l6.026,3.478a.769.769,0,0,0,.4.1l.225-.014,41.338-23.863-6.5-3.659Z" transform="translate(11.816 20.096)" fill="#37474f"/>
        <path id="Trazado_981290" data-name="Trazado 981290" d="M204.163,363.991l5.576-3.1-6.5-3.656-5.5,3.173,6.065,3.5a.8.8,0,0,0,.365.082" transform="translate(11.552 20.871)" fill="#37474f"/>
        <path id="Trazado_981291" data-name="Trazado 981291" d="M186.331,376l6.038,3.486a.77.77,0,0,0,.388.1l6.725-3.767-6.5-3.656Z" transform="translate(10.886 21.743)" fill="#37474f"/>
        <path id="Trazado_981292" data-name="Trazado 981292" d="M243.119,343.211l6.046,3.489a.788.788,0,0,0,.385.093l.225-.014,6.5-3.75-6.506-3.656Z" transform="translate(14.204 19.828)" fill="#37474f"/>
        <path id="Trazado_981293" data-name="Trazado 981293" d="M259.036,334.023l6.057,3.5a.815.815,0,0,0,.371.084l.225-.014,6.5-3.752-6.5-3.657Z" transform="translate(15.134 19.291)" fill="#37474f"/>
        <path id="Trazado_981294" data-name="Trazado 981294" d="M251.078,338.616l6.07,3.5a.833.833,0,0,0,.361.08l6.724-3.769-6.506-3.654Z" transform="translate(14.669 19.559)" fill="#37474f"/>
        <path id="Trazado_981295" data-name="Trazado 981295" d="M266.992,329.477l6.046,3.489a.788.788,0,0,0,.385.093l.225-.014,8.027-4.635-6.5-3.657Z" transform="translate(15.599 18.974)" fill="#37474f"/>
        <path id="Trazado_981296" data-name="Trazado 981296" d="M274.716,305.319l.225-.015,5.35-3.088-6.5-3.656-5.5,3.177,6.057,3.5a.8.8,0,0,0,.371.085" transform="translate(15.675 17.443)" fill="#37474f"/>
        <path id="Trazado_981297" data-name="Trazado 981297" d="M283.378,318.257l.225-.015,5.35-3.089-6.5-3.655-5.5,3.173,6.057,3.5a.8.8,0,0,0,.372.085" transform="translate(16.181 18.199)" fill="#37474f"/>
        <path id="Trazado_981298" data-name="Trazado 981298" d="M259.146,332.555l15.144-8.63-6.5-3.656-15.072,8.7,6.075,3.506a.827.827,0,0,0,.356.079" transform="translate(14.765 18.712)" fill="#37474f"/>
        <path id="Trazado_981299" data-name="Trazado 981299" d="M298.571,309.485l.225-.015,5.35-3.092-6.5-3.652-5.5,3.176,6.07,3.5a.824.824,0,0,0,.359.077" transform="translate(17.068 17.687)" fill="#37474f"/>
        <path id="Trazado_981300" data-name="Trazado 981300" d="M305.444,305.517l.224-.015,5.348-3.087-6.5-3.657-5.5,3.177,6.056,3.5a.81.81,0,0,0,.374.085" transform="translate(17.47 17.455)" fill="#37474f"/>
        <path id="Trazado_981301" data-name="Trazado 981301" d="M252.268,336.217l5.58-3.1-6.5-3.656-5.5,3.173,6.044,3.491a.777.777,0,0,0,.382.094" transform="translate(14.363 19.249)" fill="#37474f"/>
        <path id="Trazado_981302" data-name="Trazado 981302" d="M290.8,305l.225-.015,5.349-3.087-6.5-3.654-5.5,3.174L290.4,304.9a.782.782,0,0,0,.4.1" transform="translate(16.614 17.425)" fill="#37474f"/>
        <path id="Trazado_981303" data-name="Trazado 981303" d="M217.908,356.055l5.574-3.1-6.5-3.653-5.5,3.174,6.065,3.5a.8.8,0,0,0,.365.081" transform="translate(12.356 20.408)" fill="#37474f"/>
        <path id="Trazado_981304" data-name="Trazado 981304" d="M245.4,340.185l5.569-3.105-6.5-3.653-5.5,3.174,6.084,3.512a.864.864,0,0,0,.348.072" transform="translate(13.962 19.48)" fill="#37474f"/>
        <path id="Trazado_981305" data-name="Trazado 981305" d="M211.035,360.023l.225-.015,5.347-3.088-6.5-3.653-5.5,3.173,6.072,3.505a.816.816,0,0,0,.358.077" transform="translate(11.954 20.64)" fill="#37474f"/>
        <path id="Trazado_981306" data-name="Trazado 981306" d="M224.782,352.089l5.574-3.1-6.5-3.656-5.5,3.173,6.09,3.512a.817.817,0,0,0,.342.073" transform="translate(12.757 20.176)" fill="#37474f"/>
        <path id="Trazado_981307" data-name="Trazado 981307" d="M231.653,348.119l.225-.015,5.347-3.088-6.5-3.653-5.5,3.174,6.038,3.483a.778.778,0,0,0,.392.1" transform="translate(13.159 19.944)" fill="#37474f"/>
        <path id="Trazado_981308" data-name="Trazado 981308" d="M238.526,344.151l.224-.015,5.351-3.085-6.5-3.656-5.5,3.173,6.072,3.505a.814.814,0,0,0,.359.077" transform="translate(13.56 19.712)" fill="#37474f"/>
        <path id="Trazado_981309" data-name="Trazado 981309" d="M221.64,316.108l5.574-3.1-6.5-3.653-5.5,3.173,6.037,3.484a.789.789,0,0,0,.395.1" transform="translate(12.573 18.074)" fill="#37474f"/>
        <path id="Trazado_981310" data-name="Trazado 981310" d="M312.316,301.549l.225-.015,5.351-3.089-6.506-3.656-5.5,3.177,6.07,3.5a.824.824,0,0,0,.359.077" transform="translate(17.871 17.223)" fill="#37474f"/>
        <path id="Trazado_981311" data-name="Trazado 981311" d="M235.385,308.172l5.574-3.1-6.5-3.653-5.5,3.174,6.037,3.483a.789.789,0,0,0,.395.1" transform="translate(13.377 17.61)" fill="#37474f"/>
        <path id="Trazado_981312" data-name="Trazado 981312" d="M250.649,299.359l5.574-3.1-6.5-3.656-5.5,3.176,6.046,3.49a.8.8,0,0,0,.385.093" transform="translate(14.268 17.095)" fill="#37474f"/>
        <path id="Trazado_981313" data-name="Trazado 981313" d="M243.777,303.327l5.573-3.1-6.5-3.656-5.5,3.177,6.046,3.489a.8.8,0,0,0,.386.093" transform="translate(13.867 17.327)" fill="#37474f"/>
        <path id="Trazado_981314" data-name="Trazado 981314" d="M214.767,320.076l5.574-3.1-6.5-3.656-5.5,3.177,6.05,3.492a.794.794,0,0,0,.379.09" transform="translate(12.172 18.305)" fill="#37474f"/>
        <path id="Trazado_981315" data-name="Trazado 981315" d="M228.512,312.14l.224-.015,5.349-3.088-6.5-3.653-5.5,3.174,6.038,3.483a.783.783,0,0,0,.394.1" transform="translate(12.975 17.842)" fill="#37474f"/>
        <path id="Trazado_981316" data-name="Trazado 981316" d="M257.523,295.391l5.573-3.1-6.5-3.656-5.5,3.177,6.046,3.487a.794.794,0,0,0,.386.094" transform="translate(14.67 16.863)" fill="#37474f"/>
        <path id="Trazado_981317" data-name="Trazado 981317" d="M284.3,277.438l5.572-3.105-3.535-1.908-5.507,3.178,3.1,1.749a.822.822,0,0,0,.375.087" transform="translate(16.408 15.916)" fill="#37474f"/>
        <path id="Trazado_981318" data-name="Trazado 981318" d="M295.885,284.128l5.576-3.1-6.5-3.657-5.5,3.177,6.041,3.487a.8.8,0,0,0,.385.094" transform="translate(16.911 16.205)" fill="#37474f"/>
        <path id="Trazado_981319" data-name="Trazado 981319" d="M263.682,289.34l.227-.015,5.344-3.087-3.532-1.909-5.5,3.178,3.079,1.74a.788.788,0,0,0,.385.093" transform="translate(15.203 16.612)" fill="#37474f"/>
        <path id="Trazado_981320" data-name="Trazado 981320" d="M270.555,285.372l.225-.015,5.344-3.087-3.531-1.909-5.5,3.18,3.109,1.755a.819.819,0,0,0,.358.077" transform="translate(15.605 16.38)" fill="#37474f"/>
        <path id="Trazado_981321" data-name="Trazado 981321" d="M277.427,281.4l5.57-3.1-3.532-1.908-5.5,3.178,3.106,1.756a.838.838,0,0,0,.358.077" transform="translate(16.006 16.148)" fill="#37474f"/>
        <g id="Grupo_1144896" data-name="Grupo 1144896" transform="translate(83.396 21.133)" opacity="0.8">
          <g id="Grupo_1144895" data-name="Grupo 1144895">
            <g id="Grupo_1144894" data-name="Grupo 1144894" clip-path="url(#clip-path-18)">
              <path id="Trazado_981322" data-name="Trazado 981322" d="M297.109,22.29V179.419a7.218,7.218,0,0,1-3.266,5.655L82.059,307.577a2.1,2.1,0,0,1-1.082.31,1.875,1.875,0,0,1-.417-.053,1.3,1.3,0,0,1-.279-.1c-.063-.033-.117-.065-.17-.1l-.194-.129a1.245,1.245,0,0,1-.181-.161,2.537,2.537,0,0,1-.6-.856,4.081,4.081,0,0,1-.343-1.65V148.51a7.233,7.233,0,0,1,3.266-5.655L293.843,20.405a2.369,2.369,0,0,1,2.2-.278,1.408,1.408,0,0,1,.278.161l.021.021a1.028,1.028,0,0,1,.215.214.526.526,0,0,1,.1.119.568.568,0,0,1,.107.171,1.466,1.466,0,0,1,.193.417,1.152,1.152,0,0,1,.075.289c.011.022.021.043.011.065a1.359,1.359,0,0,1,.054.3c.011.128.021.267.021.406" transform="translate(-78.792 -19.966)" fill="#455a64"/>
              <path id="Trazado_981323" data-name="Trazado 981323" d="M295.291,21.024a.689.689,0,0,1,.315.07l.036.017,0,0,.061.047.089.117,0,.005.078.117a.546.546,0,0,1,.028.048l-.018.032.1.308,0,.034.023.047.01.028c.006.031.007.061.009.076.009.1.018.21.018.32V179.42a6.152,6.152,0,0,1-2.738,4.739L81.534,306.658a1.072,1.072,0,0,1-.55.171h-.006a1.054,1.054,0,0,1-.221-.037.779.779,0,0,1-.079-.046l-.134-.09-.024-.019-.015-.017-.054-.05a1.545,1.545,0,0,1-.347-.506,3.031,3.031,0,0,1-.251-1.219V148.511a6.149,6.149,0,0,1,2.738-4.74L294.366,21.326a1.964,1.964,0,0,1,.925-.3m0-1.058a2.973,2.973,0,0,0-1.449.44L82.059,142.855a7.23,7.23,0,0,0-3.266,5.655V304.846a4.073,4.073,0,0,0,.343,1.649,2.565,2.565,0,0,0,.6.857,1.319,1.319,0,0,0,.182.161l.193.128c.054.033.108.065.171.1a1.185,1.185,0,0,0,.278.1,1.825,1.825,0,0,0,.418.054h.046a2.124,2.124,0,0,0,1.036-.311l211.782-122.5a7.218,7.218,0,0,0,3.267-5.655V22.291c0-.14-.011-.279-.021-.407a1.427,1.427,0,0,0-.054-.3.072.072,0,0,0-.011-.065,1.152,1.152,0,0,0-.075-.289,1.472,1.472,0,0,0-.193-.418.564.564,0,0,0-.108-.171.516.516,0,0,0-.1-.117,1,1,0,0,0-.215-.214l-.021-.022a1.458,1.458,0,0,0-.278-.16,1.728,1.728,0,0,0-.747-.162" transform="translate(-78.792 -19.966)" fill="#455a64"/>
              <g id="Grupo_1144893" data-name="Grupo 1144893" opacity="0.7">
                <g id="Grupo_1144892" data-name="Grupo 1144892">
                  <g id="Grupo_1144891" data-name="Grupo 1144891" clip-path="url(#clip-path-18)">
                    <path id="Trazado_981324" data-name="Trazado 981324" d="M297.109,22.29V179.419a7.218,7.218,0,0,1-3.266,5.655L82.059,307.577a2.1,2.1,0,0,1-1.082.31,1.875,1.875,0,0,1-.417-.053,1.3,1.3,0,0,1-.279-.1c-.063-.033-.117-.065-.17-.1l-.194-.129a1.245,1.245,0,0,1-.181-.161,2.537,2.537,0,0,1-.6-.856,4.081,4.081,0,0,1-.343-1.65V148.51a7.233,7.233,0,0,1,3.266-5.655L293.843,20.405a2.369,2.369,0,0,1,2.2-.278,1.408,1.408,0,0,1,.278.161l.021.021a1.028,1.028,0,0,1,.215.214.526.526,0,0,1,.1.119.568.568,0,0,1,.107.171,1.466,1.466,0,0,1,.193.417,1.152,1.152,0,0,1,.075.289c.011.022.021.043.011.065a1.359,1.359,0,0,1,.054.3c.011.128.021.267.021.406" transform="translate(-78.792 -19.966)" fill="#455a64"/>
                  </g>
                </g>
              </g>
            </g>
          </g>
        </g>
        <path id="Trazado_981325" data-name="Trazado 981325" d="M296.268,20.257a2.369,2.369,0,0,0-2.2.278L82.289,142.985a7.233,7.233,0,0,0-3.266,5.655v10.668l-4.166-2.443V146.273a7.2,7.2,0,0,1,3.256-5.645L289.906,18.179a2.272,2.272,0,0,1,2.368-.193c.588.354,3.3,1.906,3.994,2.27" transform="translate(4.373 1.036)" fill="#27debf"/>
        <path id="Trazado_981326" data-name="Trazado 981326" d="M297.1,22.269c-.013-2.061-1.466-2.895-3.26-1.859L82.057,142.859a7.212,7.212,0,0,0-3.262,5.651l0,10.672,218.3-126.2Z" transform="translate(4.604 1.166)" fill="#27debf"/>
        <g id="Grupo_1144899" data-name="Grupo 1144899" transform="translate(80.22 18.774)" opacity="0.4">
          <g id="Grupo_1144898" data-name="Grupo 1144898">
            <g id="Grupo_1144897" data-name="Grupo 1144897" clip-path="url(#clip-path-20)">
              <path id="Trazado_981327" data-name="Trazado 981327" d="M294.015,20.539,82.237,142.987a6.7,6.7,0,0,0-2.3,2.423l-4.146-2.4a6.52,6.52,0,0,1,2.27-2.383L289.848,18.177a2.3,2.3,0,0,1,2.371-.194c.585.359,3.294,1.9,3.982,2.268a2.358,2.358,0,0,0-2.186.287" transform="translate(-75.792 -17.738)" fill="#fff"/>
            </g>
          </g>
        </g>
        <g id="Grupo_1144902" data-name="Grupo 1144902" transform="translate(79.225 144.044)" opacity="0.15">
          <g id="Grupo_1144901" data-name="Grupo 1144901">
            <g id="Grupo_1144900" data-name="Grupo 1144900" clip-path="url(#clip-path-21)">
              <path id="Trazado_981328" data-name="Trazado 981328" d="M74.852,149.965l0-10.608a6.727,6.727,0,0,1,.993-3.263L80,138.484a6.6,6.6,0,0,0-.975,3.243V152.4Z" transform="translate(-74.852 -136.093)"/>
            </g>
          </g>
        </g>
        <path id="Trazado_981329" data-name="Trazado 981329" d="M266.584,33.631a4.862,4.862,0,0,0-1.844,3.9c0,1.568.826,2.362,1.844,1.774a4.862,4.862,0,0,0,1.844-3.9c0-1.568-.826-2.361-1.844-1.774" transform="translate(15.467 1.954)" fill="#455a64"/>
        <path id="Trazado_981330" data-name="Trazado 981330" d="M272.855,30a4.862,4.862,0,0,0-1.844,3.9c0,1.568.826,2.362,1.844,1.774a4.862,4.862,0,0,0,1.844-3.9c0-1.568-.826-2.361-1.844-1.774" transform="translate(15.834 1.742)" fill="#455a64"/>
        <path id="Trazado_981331" data-name="Trazado 981331" d="M279.126,26.377a4.862,4.862,0,0,0-1.844,3.9c0,1.568.826,2.362,1.844,1.774a4.862,4.862,0,0,0,1.844-3.9c0-1.568-.826-2.361-1.844-1.774" transform="translate(16.2 1.53)" fill="#455a64"/>
        <g id="Grupo_1144905" data-name="Grupo 1144905" transform="translate(79.23 157.902)" opacity="0.9">
          <g id="Grupo_1144904" data-name="Grupo 1144904">
            <g id="Grupo_1144903" data-name="Grupo 1144903" clip-path="url(#clip-path-22)">
              <path id="Trazado_981332" data-name="Trazado 981332" d="M80.222,300.038c-.117-.075-.257-.15-.407-.236-.3-.182-.642-.375-1.007-.567l-.011-.011c-.182-.107-.364-.214-.546-.31a.075.075,0,0,0-.043-.022c-.3-.171-.588-.343-.856-.492s-.525-.3-.718-.407-.343-.193-.408-.224a1.863,1.863,0,0,1-.557-.45,2.486,2.486,0,0,1-.439-.665,4.046,4.046,0,0,1-.375-1.724V149.185l4.167,2.443V297.3a4.877,4.877,0,0,0,.342,1.649,2.578,2.578,0,0,0,.6.856.529.529,0,0,0,.182.161.242.242,0,0,0,.075.075" transform="translate(-74.856 -149.186)" fill="#37474f"/>
            </g>
          </g>
        </g>
        <path id="Trazado_981333" data-name="Trazado 981333" d="M147.376,203.192s-7.71-4.985-8.707-5.017l-21.9-.688,8.706,4.634v.383Z" transform="translate(6.822 11.538)" fill="#263238"/>
        <path id="Trazado_981334" data-name="Trazado 981334" d="M110.2,220.4V206.681L147.758,160v18.2l-21.9,26.108v.382l21.9.689v18.2Z" transform="translate(6.438 9.348)" fill="#fafafa"/>
        <path id="Trazado_981335" data-name="Trazado 981335" d="M148.239,160.275l-8.707-5.017-37.557,46.683,8.707,5.017Z" transform="translate(5.958 9.071)" fill="#455a64"/>
        <path id="Trazado_981336" data-name="Trazado 981336" d="M101.976,199.365v13.718l8.707,5.017V204.381Z" transform="translate(5.958 11.648)" fill="#37474f"/>
        <path id="Trazado_981337" data-name="Trazado 981337" d="M167.807,217.421l-11.659,6.731,29.063-106.524,11.243-6.49Z" transform="translate(9.123 6.493)" fill="#fafafa"/>
        <path id="Trazado_981338" data-name="Trazado 981338" d="M195.331,111.414l-8.707-5.017-11.243,6.491,8.707,5.017Z" transform="translate(10.247 6.216)" fill="#455a64"/>
        <path id="Trazado_981339" data-name="Trazado 981339" d="M176.987,112.53l8.707,5.017L156.629,224.07l-8.707-5.016Z" transform="translate(8.642 6.575)" fill="#37474f"/>
        <path id="Trazado_981340" data-name="Trazado 981340" d="M196.468,165.525l8.707,5.016,21.9-26.361-8.707-5.017Z" transform="translate(11.479 8.131)" fill="#263238"/>
        <path id="Trazado_981341" data-name="Trazado 981341" d="M226.594,144.953l-21.9-.817V125.93l37.556,3.316v13.718L204.694,189.52v-18.2l21.9-25.978Z" transform="translate(11.959 7.357)" fill="#fafafa"/>
        <path id="Trazado_981342" data-name="Trazado 981342" d="M196.468,121.191l8.707,5.017,37.556,3.315-8.706-5.016Z" transform="translate(11.479 7.081)" fill="#455a64"/>
        <path id="Trazado_981343" data-name="Trazado 981343" d="M205.174,126.207v18.2l-8.707-5.016V121.19" transform="translate(11.479 7.08)" fill="#37474f"/>
        <path id="Trazado_981344" data-name="Trazado 981344" d="M196.468,164.07l8.707,5.016v18.206l-8.707-5.017Z" transform="translate(11.479 9.586)" fill="#37474f"/>
        <g id="Grupo_1144911" data-name="Grupo 1144911" transform="translate(273.286 48.231)" opacity="0.8">
          <g id="Grupo_1144910" data-name="Grupo 1144910">
            <g id="Grupo_1144909" data-name="Grupo 1144909" clip-path="url(#clip-path-23)">
              <path id="Trazado_981345" data-name="Trazado 981345" d="M355,47.894V205.023a7.215,7.215,0,0,1-3.266,5.655l-90.27,52.083a2.1,2.1,0,0,1-1.082.31,1.869,1.869,0,0,1-.417-.053,1.281,1.281,0,0,1-.279-.1c-.063-.033-.117-.065-.171-.1l-.193-.128a1.311,1.311,0,0,1-.182-.161,2.56,2.56,0,0,1-.6-.856,4.081,4.081,0,0,1-.343-1.65V103.693a7.233,7.233,0,0,1,3.266-5.655l90.27-52.029a2.369,2.369,0,0,1,2.2-.278,1.41,1.41,0,0,1,.278.161l.022.021a1.049,1.049,0,0,1,.214.214.525.525,0,0,1,.1.119.568.568,0,0,1,.107.171,1.465,1.465,0,0,1,.193.417,1.11,1.11,0,0,1,.075.289c.011.022.021.043.011.065a1.3,1.3,0,0,1,.054.3c.011.129.021.268.021.407" transform="translate(-258.201 -45.569)" fill="#455a64"/>
              <path id="Trazado_981346" data-name="Trazado 981346" d="M353.186,46.627a.7.7,0,0,1,.316.07l.036.017v0l.06.046.09.12v0l.079.119c.01.015.018.03.026.046l-.018.032.1.311,0,.031.022.043.011.034c.006.03.007.06.01.074.008.1.018.211.018.321V205.023a6.154,6.154,0,0,1-2.737,4.739l-90.266,52.08a1.071,1.071,0,0,1-.55.171h-.006a1.025,1.025,0,0,1-.222-.038.79.79,0,0,1-.078-.044l-.135-.09-.024-.019-.014-.018-.054-.049a1.513,1.513,0,0,1-.347-.506,3.032,3.032,0,0,1-.252-1.219V103.692A6.15,6.15,0,0,1,262,98.955l90.265-52.026a1.964,1.964,0,0,1,.925-.3m0-1.058a2.973,2.973,0,0,0-1.449.44L261.468,98.038a7.23,7.23,0,0,0-3.267,5.654V260.029a4.09,4.09,0,0,0,.343,1.649,2.583,2.583,0,0,0,.6.857,1.323,1.323,0,0,0,.182.161l.193.128c.054.032.107.065.171.1a1.187,1.187,0,0,0,.278.1,1.828,1.828,0,0,0,.418.054h.046a2.124,2.124,0,0,0,1.036-.311l90.269-52.082A7.218,7.218,0,0,0,355,205.023V47.894c0-.14-.011-.279-.021-.407a1.427,1.427,0,0,0-.054-.3.072.072,0,0,0-.011-.065,1.152,1.152,0,0,0-.075-.289,1.472,1.472,0,0,0-.193-.418.564.564,0,0,0-.108-.171.493.493,0,0,0-.1-.117.975.975,0,0,0-.214-.214l-.021-.022a1.521,1.521,0,0,0-.278-.161,1.743,1.743,0,0,0-.747-.161" transform="translate(-258.201 -45.569)" fill="#455a64"/>
              <g id="Grupo_1144908" data-name="Grupo 1144908" opacity="0.8">
                <g id="Grupo_1144907" data-name="Grupo 1144907">
                  <g id="Grupo_1144906" data-name="Grupo 1144906" clip-path="url(#clip-path-23)">
                    <path id="Trazado_981347" data-name="Trazado 981347" d="M355,47.894V205.023a7.215,7.215,0,0,1-3.266,5.655l-90.27,52.083a2.1,2.1,0,0,1-1.082.31,1.869,1.869,0,0,1-.417-.053,1.281,1.281,0,0,1-.279-.1c-.063-.033-.117-.065-.171-.1l-.193-.128a1.311,1.311,0,0,1-.182-.161,2.56,2.56,0,0,1-.6-.856,4.081,4.081,0,0,1-.343-1.65V103.693a7.233,7.233,0,0,1,3.266-5.655l90.27-52.029a2.369,2.369,0,0,1,2.2-.278,1.41,1.41,0,0,1,.278.161l.022.021a1.049,1.049,0,0,1,.214.214.525.525,0,0,1,.1.119.568.568,0,0,1,.107.171,1.465,1.465,0,0,1,.193.417,1.11,1.11,0,0,1,.075.289c.011.022.021.043.011.065a1.3,1.3,0,0,1,.054.3c.011.129.021.268.021.407" transform="translate(-258.201 -45.569)" fill="#455a64"/>
                  </g>
                </g>
              </g>
            </g>
          </g>
        </g>
        <path id="Trazado_981348" data-name="Trazado 981348" d="M354.163,45.861a2.369,2.369,0,0,0-2.2.278L261.7,98.168a7.233,7.233,0,0,0-3.266,5.655V114.49l-4.166-2.442V101.457a7.2,7.2,0,0,1,3.256-5.645L347.8,43.783a2.272,2.272,0,0,1,2.368-.193c.588.354,3.3,1.906,3.994,2.27" transform="translate(14.855 2.532)" fill="#27debf"/>
        <path id="Trazado_981349" data-name="Trazado 981349" d="M355,47.872c-.014-2.061-1.467-2.895-3.261-1.859L261.465,98.042a7.212,7.212,0,0,0-3.262,5.651l0,10.672L355,58.581Z" transform="translate(15.085 2.662)" fill="#27debf"/>
        <g id="Grupo_1144914" data-name="Grupo 1144914" transform="translate(270.111 45.873)" opacity="0.4">
          <g id="Grupo_1144913" data-name="Grupo 1144913">
            <g id="Grupo_1144912" data-name="Grupo 1144912" clip-path="url(#clip-path-25)">
              <path id="Trazado_981350" data-name="Trazado 981350" d="M351.91,46.143,261.645,98.171a6.707,6.707,0,0,0-2.3,2.422l-4.146-2.4a6.519,6.519,0,0,1,2.27-2.383l90.272-52.028a2.3,2.3,0,0,1,2.371-.194c.585.359,3.294,1.9,3.982,2.268a2.358,2.358,0,0,0-2.186.287" transform="translate(-255.201 -43.341)" fill="#fff"/>
            </g>
          </g>
        </g>
        <g id="Grupo_1144917" data-name="Grupo 1144917" transform="translate(269.115 100.723)" opacity="0.15">
          <g id="Grupo_1144916" data-name="Grupo 1144916">
            <g id="Grupo_1144915" data-name="Grupo 1144915" clip-path="url(#clip-path-21)">
              <path id="Trazado_981351" data-name="Trazado 981351" d="M254.26,109.035l0-10.609a6.727,6.727,0,0,1,.993-3.262l4.156,2.39a6.6,6.6,0,0,0-.975,3.243v10.671Z" transform="translate(-254.26 -95.163)"/>
            </g>
          </g>
        </g>
        <path id="Trazado_981352" data-name="Trazado 981352" d="M331.187,59.234a4.862,4.862,0,0,0-1.844,3.9c0,1.568.826,2.362,1.844,1.774a4.862,4.862,0,0,0,1.844-3.9c0-1.568-.826-2.361-1.844-1.774" transform="translate(19.242 3.449)" fill="#455a64"/>
        <path id="Trazado_981353" data-name="Trazado 981353" d="M337.458,55.607a4.862,4.862,0,0,0-1.844,3.9c0,1.568.826,2.362,1.844,1.774a4.862,4.862,0,0,0,1.844-3.9c0-1.568-.826-2.361-1.844-1.774" transform="translate(19.608 3.237)" fill="#455a64"/>
        <path id="Trazado_981354" data-name="Trazado 981354" d="M343.729,51.98a4.862,4.862,0,0,0-1.844,3.9c0,1.568.826,2.362,1.844,1.774a4.862,4.862,0,0,0,1.844-3.9c0-1.568-.826-2.361-1.844-1.774" transform="translate(19.975 3.026)" fill="#455a64"/>
        <g id="Grupo_1144920" data-name="Grupo 1144920" transform="translate(269.12 114.581)" opacity="0.9">
          <g id="Grupo_1144919" data-name="Grupo 1144919">
            <g id="Grupo_1144918" data-name="Grupo 1144918" clip-path="url(#clip-path-27)">
              <path id="Trazado_981355" data-name="Trazado 981355" d="M259.631,259.109c-.117-.075-.257-.15-.407-.236-.3-.182-.642-.375-1.007-.567l-.011-.011c-.182-.107-.364-.214-.546-.31a.075.075,0,0,0-.042-.022c-.3-.171-.59-.343-.857-.492s-.525-.3-.718-.407-.343-.193-.408-.224a1.831,1.831,0,0,1-.556-.45,2.463,2.463,0,0,1-.44-.665,4.045,4.045,0,0,1-.375-1.724V108.256l4.167,2.442v145.67a4.851,4.851,0,0,0,.343,1.649,2.549,2.549,0,0,0,.6.856.528.528,0,0,0,.182.161.242.242,0,0,0,.075.075" transform="translate(-254.265 -108.256)" fill="#37474f"/>
            </g>
          </g>
        </g>
        <path id="Trazado_981356" data-name="Trazado 981356" d="M265.777,119.254a1.3,1.3,0,0,1,.166-.61l2.347-4.855a.47.47,0,0,1,.106-.143l.06-.044a.142.142,0,0,1,.184.014.32.32,0,0,1,.077.238v1.632a2.1,2.1,0,0,1-.049.5,2.369,2.369,0,0,1-.166.445L267.265,119l1.237,1.137a.623.623,0,0,1,.166.252,1.456,1.456,0,0,1,.049.449v1.631a.779.779,0,0,1-.077.329.509.509,0,0,1-.184.225l-.06.025a.113.113,0,0,1-.106-.021l-2.347-2.146a.485.485,0,0,1-.166-.417Z" transform="translate(15.528 6.636)" fill="#27debf"/>
        <path id="Trazado_981357" data-name="Trazado 981357" d="M274.106,107.514a2.425,2.425,0,0,1,.178-.478.853.853,0,0,1,.345-.373l.881-.509a.142.142,0,0,1,.185.013.323.323,0,0,1,.076.239.829.829,0,0,1-.023.179l-4.022,17.148a2.248,2.248,0,0,1-.167.463.861.861,0,0,1-.357.39l-.846.488a.14.14,0,0,1-.184-.013.321.321,0,0,1-.077-.24.828.828,0,0,1,.023-.178Z" transform="translate(15.78 6.2)" fill="#27debf"/>
        <path id="Trazado_981358" data-name="Trazado 981358" d="M279.927,112.217a1.3,1.3,0,0,1-.166.609l-2.345,4.854a.474.474,0,0,1-.107.145c-.032.024-.052.039-.059.043a.142.142,0,0,1-.185-.013.326.326,0,0,1-.076-.24v-1.63a2.157,2.157,0,0,1,.048-.5,2.392,2.392,0,0,1,.166-.445l1.238-2.566-1.238-1.137a.634.634,0,0,1-.166-.252,1.5,1.5,0,0,1-.048-.449V109a.769.769,0,0,1,.076-.328.5.5,0,0,1,.185-.225c.007,0,.027-.013.059-.025a.118.118,0,0,1,.107.02l2.345,2.146a.487.487,0,0,1,.166.418Z" transform="translate(16.183 6.334)" fill="#27debf"/>
        <path id="Trazado_981359" data-name="Trazado 981359" d="M286.007,110.944a.177.177,0,0,1,.228.016.4.4,0,0,1,.094.293v1.8a.955.955,0,0,1-.094.4.624.624,0,0,1-.228.277l-1.106.638a.173.173,0,0,1-.226-.015.4.4,0,0,1-.1-.294v-1.8a.937.937,0,0,1,.1-.4.6.6,0,0,1,.226-.277Z" transform="translate(16.626 6.48)" fill="#27debf"/>
        <path id="Trazado_981360" data-name="Trazado 981360" d="M289.5,108.924a.174.174,0,0,1,.227.016.392.392,0,0,1,.094.293v1.8a.939.939,0,0,1-.094.4.616.616,0,0,1-.227.277l-1.107.638a.172.172,0,0,1-.227-.016.391.391,0,0,1-.1-.293v-1.8a.937.937,0,0,1,.1-.4.6.6,0,0,1,.227-.277Z" transform="translate(16.831 6.362)" fill="#27debf"/>
        <path id="Trazado_981361" data-name="Trazado 981361" d="M293,106.906a.175.175,0,0,1,.226.016.392.392,0,0,1,.1.293v1.8a.94.94,0,0,1-.1.4.616.616,0,0,1-.226.277l-1.107.638a.171.171,0,0,1-.225-.016.391.391,0,0,1-.1-.293v-1.8a.937.937,0,0,1,.1-.4.6.6,0,0,1,.225-.277Z" transform="translate(17.035 6.244)" fill="#27debf"/>
        <path id="Trazado_981362" data-name="Trazado 981362" d="M266.774,133.05l54.238-31.315c.64-.369,1.159-.107,1.159.587a2.487,2.487,0,0,1-1.159,1.925l-54.238,31.313c-.64.37-1.159.107-1.159-.586a2.486,2.486,0,0,1,1.159-1.925" transform="translate(15.518 5.934)" fill="#27debf"/>
        <path id="Trazado_981363" data-name="Trazado 981363" d="M283.215,152.035l54.238-31.315c.64-.369,1.159-.107,1.159.587a2.487,2.487,0,0,1-1.159,1.925l-54.238,31.313c-.64.369-1.159.107-1.159-.586a2.486,2.486,0,0,1,1.159-1.925" transform="translate(16.479 7.043)" fill="#e0e0e0"/>
        <path id="Trazado_981364" data-name="Trazado 981364" d="M283.215,160.625l25.96-14.977c.64-.369,1.159-.107,1.159.586a2.486,2.486,0,0,1-1.159,1.925l-25.96,14.977c-.64.37-1.159.107-1.159-.586a2.486,2.486,0,0,1,1.159-1.925" transform="translate(16.479 8.5)" fill="#e0e0e0"/>
        <path id="Trazado_981365" data-name="Trazado 981365" d="M283.215,170.118l25.96-14.977c.64-.369,1.159-.107,1.159.586a2.486,2.486,0,0,1-1.159,1.925l-25.96,14.977c-.64.369-1.159.107-1.159-.586a2.486,2.486,0,0,1,1.159-1.925" transform="translate(16.479 9.054)" fill="#e0e0e0"/>
        <path id="Trazado_981366" data-name="Trazado 981366" d="M322.264,99.975l21.609-12.522c.64-.369,1.159-.107,1.159.586a2.484,2.484,0,0,1-1.159,1.925l-21.609,12.522c-.64.37-1.159.107-1.159-.586a2.486,2.486,0,0,1,1.159-1.925" transform="translate(18.76 5.1)" fill="#27debf"/>
        <path id="Trazado_981367" data-name="Trazado 981367" d="M266.774,237.457l54.238-31.315c.64-.369,1.159-.107,1.159.586a2.484,2.484,0,0,1-1.159,1.925l-54.238,31.315c-.64.369-1.159.107-1.159-.586a2.486,2.486,0,0,1,1.159-1.925" transform="translate(15.518 12.034)" fill="#27debf"/>
        <path id="Trazado_981368" data-name="Trazado 981368" d="M322.264,204.382l21.609-12.522c.64-.369,1.159-.107,1.159.586a2.484,2.484,0,0,1-1.159,1.925l-21.609,12.522c-.64.369-1.159.107-1.159-.586a2.486,2.486,0,0,1,1.159-1.925" transform="translate(18.76 11.2)" fill="#27debf"/>
        <path id="Trazado_981369" data-name="Trazado 981369" d="M322.264,175.956l21.609-12.522c.64-.369,1.159-.107,1.159.586a2.484,2.484,0,0,1-1.159,1.925l-21.609,12.522c-.64.37-1.159.107-1.159-.586a2.486,2.486,0,0,1,1.159-1.925" transform="translate(18.76 9.539)" fill="#27debf"/>
        <path id="Trazado_981370" data-name="Trazado 981370" d="M322.264,185.446l21.609-12.522c.64-.369,1.159-.107,1.159.586a2.484,2.484,0,0,1-1.159,1.925l-21.609,12.522c-.64.369-1.159.107-1.159-.586a2.486,2.486,0,0,1,1.159-1.925" transform="translate(18.76 10.093)" fill="#27debf"/>
        <path id="Trazado_981371" data-name="Trazado 981371" d="M266.774,227.975l54.238-31.315c.64-.369,1.159-.107,1.159.587a2.487,2.487,0,0,1-1.159,1.925l-54.238,31.314c-.64.37-1.159.107-1.159-.586a2.486,2.486,0,0,1,1.159-1.925" transform="translate(15.518 11.48)" fill="#f5f5f5"/>
        <path id="Trazado_981372" data-name="Trazado 981372" d="M304.855,185.674,317,178.665c.64-.369,1.159-.107,1.159.586A2.486,2.486,0,0,1,317,181.177l-12.141,7.009c-.64.37-1.159.107-1.159-.586a2.486,2.486,0,0,1,1.159-1.925" transform="translate(17.743 10.429)" fill="#27debf"/>
        <path id="Trazado_981373" data-name="Trazado 981373" d="M266.774,141.844l31.635-18.278c.64-.37,1.16-.108,1.16.586a2.489,2.489,0,0,1-1.16,1.925l-31.635,18.278c-.64.369-1.159.107-1.159-.586a2.486,2.486,0,0,1,1.159-1.925" transform="translate(15.518 7.209)" fill="#27debf"/>
        <g id="Grupo_1144923" data-name="Grupo 1144923" transform="translate(281.133 130.609)" opacity="0.6">
          <g id="Grupo_1144922" data-name="Grupo 1144922">
            <g id="Grupo_1144921" data-name="Grupo 1144921" clip-path="url(#clip-path-28)">
              <path id="Trazado_981374" data-name="Trazado 981374" d="M266.774,141.844l31.635-18.278c.64-.37,1.16-.108,1.16.586a2.489,2.489,0,0,1-1.16,1.925l-31.635,18.278c-.64.369-1.159.107-1.159-.586a2.486,2.486,0,0,1,1.159-1.925" transform="translate(-265.615 -123.399)" fill="#fff"/>
            </g>
          </g>
        </g>
        <path id="Trazado_981375" data-name="Trazado 981375" d="M266.774,150.653l10.732-6.2c.64-.37,1.16-.107,1.16.586a2.487,2.487,0,0,1-1.16,1.925l-10.732,6.2c-.64.369-1.159.107-1.159-.586a2.486,2.486,0,0,1,1.159-1.925" transform="translate(15.518 8.43)" fill="#27debf"/>
        <g id="Grupo_1144926" data-name="Grupo 1144926" transform="translate(281.133 152.711)" opacity="0.6">
          <g id="Grupo_1144925" data-name="Grupo 1144925">
            <g id="Grupo_1144924" data-name="Grupo 1144924" clip-path="url(#clip-path-29)">
              <path id="Trazado_981376" data-name="Trazado 981376" d="M266.774,150.653l10.732-6.2c.64-.37,1.16-.107,1.16.586a2.487,2.487,0,0,1-1.16,1.925l-10.732,6.2c-.64.369-1.159.107-1.159-.586a2.486,2.486,0,0,1,1.159-1.925" transform="translate(-265.615 -144.281)" fill="#fff"/>
            </g>
          </g>
        </g>
        <path id="Trazado_981377" data-name="Trazado 981377" d="M266.774,160.145l10.732-6.2c.64-.37,1.16-.107,1.16.586a2.487,2.487,0,0,1-1.16,1.925l-10.732,6.2c-.64.37-1.159.107-1.159-.586a2.486,2.486,0,0,1,1.159-1.925" transform="translate(15.518 8.984)" fill="#27debf"/>
        <g id="Grupo_1144929" data-name="Grupo 1144929" transform="translate(281.133 162.757)" opacity="0.6">
          <g id="Grupo_1144928" data-name="Grupo 1144928">
            <g id="Grupo_1144927" data-name="Grupo 1144927" clip-path="url(#clip-path-29)">
              <path id="Trazado_981378" data-name="Trazado 981378" d="M266.774,160.145l10.732-6.2c.64-.37,1.16-.107,1.16.586a2.487,2.487,0,0,1-1.16,1.925l-10.732,6.2c-.64.37-1.159.107-1.159-.586a2.486,2.486,0,0,1,1.159-1.925" transform="translate(-265.615 -153.773)" fill="#fff"/>
            </g>
          </g>
        </g>
        <path id="Trazado_981379" data-name="Trazado 981379" d="M266.774,169.637l10.732-6.2c.64-.37,1.16-.107,1.16.586a2.487,2.487,0,0,1-1.16,1.925l-10.732,6.2c-.64.37-1.159.107-1.159-.586a2.486,2.486,0,0,1,1.159-1.925" transform="translate(15.518 9.539)" fill="#27debf"/>
        <g id="Grupo_1144932" data-name="Grupo 1144932" transform="translate(281.133 172.804)" opacity="0.6">
          <g id="Grupo_1144931" data-name="Grupo 1144931">
            <g id="Grupo_1144930" data-name="Grupo 1144930" clip-path="url(#clip-path-29)">
              <path id="Trazado_981380" data-name="Trazado 981380" d="M266.774,169.637l10.732-6.2c.64-.37,1.16-.107,1.16.586a2.487,2.487,0,0,1-1.16,1.925l-10.732,6.2c-.64.37-1.159.107-1.159-.586a2.486,2.486,0,0,1,1.159-1.925" transform="translate(-265.615 -163.265)" fill="#fff"/>
            </g>
          </g>
        </g>
        <path id="Trazado_981381" data-name="Trazado 981381" d="M266.774,179.129l10.732-6.2c.64-.37,1.16-.107,1.16.586a2.487,2.487,0,0,1-1.16,1.925l-10.732,6.2c-.64.369-1.159.107-1.159-.586a2.486,2.486,0,0,1,1.159-1.925" transform="translate(15.518 10.093)" fill="#27debf"/>
        <g id="Grupo_1144935" data-name="Grupo 1144935" transform="translate(281.133 182.85)" opacity="0.6">
          <g id="Grupo_1144934" data-name="Grupo 1144934">
            <g id="Grupo_1144933" data-name="Grupo 1144933" clip-path="url(#clip-path-29)">
              <path id="Trazado_981382" data-name="Trazado 981382" d="M266.774,179.129l10.732-6.2c.64-.37,1.16-.107,1.16.586a2.487,2.487,0,0,1-1.16,1.925l-10.732,6.2c-.64.369-1.159.107-1.159-.586a2.486,2.486,0,0,1,1.159-1.925" transform="translate(-265.615 -172.757)" fill="#fff"/>
            </g>
          </g>
        </g>
        <path id="Trazado_981383" data-name="Trazado 981383" d="M300.909,121.551l13.757-7.917c.64-.369,1.159-.107,1.159.586a2.484,2.484,0,0,1-1.159,1.925l-13.757,7.917c-.64.37-1.159.107-1.159-.586a2.486,2.486,0,0,1,1.159-1.925" transform="translate(17.513 6.629)" fill="#27debf"/>
        <g id="Grupo_1144938" data-name="Grupo 1144938" transform="translate(317.263 120.096)" opacity="0.6">
          <g id="Grupo_1144937" data-name="Grupo 1144937">
            <g id="Grupo_1144936" data-name="Grupo 1144936" clip-path="url(#clip-path-33)">
              <path id="Trazado_981384" data-name="Trazado 981384" d="M300.909,121.551l13.757-7.917c.64-.369,1.159-.107,1.159.586a2.484,2.484,0,0,1-1.159,1.925l-13.757,7.917c-.64.37-1.159.107-1.159-.586a2.486,2.486,0,0,1,1.159-1.925" transform="translate(-299.75 -113.467)" fill="#fff"/>
            </g>
          </g>
        </g>
        <path id="Trazado_981385" data-name="Trazado 981385" d="M295.547,172.659l31.635-18.278c.641-.37,1.16-.107,1.16.586a2.484,2.484,0,0,1-1.16,1.925l-31.635,18.278c-.64.37-1.159.107-1.159-.586a2.486,2.486,0,0,1,1.159-1.925" transform="translate(17.2 9.01)" fill="#f5f5f5"/>
        <path id="Trazado_981386" data-name="Trazado 981386" d="M312.791,172.233l31.635-18.278c.641-.37,1.16-.107,1.16.586a2.484,2.484,0,0,1-1.16,1.925l-31.635,18.278c-.64.37-1.159.107-1.159-.586a2.486,2.486,0,0,1,1.159-1.925" transform="translate(18.207 8.985)" fill="#f5f5f5"/>
        <path id="Trazado_981387" data-name="Trazado 981387" d="M329.682,152.366l13.757-7.917c.64-.369,1.159-.107,1.159.586a2.486,2.486,0,0,1-1.159,1.925l-13.757,7.917c-.64.369-1.159.107-1.159-.586a2.486,2.486,0,0,1,1.159-1.925" transform="translate(19.194 8.43)" fill="#f5f5f5"/>
        <path id="Trazado_981388" data-name="Trazado 981388" d="M283.215,141.827l31.635-18.278c.64-.37,1.16-.107,1.16.586a2.487,2.487,0,0,1-1.16,1.925l-31.635,18.278c-.64.369-1.159.107-1.159-.586a2.486,2.486,0,0,1,1.159-1.925" transform="translate(16.479 7.209)" fill="#27debf"/>
        <g id="Grupo_1144941" data-name="Grupo 1144941" transform="translate(298.535 130.59)" opacity="0.6">
          <g id="Grupo_1144940" data-name="Grupo 1144940">
            <g id="Grupo_1144939" data-name="Grupo 1144939" clip-path="url(#clip-path-28)">
              <path id="Trazado_981389" data-name="Trazado 981389" d="M283.215,141.827l31.635-18.278c.64-.37,1.16-.107,1.16.586a2.487,2.487,0,0,1-1.16,1.925l-31.635,18.278c-.64.369-1.159.107-1.159-.586a2.486,2.486,0,0,1,1.159-1.925" transform="translate(-282.056 -123.381)" fill="#fff"/>
            </g>
          </g>
        </g>
        <path id="Trazado_981390" data-name="Trazado 981390" d="M317.35,121.533l13.756-7.917c.641-.369,1.16-.107,1.16.586a2.484,2.484,0,0,1-1.16,1.925l-13.756,7.917c-.64.369-1.159.107-1.159-.586a2.486,2.486,0,0,1,1.159-1.925" transform="translate(18.473 6.628)" fill="#27debf"/>
        <g id="Grupo_1144944" data-name="Grupo 1144944" transform="translate(334.664 120.077)" opacity="0.6">
          <g id="Grupo_1144943" data-name="Grupo 1144943">
            <g id="Grupo_1144942" data-name="Grupo 1144942" clip-path="url(#clip-path-35)">
              <path id="Trazado_981391" data-name="Trazado 981391" d="M317.35,121.533l13.756-7.917c.641-.369,1.16-.107,1.16.586a2.484,2.484,0,0,1-1.16,1.925l-13.756,7.917c-.64.369-1.159.107-1.159-.586a2.486,2.486,0,0,1,1.159-1.925" transform="translate(-316.191 -113.449)" fill="#fff"/>
            </g>
          </g>
        </g>
        <path id="Trazado_981392" data-name="Trazado 981392" d="M380.646,233.623c4.136.8,6.021,2.213,8.374,7.951s6.546,19.713,7.524,23.547c.438,1.718-10.435,17.087-9.968,16.86.143-.07-4.245-7.412-4.245-7.412l5.336-10.21-3.8-9.284Z" transform="translate(22.239 13.649)" fill="#ffa8a7"/>
        <path id="Trazado_981393" data-name="Trazado 981393" d="M379.374,233.714s3.775-.676,6.272,1.4,2.879,3.455,4.565,7.717,4.464,13.118,4.464,13.118-.8,4.767-8.557,5.7l-6.651-14.978s-2.315-9.057-.093-12.96" transform="translate(22.109 13.649)" fill="#27debf"/>
        <path id="Trazado_981394" data-name="Trazado 981394" d="M371.965,349.813a8.915,8.915,0,0,0,.243,4.032c.749,2.122,2.333,3.094,3.262,3.931a16,16,0,0,1,2.708,3.282,13.782,13.782,0,0,0,2.827,3.533c.883.766,3.368.834,4.567.33s1.6-.955,1.526-2.869c-.072-1.87-5.877-2.567-5.877-2.567Z" transform="translate(21.725 20.438)" fill="#455a64"/>
        <path id="Trazado_981395" data-name="Trazado 981395" d="M386.331,356.469c.5.187.62,1.13.7,3.006.057,1.418.653,3.5-1.3,4.39a4.774,4.774,0,0,1-5.161-1.1c-1.329-1.669-2.228-3.138-4.126-5.175-1.646-1.767-3.359-2.362-4.09-5.893-.47-2.27-.1-3.211,1.427-3.862,2.1-.894,5.4,2.03,7.047,2.49,1.417.4,5.014,5.953,5.509,6.14" transform="translate(21.743 20.312)" fill="#27debf"/>
        <g id="Grupo_1144947" data-name="Grupo 1144947" transform="translate(393.9 367.982)" opacity="0.2">
          <g id="Grupo_1144946" data-name="Grupo 1144946">
            <g id="Grupo_1144945" data-name="Grupo 1144945" clip-path="url(#clip-path-36)">
              <path id="Trazado_981396" data-name="Trazado 981396" d="M386.331,356.469c.5.187.62,1.13.7,3.006.057,1.418.653,3.5-1.3,4.39a4.774,4.774,0,0,1-5.161-1.1c-1.329-1.669-2.228-3.138-4.126-5.175-1.646-1.767-3.359-2.362-4.09-5.893-.47-2.27-.1-3.211,1.427-3.862,2.1-.894,5.4,2.03,7.047,2.49,1.417.4,5.014,5.953,5.509,6.14" transform="translate(-372.157 -347.669)"/>
            </g>
          </g>
        </g>
        <path id="Trazado_981397" data-name="Trazado 981397" d="M380.613,350.187a2.958,2.958,0,0,1-.279-.1,5.416,5.416,0,0,0-4.548,2.983c-.28.618.583,1.1,1.1.618a5.781,5.781,0,0,1,4.545-2.965,2.409,2.409,0,0,0-.814-.539" transform="translate(21.952 20.454)" fill="#fafafa"/>
        <path id="Trazado_981398" data-name="Trazado 981398" d="M381.863,351.192a5.375,5.375,0,0,0-4.225,2.957c-.28.618.583,1.1,1.1.618a5.537,5.537,0,0,1,3.789-2.83c-.225-.266-.448-.519-.662-.745" transform="translate(22.06 20.518)" fill="#fafafa"/>
        <path id="Trazado_981399" data-name="Trazado 981399" d="M347.021,377.345c-.321,1.59.254,2.418,2.305,3.6a11.442,11.442,0,0,0,8.656.605c3.386-.985,5.005-2.463,6.412-2.815s4.889-.382,6.28-.789,1.37-1.121,1.362-2.793Z" transform="translate(20.27 21.918)" fill="#455a64"/>
        <path id="Trazado_981400" data-name="Trazado 981400" d="M370.665,367.542s.66,2,1.017,3.753c.283,1.392.688,3.718.2,4.765s-2.389,1.723-5.336,1.7c-1.909-.014-4.885,1.282-6.922,2.418a10.585,10.585,0,0,1-6.611.918c-2.623-.308-5.34-1.829-5.764-2.915s-.533-1.9,5.647-4.534c.057-.024,7.172-2.649,10.163-5.949Z" transform="translate(20.278 21.474)" fill="#27debf"/>
        <g id="Grupo_1144950" data-name="Grupo 1144950" transform="translate(367.357 389.015)" opacity="0.2">
          <g id="Grupo_1144949" data-name="Grupo 1144949">
            <g id="Grupo_1144948" data-name="Grupo 1144948" clip-path="url(#clip-path-37)">
              <path id="Trazado_981401" data-name="Trazado 981401" d="M370.665,367.542s.66,2,1.017,3.753c.283,1.392.688,3.718.2,4.765s-2.389,1.723-5.336,1.7c-1.909-.014-4.885,1.282-6.922,2.418a10.585,10.585,0,0,1-6.611.918c-2.623-.308-5.34-1.829-5.764-2.915s-.533-1.9,5.647-4.534c.057-.024,7.172-2.649,10.163-5.949Z" transform="translate(-347.079 -367.542)"/>
            </g>
          </g>
        </g>
        <path id="Trazado_981402" data-name="Trazado 981402" d="M358.787,380.26s-.529-5.307-4.843-6.825c-3.9-1.372-7.305,1.518-6.925,4.029.255,1.69,5,5.527,11.769,2.8" transform="translate(20.273 21.797)" fill="#fafafa"/>
        <path id="Trazado_981403" data-name="Trazado 981403" d="M354.591,372.518a5.029,5.029,0,0,1,2.945,1.307c1.244,1.047,1.28,1.742,1.28,1.742a.654.654,0,0,0,1.125-.538s-.29-2.677-3.812-3.225a1.435,1.435,0,0,0-1.537.713" transform="translate(20.717 21.721)" fill="#fafafa"/>
        <path id="Trazado_981404" data-name="Trazado 981404" d="M356.922,371.4a4.41,4.41,0,0,1,2.973,1.181c1.244,1.047,1.251,1.868,1.251,1.868a.654.654,0,0,0,1.125-.538s-.29-2.677-3.812-3.225a1.435,1.435,0,0,0-1.537.713" transform="translate(20.853 21.656)" fill="#fafafa"/>
        <path id="Trazado_981405" data-name="Trazado 981405" d="M359.234,370.087a4.411,4.411,0,0,1,3.046.975c1.312.96,1.376,1.779,1.376,1.779a.654.654,0,0,0,1.086-.614s-.471-2.65-4.023-2.956a1.435,1.435,0,0,0-1.485.816" transform="translate(20.988 21.574)" fill="#fafafa"/>
        <path id="Trazado_981406" data-name="Trazado 981406" d="M385.892,353.117v3.6a5.635,5.635,0,0,1-5.817.158c-.1-.222-.393-3.757-.393-3.757Z" transform="translate(22.183 20.631)" fill="#ffa8a7"/>
        <path id="Trazado_981407" data-name="Trazado 981407" d="M369.783,365.19s-.008,1.708,0,2.685-1.144,2.431-4.129,2.324c-2.1-.075-3.561-.638-3.477-2.365v-2.489Z" transform="translate(21.16 21.336)" fill="#ffa8a7"/>
        <path id="Trazado_981408" data-name="Trazado 981408" d="M391.078,327.613c-.195-7.593-1.756-10.925-1.756-10.925s.581-9.379,1.843-20.863c1.921-17.482,1.037-20.87-2.412-28.735,0,0-29.426-2.983-30.325,9.246-1.118,15.231-1.25,46.209-.846,51.589s.4.409,1.705,11.3c1.033,8.613,3.17,31.871,3.17,31.871a8.076,8.076,0,0,0,7.607-.156s2.406-28.459,2.154-34.667a70.2,70.2,0,0,0-.739-9.51s3.441-24.54,3.973-28.491c0,0,.479,7.071.884,12.451s.37,9.713,1.5,20.842c.888,8.729,3.042,27.574,3.042,27.574a7.226,7.226,0,0,0,6.418-.472s3.935-24.912,3.778-31.056" transform="translate(20.879 15.586)" fill="#455a64"/>
        <path id="Trazado_981409" data-name="Trazado 981409" d="M373.326,354.331s.164-4.2,5.845-4.787l.326.184a4.9,4.9,0,0,0-2.794-2.158,3.867,3.867,0,0,0-4.371,1.256c-.993,1.277.014,4.686.995,5.5" transform="translate(21.73 20.295)" fill="#fafafa"/>
        <path id="Trazado_981410" data-name="Trazado 981410" d="M366.405,230l1.382,11.371,10-.9-1.143-12.622Z" transform="translate(21.407 13.312)" fill="#ffa8a7"/>
        <path id="Trazado_981411" data-name="Trazado 981411" d="M388.067,239.125c-1.1-2.991-3.617-6.125-7.46-5.411-1,.185-1.882.331-2.824.522-.087,2.619-5.023,3.975-9.944,2.386q-2.22.637-4.063,1.3c-3.518,1.256-4.933,7.1-5.011,16.88s-1.452,29.413-1.452,29.413,7.4,3.928,21.247,1.418,13.6-7.216,13.6-7.216-.277-5.736-6.518-15.369c5.3-14.1,4.051-19.478,2.42-23.917" transform="translate(20.876 13.649)" fill="#37474f"/>
        <path id="Trazado_981412" data-name="Trazado 981412" d="M359.428,216.986a8.771,8.771,0,0,1,.753-8.453c3.356-5.27,9.826-6.169,17.494-4.113a13.6,13.6,0,0,1,9.59,12.348c.367,5.622-15.313,9.769-14.954,13.621Z" transform="translate(20.956 11.884)" fill="#263238"/>
        <path id="Trazado_981413" data-name="Trazado 981413" d="M359.171,218.253s-2.127,3.412-1.829,3.76a5.319,5.319,0,0,0,1.719.686Z" transform="translate(20.876 12.751)" fill="#f28f8f"/>
        <path id="Trazado_981414" data-name="Trazado 981414" d="M365.571,208.1c-2.125,1.172-5.8,3.331-6.54,11.3-.763,8.178,1.127,10.962,2.267,12,.771.7,4.649.857,6.65.177,2.505-.853,7.905-3.706,10.359-7.982,2.885-5.032,3.331-11.646-.223-14.138a13.023,13.023,0,0,0-12.513-1.356" transform="translate(20.966 12.099)" fill="#ffa8a7"/>
        <path id="Trazado_981415" data-name="Trazado 981415" d="M365.59,217.906a8.1,8.1,0,0,1-5.189-6.535c-.8-5.189,5.678-7.386,5.678-7.386Z" transform="translate(21.052 11.918)" fill="#263238"/>
        <path id="Trazado_981416" data-name="Trazado 981416" d="M364.639,208.558s-1.679,7.487.7,12.126c0,0,1.239-2.937,3.756-2.172,2.534.771,2.394,4.126.465,5.89a3.741,3.741,0,0,1-3.872.931,16.806,16.806,0,0,0,3.74,5.648s7.451,3.321,13.9-3.962c5.855-6.609,4.766-18.135-4.2-20.854s-14.493,2.392-14.493,2.392" transform="translate(21.27 11.999)" fill="#263238"/>
        <path id="Trazado_981417" data-name="Trazado 981417" d="M394.34,237.6h0a10.176,10.176,0,0,1-10.177-10.176v-17.04a10.177,10.177,0,0,1,10.177,10.176Z" transform="translate(22.445 12.292)" fill="#263238"/>
        <path id="Trazado_981418" data-name="Trazado 981418" d="M385.3,208.3a1.757,1.757,0,0,0-1.136,2.21l3.346-1.074a1.756,1.756,0,0,0-2.21-1.136" transform="translate(22.44 12.165)" fill="#263238"/>
        <path id="Trazado_981419" data-name="Trazado 981419" d="M340.021,255.362c-1.451-1.658-1.691-5.32-3.626-7.839-1.888-2.461-1.58-5.058-2.794-3.928-1.3,1.208-.307,5.26-.307,5.26s-2.25,4.177-2.442,6.314,5.466,7.506,5.466,7.506Z" transform="translate(19.33 14.216)" fill="#ffa8a7"/>
        <path id="Trazado_981420" data-name="Trazado 981420" d="M334.221,248.341s-2.29,3.2-12.609-.98c-2.849-1.156-.926,4.971,2.569,7.508,3.235,2.35,7.284,3.077,10.521,5.269.007-.312-.481-11.8-.481-11.8" transform="translate(18.71 14.444)" fill="#ffa8a7"/>
        <path id="Trazado_981421" data-name="Trazado 981421" d="M365.953,237.4c-2.939,1.023-5.511,2.207-8.255,7.361-3.525,6.624-9.934,19.6-9.934,19.6l-7.987-8.647s-1.162-1.638-3.325,1.935-1.207,4.561-1.207,4.561,9.293,12.447,11,14.032,4.508.352,6.336-2.139,11.285-19.618,11.285-19.618,6.241-10.82,2.087-17.083" transform="translate(19.574 13.87)" fill="#ffa8a7"/>
        <path id="Trazado_981422" data-name="Trazado 981422" d="M366.486,236.954a11.242,11.242,0,0,0-8.958,5.957c-3.513,6.356-7.213,13.526-7.213,13.526s2.544,6.142,9.039,6.611c.012-.633,5.316-10.05,7.312-14.087s1.806-10.193-.179-12.007" transform="translate(20.467 13.844)" fill="#27debf"/>
        <path id="Trazado_981423" data-name="Trazado 981423" d="M374.454,297.051l.557-5.948a22.455,22.455,0,0,0,8.978-3.4s-1.91,3.063-7.157,4.458l-1.184,5.795-.309,11.543Z" transform="translate(21.877 16.809)" fill="#37474f"/>
      </g>
    </g>
  </g>
</svg>
