<svg id="Grupo_1145482" data-name="Grupo 1145482" xmlns="http://www.w3.org/2000/svg" xmlns:xlink="http://www.w3.org/1999/xlink" width="566.258" height="462.793" viewBox="0 0 566.258 462.793">
  <defs>
    <clipPath id="clip-path">
      <rect id="Rectángulo_406096" data-name="Rectángulo 406096" width="566.258" height="462.793" fill="none"/>
    </clipPath>
    <clipPath id="clip-path-3">
      <rect id="Rectángulo_406034" data-name="Rectángulo 406034" width="498.404" height="462.793" fill="none"/>
    </clipPath>
    <clipPath id="clip-path-4">
      <rect id="Rectángulo_406035" data-name="Rectángulo 406035" width="367.747" height="268.201" fill="none"/>
    </clipPath>
    <clipPath id="clip-path-5">
      <rect id="Rectángulo_406036" data-name="Rectángulo 406036" width="191.544" height="174.455" fill="none"/>
    </clipPath>
    <clipPath id="clip-path-6">
      <rect id="Rectángulo_406063" data-name="Rectángulo 406063" width="100.656" height="7.799" fill="none"/>
    </clipPath>
    <clipPath id="clip-path-7">
      <rect id="Rectángulo_406065" data-name="Rectángulo 406065" width="58.152" height="7.799" fill="none"/>
    </clipPath>
    <clipPath id="clip-path-8">
      <rect id="Rectángulo_406067" data-name="Rectángulo 406067" width="33.874" height="7.799" fill="none"/>
    </clipPath>
    <clipPath id="clip-path-9">
      <rect id="Rectángulo_406069" data-name="Rectángulo 406069" width="55.744" height="7.799" fill="none"/>
    </clipPath>
    <clipPath id="clip-path-10">
      <rect id="Rectángulo_406071" data-name="Rectángulo 406071" width="86.896" height="7.799" fill="none"/>
    </clipPath>
    <clipPath id="clip-path-12">
      <rect id="Rectángulo_406075" data-name="Rectángulo 406075" width="40.571" height="7.799" fill="none"/>
    </clipPath>
    <clipPath id="clip-path-13">
      <rect id="Rectángulo_406077" data-name="Rectángulo 406077" width="65.687" height="7.799" fill="none"/>
    </clipPath>
    <clipPath id="clip-path-14">
      <rect id="Rectángulo_406079" data-name="Rectángulo 406079" width="79.64" height="7.799" fill="none"/>
    </clipPath>
    <clipPath id="clip-path-16">
      <rect id="Rectángulo_406085" data-name="Rectángulo 406085" width="43.655" height="131.128" fill="none"/>
    </clipPath>
    <clipPath id="clip-path-17">
      <rect id="Rectángulo_406086" data-name="Rectángulo 406086" width="93.368" height="145.982" fill="none"/>
    </clipPath>
    <clipPath id="clip-path-18">
      <rect id="Rectángulo_406087" data-name="Rectángulo 406087" width="46.021" height="134.566" fill="none"/>
    </clipPath>
    <clipPath id="clip-path-19">
      <rect id="Rectángulo_406088" data-name="Rectángulo 406088" width="66.042" height="66.351" fill="none"/>
    </clipPath>
    <clipPath id="clip-path-20">
      <rect id="Rectángulo_406089" data-name="Rectángulo 406089" width="52.168" height="19.17" fill="none"/>
    </clipPath>
    <clipPath id="clip-path-21">
      <rect id="Rectángulo_406090" data-name="Rectángulo 406090" width="37.452" height="12.079" fill="none"/>
    </clipPath>
    <clipPath id="clip-path-22">
      <rect id="Rectángulo_406093" data-name="Rectángulo 406093" width="120.391" height="68.541" fill="none"/>
    </clipPath>
  </defs>
  <g id="Grupo_1145481" data-name="Grupo 1145481" clip-path="url(#clip-path)">
    <g id="Grupo_1145480" data-name="Grupo 1145480">
      <g id="Grupo_1145479" data-name="Grupo 1145479" clip-path="url(#clip-path)">
        <path id="Trazado_982295" data-name="Trazado 982295" d="M532.779,269.6a411.367,411.367,0,0,0,17.98-114.809c.629-40.064-3.722-83.393-30.244-113.427C494.575,11.99,452.952,1.952,413.8.251c-15.86-.689-32.052-.228-47.107,4.8-30.4,10.16-51.712,37.106-78.676,54.439C235.959,92.956,165.622,89,115.577,125.4a143.853,143.853,0,0,0-33,34.148C46.094,211.8,43.247,284.194,71.089,341.524s83.851,98.918,145.737,114.148S345.512,460.93,402.851,433.1c66.841-32.438,108.455-94.535,129.928-163.5" transform="translate(15.443 0)" fill="#60ffc8"/>
        <g id="Grupo_1145421" data-name="Grupo 1145421" transform="translate(67.854)" opacity="0.7">
          <g id="Grupo_1145420" data-name="Grupo 1145420">
            <g id="Grupo_1145419" data-name="Grupo 1145419" clip-path="url(#clip-path-3)">
              <path id="Trazado_982296" data-name="Trazado 982296" d="M532.779,269.6a411.367,411.367,0,0,0,17.98-114.809c.629-40.064-3.722-83.393-30.244-113.427C494.575,11.99,452.952,1.952,413.8.251c-15.86-.689-32.052-.228-47.107,4.8-30.4,10.16-51.712,37.106-78.676,54.439C235.959,92.956,165.622,89,115.577,125.4a143.853,143.853,0,0,0-33,34.148C46.094,211.8,43.247,284.194,71.089,341.524s83.851,98.918,145.737,114.148S345.512,460.93,402.851,433.1c66.841-32.438,108.455-94.535,129.928-163.5" transform="translate(-52.411 0)" fill="#fff"/>
            </g>
          </g>
        </g>
        <path id="Trazado_982297" data-name="Trazado 982297" d="M438.146,25.223V287.416a14.114,14.114,0,0,1-14.125,14.112H74.322A14.114,14.114,0,0,1,60.21,287.416V25.223A14.114,14.114,0,0,1,74.322,11.1h349.7a14.117,14.117,0,0,1,14.125,14.125" transform="translate(17.741 3.27)" fill="#fff"/>
        <path id="Trazado_982298" data-name="Trazado 982298" d="M435.827,28.268V282.357A14.114,14.114,0,0,1,421.7,296.469H72a14.011,14.011,0,0,1-3.923-.557Z" transform="translate(20.06 8.329)" fill="#322d38"/>
        <g id="Grupo_1145424" data-name="Grupo 1145424" transform="translate(88.14 36.597)" opacity="0.9">
          <g id="Grupo_1145423" data-name="Grupo 1145423">
            <g id="Grupo_1145422" data-name="Grupo 1145422" clip-path="url(#clip-path-4)">
              <path id="Trazado_982299" data-name="Trazado 982299" d="M435.827,28.268V282.357A14.114,14.114,0,0,1,421.7,296.469H72a14.011,14.011,0,0,1-3.923-.557Z" transform="translate(-68.08 -28.268)" fill="#fff"/>
            </g>
          </g>
        </g>
        <path id="Trazado_982300" data-name="Trazado 982300" d="M323.338,163.35l19.044-8.6-4.065-22.786-20.986-1.683a86.385,86.385,0,0,0-10.551-19.808l6.59-11.16,4.221-7.159L301.251,75.935,282.945,86.927a89.7,89.7,0,0,0-35.02-14.435l-5.269-20.973H219.507l-5.425,21.129a95.839,95.839,0,0,0-20.727,6.667L176.77,65.021,157.842,77.916l7.872,20.43A86.057,86.057,0,0,0,152.819,115.6l-21.789-2.2-7.833,21.75,18.009,12.234a88.344,88.344,0,0,0-1.282,15.458,48.118,48.118,0,0,0,0,6.409L120.88,179.948l6.046,22.268h21.5a90.82,90.82,0,0,0,7.224,12.739q2.1,3.107,4.454,6.046l-9.27,19.187,17.763,14.9,17.141-12.843A90.667,90.667,0,0,0,206.47,251l3.444,20.727,23.071,2.046,6.926-19.549a96.852,96.852,0,0,0,22.152-4.907l14.656,14.643,20.067-11.574-5.528-19.964A90.39,90.39,0,0,0,306.7,215.732l20.326,3.651,9.788-20.948L320.84,185.554a92.863,92.863,0,0,0,2.5-22.2m-52.77,0A39.251,39.251,0,1,1,258.981,135.5c.712.712,1.4,1.437,2.033,2.2a39.013,39.013,0,0,1,9.555,25.4Z" transform="translate(35.618 15.18)" fill="#60ffc8"/>
        <path id="Trazado_982301" data-name="Trazado 982301" d="M323.338,163.35l19.044-8.6-4.065-22.786-20.986-1.683a86.385,86.385,0,0,0-10.551-19.808l6.59-11.16,4.221-7.159L301.251,75.935,282.945,86.927a89.7,89.7,0,0,0-35.02-14.435l-5.269-20.973H219.507l-5.425,21.129a95.839,95.839,0,0,0-20.727,6.667L176.77,65.021,157.842,77.916l7.872,20.43A86.057,86.057,0,0,0,152.819,115.6l-21.789-2.2-7.833,21.75,18.009,12.234a88.344,88.344,0,0,0-1.282,15.458,48.118,48.118,0,0,0,0,6.409L120.88,179.948l6.046,22.268h21.5a90.82,90.82,0,0,0,7.224,12.739q2.1,3.107,4.454,6.046l-9.27,19.187,17.763,14.9,17.141-12.843A90.667,90.667,0,0,0,206.47,251l3.444,20.727,23.071,2.046,6.926-19.549a96.852,96.852,0,0,0,22.152-4.907l14.656,14.643,20.067-11.574-5.528-19.964A90.39,90.39,0,0,0,306.7,215.732l20.326,3.651,9.788-20.948L320.84,185.554A92.863,92.863,0,0,0,323.338,163.35Zm-52.77,0A39.251,39.251,0,1,1,258.981,135.5c.712.712,1.4,1.437,2.033,2.2a39.013,39.013,0,0,1,9.555,25.4Z" transform="translate(35.618 15.18)" fill="none" stroke="#322d38" stroke-miterlimit="10" stroke-width="1"/>
        <g id="Grupo_1145427" data-name="Grupo 1145427" transform="translate(186.456 114.497)" opacity="0.2">
          <g id="Grupo_1145426" data-name="Grupo 1145426">
            <g id="Grupo_1145425" data-name="Grupo 1145425" clip-path="url(#clip-path-5)">
              <path id="Trazado_982302" data-name="Trazado 982302" d="M314.021,174.675,330,187.557,320.21,208.5l-20.326-3.651a90.391,90.391,0,0,1-15.445,16.688l5.528,19.964L269.9,253.079l-14.656-14.643a96.852,96.852,0,0,1-22.152,4.907l-6.926,19.549L203.1,260.847l-3.444-20.727a90.667,90.667,0,0,1-20.727-8.752l-17.141,12.843-17.763-14.9,9.27-19.187q-2.35-2.932-4.454-6.046l42.232-30.968a39.272,39.272,0,0,0,72.682-20.637v-.246a39.013,39.013,0,0,0-9.555-25.4l52.356-38.387-6.59,11.16a86.384,86.384,0,0,1,10.551,19.808l20.986,1.683,4.065,22.786-19.044,8.6a92.864,92.864,0,0,1-2.5,22.2" transform="translate(-144.02 -88.438)"/>
            </g>
          </g>
        </g>
        <path id="Trazado_982303" data-name="Trazado 982303" d="M349.3,96.764l.958-.44a2.588,2.588,0,0,0,1.5-2.848l-.194-1.165a2.589,2.589,0,0,0-2.382-2.162l-1.152-.091a2.59,2.59,0,0,1-2.149-1.476c-.311-.66-.647-1.295-1.01-1.916a2.591,2.591,0,0,1,0-2.589l.6-1.01a2.665,2.665,0,0,0-.414-3.2l-.829-.829a2.59,2.59,0,0,0-3.211-.388l-1.023.608a2.591,2.591,0,0,1-2.589,0,21.2,21.2,0,0,0-5.269-2.149,2.59,2.59,0,0,1-1.864-1.89l-.3-1.2a2.591,2.591,0,0,0-2.589-1.994h-1.165A2.591,2.591,0,0,0,323.626,74L323.3,75.3a2.59,2.59,0,0,1-1.825,1.864c-.647.181-1.295.375-1.9.608a2.591,2.591,0,0,1-2.589-.479l-1.036-.893a2.59,2.59,0,0,0-3.185-.181l-.919.621a2.59,2.59,0,0,0-.971,3.12l.466,1.217a2.59,2.59,0,0,1-.4,2.589,19.247,19.247,0,0,0-1.165,1.541,2.588,2.588,0,0,1-2.408,1.113l-1.295-.117a2.59,2.59,0,0,0-2.732,1.722l-.414,1.139a2.589,2.589,0,0,0,.945,3.029l1.191.842a2.588,2.588,0,0,1,1.088,2.369,17.763,17.763,0,0,0-.1,2.033,2.682,2.682,0,0,1-1.295,2.2l-1.217.673a2.589,2.589,0,0,0-1.295,2.991l.3,1.126a2.589,2.589,0,0,0,2.589,1.942h1.295a2.591,2.591,0,0,1,2.266,1.295c.35.621.725,1.217,1.126,1.8a2.589,2.589,0,0,1,.194,2.589l-.531,1.1a2.59,2.59,0,0,0,.686,3.159l.893.751a2.588,2.588,0,0,0,3.224.117l.919-.647a2.59,2.59,0,0,1,2.589-.246q.985.466,2.02.854a2.589,2.589,0,0,1,1.644,1.994l.194,1.126a2.589,2.589,0,0,0,2.382,2.162l1.191.1a2.59,2.59,0,0,0,2.693-1.748l.362-1.01a2.59,2.59,0,0,1,2.007-1.7,20.127,20.127,0,0,0,2.175-.466,2.588,2.588,0,0,1,2.512.686l.764.777a2.59,2.59,0,0,0,3.172.427l1.023-.583a2.588,2.588,0,0,0,1.295-2.991l-.285-1.01a2.59,2.59,0,0,1,.66-2.589c.531-.531,1.049-1.088,1.528-1.67a2.59,2.59,0,0,1,2.473-.88l1.036.194a2.588,2.588,0,0,0,2.861-1.476l.492-1.062a2.59,2.59,0,0,0-.738-3.159l-.777-.634a2.587,2.587,0,0,1-.958-2.408,20.411,20.411,0,0,0,.246-2.33,2.587,2.587,0,0,1,1.541-2.136m-9.3.673a20.669,20.669,0,1,1-.026-.078Z" transform="translate(89.028 21.222)" fill="#60ffc8"/>
        <path id="Trazado_982304" data-name="Trazado 982304" d="M349.3,96.764l.958-.44a2.588,2.588,0,0,0,1.5-2.848l-.194-1.165a2.589,2.589,0,0,0-2.382-2.162l-1.152-.091a2.59,2.59,0,0,1-2.149-1.476c-.311-.66-.647-1.295-1.01-1.916a2.591,2.591,0,0,1,0-2.589l.6-1.01a2.665,2.665,0,0,0-.414-3.2l-.829-.829a2.59,2.59,0,0,0-3.211-.388l-1.023.608a2.591,2.591,0,0,1-2.589,0,21.2,21.2,0,0,0-5.269-2.149,2.59,2.59,0,0,1-1.864-1.89l-.3-1.2a2.591,2.591,0,0,0-2.589-1.994h-1.165A2.591,2.591,0,0,0,323.626,74L323.3,75.3a2.59,2.59,0,0,1-1.825,1.864c-.647.181-1.295.375-1.9.608a2.591,2.591,0,0,1-2.589-.479l-1.036-.893a2.59,2.59,0,0,0-3.185-.181l-.919.621a2.59,2.59,0,0,0-.971,3.12l.466,1.217a2.59,2.59,0,0,1-.4,2.589,19.247,19.247,0,0,0-1.165,1.541,2.588,2.588,0,0,1-2.408,1.113l-1.295-.117a2.59,2.59,0,0,0-2.732,1.722l-.414,1.139a2.589,2.589,0,0,0,.945,3.029l1.191.842a2.588,2.588,0,0,1,1.088,2.369,17.763,17.763,0,0,0-.1,2.033,2.682,2.682,0,0,1-1.295,2.2l-1.217.673a2.589,2.589,0,0,0-1.295,2.991l.3,1.126a2.589,2.589,0,0,0,2.589,1.942h1.295a2.591,2.591,0,0,1,2.266,1.295c.35.621.725,1.217,1.126,1.8a2.589,2.589,0,0,1,.194,2.589l-.531,1.1a2.59,2.59,0,0,0,.686,3.159l.893.751a2.588,2.588,0,0,0,3.224.117l.919-.647a2.59,2.59,0,0,1,2.589-.246q.985.466,2.02.854a2.589,2.589,0,0,1,1.644,1.994l.194,1.126a2.589,2.589,0,0,0,2.382,2.162l1.191.1a2.59,2.59,0,0,0,2.693-1.748l.362-1.01a2.59,2.59,0,0,1,2.007-1.7,20.127,20.127,0,0,0,2.175-.466,2.588,2.588,0,0,1,2.512.686l.764.777a2.59,2.59,0,0,0,3.172.427l1.023-.583a2.588,2.588,0,0,0,1.295-2.991l-.285-1.01a2.59,2.59,0,0,1,.66-2.589c.531-.531,1.049-1.088,1.528-1.67a2.59,2.59,0,0,1,2.473-.88l1.036.194a2.588,2.588,0,0,0,2.861-1.476l.492-1.062a2.59,2.59,0,0,0-.738-3.159l-.777-.634a2.587,2.587,0,0,1-.958-2.408,20.411,20.411,0,0,0,.246-2.33A2.587,2.587,0,0,1,349.3,96.764Zm-9.3.673a20.669,20.669,0,1,1-.026-.078Z" transform="translate(89.028 21.222)" fill="none" stroke="#322d38" stroke-miterlimit="10" stroke-width="1"/>
        <path id="Trazado_982305" data-name="Trazado 982305" d="M438.149,25.225v.712H60.213v-.712A14.114,14.114,0,0,1,74.325,11.1h349.7a14.117,14.117,0,0,1,14.125,14.125" transform="translate(17.742 3.271)" fill="#322d38"/>
        <path id="Trazado_982306" data-name="Trazado 982306" d="M438.149,25.225V287.418a14.114,14.114,0,0,1-14.125,14.112H74.325a14.112,14.112,0,0,1-14.112-14.112V25.225A14.114,14.114,0,0,1,74.325,11.1h349.7A14.117,14.117,0,0,1,438.149,25.225Z" transform="translate(17.742 3.271)" fill="none" stroke="#322d38" stroke-linecap="round" stroke-linejoin="round" stroke-width="1"/>
        <line id="Línea_895" data-name="Línea 895" x2="377.936" transform="translate(77.955 28.495)" fill="none" stroke="#322d38" stroke-linecap="round" stroke-linejoin="round" stroke-width="1"/>
        <path id="Trazado_982307" data-name="Trazado 982307" d="M85.854,17.482a2.864,2.864,0,1,1-2.864-2.864,2.863,2.863,0,0,1,2.864,2.864" transform="translate(23.61 4.307)" fill="#60ffc8"/>
        <path id="Trazado_982308" data-name="Trazado 982308" d="M96.335,17.482a2.864,2.864,0,1,1-2.864-2.864,2.863,2.863,0,0,1,2.864,2.864" transform="translate(26.698 4.307)" fill="#60ffc8"/>
        <path id="Trazado_982309" data-name="Trazado 982309" d="M106.815,17.482a2.864,2.864,0,1,1-2.864-2.864,2.863,2.863,0,0,1,2.864,2.864" transform="translate(29.786 4.307)" fill="#60ffc8"/>
        <path id="Trazado_982310" data-name="Trazado 982310" d="M280.123,151.566a59.844,59.844,0,1,1,0-.381Z" transform="translate(47.161 26.97)" fill="none" stroke="#322d38" stroke-miterlimit="10" stroke-width="4"/>
        <path id="Trazado_982311" data-name="Trazado 982311" d="M476.752,109.03H263.09a14.117,14.117,0,0,1-14.117-14.117V47.487A14.117,14.117,0,0,1,263.09,33.37H476.752a14.117,14.117,0,0,1,14.117,14.117V94.913a14.117,14.117,0,0,1-14.117,14.117" transform="translate(73.361 9.833)" fill="#fff"/>
        <rect id="Rectángulo_406037" data-name="Rectángulo 406037" width="241.896" height="75.66" rx="10.904" transform="translate(322.334 43.203)" fill="none" stroke="#322d38" stroke-miterlimit="10" stroke-width="1"/>
        <line id="Línea_896" data-name="Línea 896" x2="164.849" transform="translate(364.675 80.692)" fill="none" stroke="#322d38" stroke-miterlimit="10" stroke-width="1"/>
        <path id="Trazado_982312" data-name="Trazado 982312" d="M277.708,66.5l26.034-18.35h66.3L397.1,66.5" transform="translate(81.828 14.189)" fill="none" stroke="#322d38" stroke-miterlimit="10" stroke-width="1"/>
        <path id="Trazado_982313" data-name="Trazado 982313" d="M376.233,63.5a5.139,5.139,0,1,1-5.139-5.138,5.139,5.139,0,0,1,5.139,5.138" transform="translate(107.831 17.196)" fill="#60ffc8"/>
        <circle id="Elipse_11605" data-name="Elipse 11605" cx="5.139" cy="5.139" r="5.139" transform="translate(472.744 84.512) rotate(-76.718)" fill="none" stroke="#322d38" stroke-miterlimit="10" stroke-width="1"/>
        <path id="Trazado_982314" data-name="Trazado 982314" d="M304.125,49.322a5.139,5.139,0,1,1-5.139-5.138,5.139,5.139,0,0,1,5.139,5.138" transform="translate(86.584 13.019)" fill="#60ffc8"/>
        <circle id="Elipse_11606" data-name="Elipse 11606" cx="5.139" cy="5.139" r="5.139" transform="translate(379.389 66.162) rotate(-76.718)" fill="none" stroke="#322d38" stroke-miterlimit="10" stroke-width="1"/>
        <path id="Trazado_982315" data-name="Trazado 982315" d="M355.335,49.322a5.138,5.138,0,1,1-5.138-5.138,5.139,5.139,0,0,1,5.138,5.138" transform="translate(101.674 13.019)" fill="#60ffc8"/>
        <circle id="Elipse_11607" data-name="Elipse 11607" cx="5.139" cy="5.139" r="5.139" transform="translate(445.689 66.162) rotate(-76.718)" fill="none" stroke="#322d38" stroke-miterlimit="10" stroke-width="1"/>
        <path id="Trazado_982316" data-name="Trazado 982316" d="M277.708,62.327l26.034,18.349h122.2L447.7,62.327" transform="translate(81.828 18.365)" fill="none" stroke="#322d38" stroke-miterlimit="10" stroke-width="1"/>
        <path id="Trazado_982317" data-name="Trazado 982317" d="M334.873,77.669a5.138,5.138,0,1,1-5.138-5.139,5.139,5.139,0,0,1,5.138,5.139" transform="translate(95.644 21.372)" fill="#60ffc8"/>
        <circle id="Elipse_11608" data-name="Elipse 11608" cx="5.139" cy="5.139" r="5.139" transform="translate(419.197 102.862) rotate(-76.718)" fill="none" stroke="#322d38" stroke-miterlimit="10" stroke-width="1"/>
        <path id="Trazado_982318" data-name="Trazado 982318" d="M304.125,77.669a5.139,5.139,0,1,1-5.139-5.139,5.139,5.139,0,0,1,5.139,5.139" transform="translate(86.584 21.372)" fill="#60ffc8"/>
        <circle id="Elipse_11609" data-name="Elipse 11609" cx="5.139" cy="5.139" r="5.139" transform="translate(379.389 102.862) rotate(-76.718)" fill="none" stroke="#322d38" stroke-miterlimit="10" stroke-width="1"/>
        <path id="Trazado_982319" data-name="Trazado 982319" d="M398.513,77.669a5.139,5.139,0,1,1-5.139-5.139,5.139,5.139,0,0,1,5.139,5.139" transform="translate(114.396 21.372)" fill="#60ffc8"/>
        <circle id="Elipse_11610" data-name="Elipse 11610" cx="5.139" cy="5.139" r="5.139" transform="translate(501.59 102.862) rotate(-76.718)" fill="none" stroke="#322d38" stroke-miterlimit="10" stroke-width="1"/>
        <path id="Trazado_982320" data-name="Trazado 982320" d="M415.315,63.5a5.138,5.138,0,1,1-5.138-5.138,5.139,5.139,0,0,1,5.138,5.138" transform="translate(119.347 17.196)" fill="#60ffc8"/>
        <circle id="Elipse_11611" data-name="Elipse 11611" cx="5.139" cy="5.139" r="5.139" transform="translate(523.342 84.512) rotate(-76.718)" fill="none" stroke="#322d38" stroke-miterlimit="10" stroke-width="1"/>
        <path id="Trazado_982321" data-name="Trazado 982321" d="M284.016,63.5a5.138,5.138,0,1,1-5.138-5.138,5.139,5.139,0,0,1,5.138,5.138" transform="translate(80.659 17.196)" fill="#60ffc8"/>
        <circle id="Elipse_11612" data-name="Elipse 11612" cx="5.139" cy="5.139" r="5.139" transform="translate(353.355 84.512) rotate(-76.718)" fill="none" stroke="#322d38" stroke-miterlimit="10" stroke-width="1"/>
        <path id="Trazado_982322" data-name="Trazado 982322" d="M193.118,307.777H70.033A14.117,14.117,0,0,1,55.916,293.66V170.575a14.117,14.117,0,0,1,14.117-14.117H193.118a14.117,14.117,0,0,1,14.117,14.117V293.66a14.117,14.117,0,0,1-14.117,14.117" transform="translate(16.476 46.101)" fill="#fff"/>
        <rect id="Rectángulo_406038" data-name="Rectángulo 406038" width="151.319" height="151.319" rx="10.904" transform="translate(72.392 202.56)" fill="none" stroke="#322d38" stroke-miterlimit="10" stroke-width="1"/>
        <path id="Trazado_982323" data-name="Trazado 982323" d="M104.206,223.189l-19.6,38.089h88.83" transform="translate(24.93 65.764)" fill="none" stroke="#322d38" stroke-linecap="round" stroke-linejoin="round" stroke-width="1"/>
        <path id="Trazado_982324" data-name="Trazado 982324" d="M162.655,178.732,121.2,206.291l41.457,12.473" transform="translate(35.712 52.664)" fill="none" stroke="#322d38" stroke-linecap="round" stroke-linejoin="round" stroke-width="1"/>
        <rect id="Rectángulo_406039" data-name="Rectángulo 406039" width="19.601" height="19.601" transform="translate(188.565 221.596)" fill="#60ffc8"/>
        <rect id="Rectángulo_406040" data-name="Rectángulo 406040" width="19.601" height="19.601" transform="translate(188.565 221.596)" fill="none" stroke="#322d38" stroke-miterlimit="10" stroke-width="1"/>
        <rect id="Rectángulo_406041" data-name="Rectángulo 406041" width="19.601" height="19.601" transform="translate(188.565 261.628)" fill="#60ffc8"/>
        <rect id="Rectángulo_406042" data-name="Rectángulo 406042" width="19.601" height="19.601" transform="translate(188.565 261.628)" fill="none" stroke="#322d38" stroke-miterlimit="10" stroke-width="1"/>
        <rect id="Rectángulo_406043" data-name="Rectángulo 406043" width="19.601" height="19.601" transform="translate(147.109 249.155)" fill="#60ffc8"/>
        <rect id="Rectángulo_406044" data-name="Rectángulo 406044" width="19.601" height="19.601" transform="translate(147.109 249.155)" fill="none" stroke="#322d38" stroke-miterlimit="10" stroke-width="1"/>
        <rect id="Rectángulo_406045" data-name="Rectángulo 406045" width="19.601" height="19.601" transform="translate(119.335 279.152)" fill="#60ffc8"/>
        <rect id="Rectángulo_406046" data-name="Rectángulo 406046" width="19.601" height="19.601" transform="translate(119.335 279.152)" fill="none" stroke="#322d38" stroke-miterlimit="10" stroke-width="1"/>
        <rect id="Rectángulo_406047" data-name="Rectángulo 406047" width="19.601" height="19.601" transform="translate(99.736 317.243)" fill="#60ffc8"/>
        <rect id="Rectángulo_406048" data-name="Rectángulo 406048" width="19.601" height="19.601" transform="translate(99.736 317.243)" fill="none" stroke="#322d38" stroke-miterlimit="10" stroke-width="1"/>
        <rect id="Rectángulo_406049" data-name="Rectángulo 406049" width="19.601" height="19.601" transform="translate(188.565 317.243)" fill="#60ffc8"/>
        <rect id="Rectángulo_406050" data-name="Rectángulo 406050" width="19.601" height="19.601" transform="translate(188.565 317.243)" fill="none" stroke="#322d38" stroke-miterlimit="10" stroke-width="1"/>
        <path id="Trazado_982325" data-name="Trazado 982325" d="M137.7,261.969H14.616A14.117,14.117,0,0,1,.5,247.852V124.767A14.117,14.117,0,0,1,14.616,110.65H137.7a14.117,14.117,0,0,1,14.117,14.117V247.852A14.117,14.117,0,0,1,137.7,261.969" transform="translate(0.147 32.604)" fill="#fff"/>
        <path id="Rectángulo_406051" data-name="Rectángulo 406051" d="M10.9,0H140.416a10.9,10.9,0,0,1,10.9,10.9V140.416a10.9,10.9,0,0,1-10.9,10.9H10.9A10.9,10.9,0,0,1,0,140.415V10.9A10.9,10.9,0,0,1,10.9,0Z" transform="translate(0.647 143.254)" fill="none" stroke="#322d38" stroke-miterlimit="10" stroke-width="1"/>
        <rect id="Rectángulo_406052" data-name="Rectángulo 406052" width="100.657" height="7.799" transform="translate(16.648 157.896)" fill="#60ffc8"/>
        <rect id="Rectángulo_406053" data-name="Rectángulo 406053" width="58.152" height="7.799" transform="translate(16.648 170.734)" fill="#60ffc8"/>
        <rect id="Rectángulo_406054" data-name="Rectángulo 406054" width="33.873" height="7.799" transform="translate(16.648 183.571)" fill="#60ffc8"/>
        <rect id="Rectángulo_406055" data-name="Rectángulo 406055" width="55.744" height="7.799" transform="translate(16.648 196.407)" fill="#60ffc8"/>
        <rect id="Rectángulo_406056" data-name="Rectángulo 406056" width="86.896" height="7.799" transform="translate(16.648 209.245)" fill="#60ffc8"/>
        <rect id="Rectángulo_406057" data-name="Rectángulo 406057" width="58.152" height="7.799" transform="translate(16.648 222.081)" fill="#60ffc8"/>
        <rect id="Rectángulo_406058" data-name="Rectángulo 406058" width="40.571" height="7.799" transform="translate(16.648 234.918)" fill="#60ffc8"/>
        <rect id="Rectángulo_406059" data-name="Rectángulo 406059" width="65.687" height="7.799" transform="translate(16.648 247.756)" fill="#60ffc8"/>
        <rect id="Rectángulo_406060" data-name="Rectángulo 406060" width="79.641" height="7.799" transform="translate(16.648 260.592)" fill="#60ffc8"/>
        <rect id="Rectángulo_406061" data-name="Rectángulo 406061" width="100.657" height="7.799" transform="translate(16.648 273.43)" fill="#60ffc8"/>
        <g id="Grupo_1145430" data-name="Grupo 1145430" transform="translate(16.648 157.896)" opacity="0.3">
          <g id="Grupo_1145429" data-name="Grupo 1145429">
            <g id="Grupo_1145428" data-name="Grupo 1145428" clip-path="url(#clip-path-6)">
              <rect id="Rectángulo_406062" data-name="Rectángulo 406062" width="100.657" height="7.799" transform="translate(0)"/>
            </g>
          </g>
        </g>
        <g id="Grupo_1145433" data-name="Grupo 1145433" transform="translate(16.648 170.734)" opacity="0.3">
          <g id="Grupo_1145432" data-name="Grupo 1145432">
            <g id="Grupo_1145431" data-name="Grupo 1145431" clip-path="url(#clip-path-7)">
              <rect id="Rectángulo_406064" data-name="Rectángulo 406064" width="58.152" height="7.799" transform="translate(0)"/>
            </g>
          </g>
        </g>
        <g id="Grupo_1145436" data-name="Grupo 1145436" transform="translate(16.648 183.571)" opacity="0.3">
          <g id="Grupo_1145435" data-name="Grupo 1145435">
            <g id="Grupo_1145434" data-name="Grupo 1145434" clip-path="url(#clip-path-8)">
              <rect id="Rectángulo_406066" data-name="Rectángulo 406066" width="33.873" height="7.799" transform="translate(0)"/>
            </g>
          </g>
        </g>
        <g id="Grupo_1145439" data-name="Grupo 1145439" transform="translate(16.648 196.407)" opacity="0.3">
          <g id="Grupo_1145438" data-name="Grupo 1145438">
            <g id="Grupo_1145437" data-name="Grupo 1145437" clip-path="url(#clip-path-9)">
              <rect id="Rectángulo_406068" data-name="Rectángulo 406068" width="55.744" height="7.799" transform="translate(0)"/>
            </g>
          </g>
        </g>
        <g id="Grupo_1145442" data-name="Grupo 1145442" transform="translate(16.648 209.245)" opacity="0.3">
          <g id="Grupo_1145441" data-name="Grupo 1145441">
            <g id="Grupo_1145440" data-name="Grupo 1145440" clip-path="url(#clip-path-10)">
              <rect id="Rectángulo_406070" data-name="Rectángulo 406070" width="86.896" height="7.799" transform="translate(0)"/>
            </g>
          </g>
        </g>
        <g id="Grupo_1145445" data-name="Grupo 1145445" transform="translate(16.648 222.081)" opacity="0.3">
          <g id="Grupo_1145444" data-name="Grupo 1145444">
            <g id="Grupo_1145443" data-name="Grupo 1145443" clip-path="url(#clip-path-7)">
              <rect id="Rectángulo_406072" data-name="Rectángulo 406072" width="58.152" height="7.799" transform="translate(0)"/>
            </g>
          </g>
        </g>
        <g id="Grupo_1145448" data-name="Grupo 1145448" transform="translate(16.648 234.918)" opacity="0.3">
          <g id="Grupo_1145447" data-name="Grupo 1145447">
            <g id="Grupo_1145446" data-name="Grupo 1145446" clip-path="url(#clip-path-12)">
              <rect id="Rectángulo_406074" data-name="Rectángulo 406074" width="40.571" height="7.799" transform="translate(0 0)"/>
            </g>
          </g>
        </g>
        <g id="Grupo_1145451" data-name="Grupo 1145451" transform="translate(16.648 247.756)" opacity="0.3">
          <g id="Grupo_1145450" data-name="Grupo 1145450">
            <g id="Grupo_1145449" data-name="Grupo 1145449" clip-path="url(#clip-path-13)">
              <rect id="Rectángulo_406076" data-name="Rectángulo 406076" width="65.687" height="7.799" transform="translate(0 0)"/>
            </g>
          </g>
        </g>
        <g id="Grupo_1145454" data-name="Grupo 1145454" transform="translate(16.648 260.592)" opacity="0.3">
          <g id="Grupo_1145453" data-name="Grupo 1145453">
            <g id="Grupo_1145452" data-name="Grupo 1145452" clip-path="url(#clip-path-14)">
              <rect id="Rectángulo_406078" data-name="Rectángulo 406078" width="79.641" height="7.799" transform="translate(0)"/>
            </g>
          </g>
        </g>
        <g id="Grupo_1145457" data-name="Grupo 1145457" transform="translate(16.648 273.43)" opacity="0.3">
          <g id="Grupo_1145456" data-name="Grupo 1145456">
            <g id="Grupo_1145455" data-name="Grupo 1145455" clip-path="url(#clip-path-6)">
              <rect id="Rectángulo_406080" data-name="Rectángulo 406080" width="100.657" height="7.799" transform="translate(0)"/>
            </g>
          </g>
        </g>
        <path id="Trazado_982326" data-name="Trazado 982326" d="M101.074,100.378H64.446a6.669,6.669,0,0,0-6.67,6.67v6.63h49.969v-6.63a6.67,6.67,0,0,0-6.67-6.67" transform="translate(17.024 29.577)" fill="#fff"/>
        <path id="Trazado_982327" data-name="Trazado 982327" d="M101.074,100.378H64.446a6.669,6.669,0,0,0-6.67,6.67v6.63h49.969v-6.63A6.67,6.67,0,0,0,101.074,100.378Z" transform="translate(17.024 29.577)" fill="none" stroke="#322d38" stroke-miterlimit="10" stroke-width="1"/>
        <path id="Trazado_982328" data-name="Trazado 982328" d="M81.559,100.378H45.367a6.888,6.888,0,0,0-6.888,6.888v6.412H88.446v-6.412a6.888,6.888,0,0,0-6.888-6.888" transform="translate(11.338 29.577)" fill="#60ffc8"/>
        <path id="Trazado_982329" data-name="Trazado 982329" d="M81.559,100.378H45.367a6.888,6.888,0,0,0-6.888,6.888v6.412H88.446v-6.412A6.888,6.888,0,0,0,81.559,100.378Z" transform="translate(11.338 29.577)" fill="none" stroke="#322d38" stroke-miterlimit="10" stroke-width="1"/>
        <path id="Trazado_982330" data-name="Trazado 982330" d="M60.842,100.378H23.767a6.447,6.447,0,0,0-6.447,6.446v6.854H67.289v-6.854a6.446,6.446,0,0,0-6.446-6.446" transform="translate(5.103 29.577)" fill="#fff"/>
        <path id="Trazado_982331" data-name="Trazado 982331" d="M60.842,100.378H23.767a6.447,6.447,0,0,0-6.447,6.446v6.854H67.289v-6.854A6.446,6.446,0,0,0,60.842,100.378Z" transform="translate(5.103 29.577)" fill="none" stroke="#322d38" stroke-miterlimit="10" stroke-width="1"/>
        <line id="Línea_897" data-name="Línea 897" x2="27.505" transform="translate(500.29 407.368)" fill="none" stroke="#322d38" stroke-linecap="round" stroke-linejoin="round" stroke-width="1"/>
        <line id="Línea_898" data-name="Línea 898" x2="418.838" transform="translate(66.976 407.368)" fill="none" stroke="#322d38" stroke-linecap="round" stroke-linejoin="round" stroke-width="1"/>
        <path id="Trazado_982332" data-name="Trazado 982332" d="M380.832,303.458s4.878-3.986,7.2.373c2.005,3.771-2.8,7.984-8.26,7.98v3.184s11.715.312,12.627-9.555-11.564-7.144-11.564-7.144Z" transform="translate(111.901 87.793)" fill="#60ffc8"/>
        <path id="Trazado_982333" data-name="Trazado 982333" d="M380.832,303.458s4.878-3.986,7.2.373c2.005,3.771-2.8,7.984-8.26,7.98v3.184s11.715.312,12.627-9.555-11.564-7.144-11.564-7.144Z" transform="translate(111.901 87.793)" fill="none" stroke="#322d38" stroke-linecap="round" stroke-linejoin="round" stroke-width="1"/>
        <path id="Trazado_982334" data-name="Trazado 982334" d="M386.423,321.313H362.956l-3.519-29.47h30.515Z" transform="translate(105.91 85.993)" fill="#60ffc8"/>
        <path id="Trazado_982335" data-name="Trazado 982335" d="M386.423,321.313H362.956l-3.519-29.47h30.515Z" transform="translate(105.91 85.993)" fill="none" stroke="#322d38" stroke-linecap="round" stroke-linejoin="round" stroke-width="1"/>
        <path id="Trazado_982336" data-name="Trazado 982336" d="M359.837,290.754h30.417a1.608,1.608,0,0,1,1.608,1.608v.154a1.608,1.608,0,0,1-1.608,1.608H359.837a1.608,1.608,0,0,1-1.608-1.608v-.154a1.608,1.608,0,0,1,1.608-1.608" transform="translate(105.554 85.673)" fill="#fff"/>
        <rect id="Rectángulo_406082" data-name="Rectángulo 406082" width="33.633" height="3.37" rx="1.242" transform="translate(463.783 376.427)" fill="none" stroke="#322d38" stroke-linecap="round" stroke-linejoin="round" stroke-width="1"/>
        <path id="Trazado_982337" data-name="Trazado 982337" d="M369.993,300.888s10.8-6.473,7.276-13.9-15.432-12.325-15.432-23.886c0-9.956,10.59-13.646,17.5-17.633" transform="translate(106.618 72.328)" fill="none" stroke="#322d38" stroke-linecap="round" stroke-linejoin="round" stroke-width="1"/>
        <path id="Trazado_982338" data-name="Trazado 982338" d="M372.172,250.9a12.939,12.939,0,0,0-3.428,17.992" transform="translate(107.993 73.929)" fill="none" stroke="#322d38" stroke-linecap="round" stroke-linejoin="round" stroke-width="1"/>
        <path id="Trazado_982339" data-name="Trazado 982339" d="M375.42,273.59a19.468,19.468,0,0,1,1.677,13.424" transform="translate(110.62 80.615)" fill="none" stroke="#322d38" stroke-linecap="round" stroke-linejoin="round" stroke-width="1"/>
        <path id="Trazado_982340" data-name="Trazado 982340" d="M167.641,315.738s-.492-8.454-7.949-11.432-11.445-1.748-28.094,2.732a159.327,159.327,0,0,1-32.069,4.971v3.729Z" transform="translate(29.327 89.187)" fill="#fff"/>
        <path id="Trazado_982341" data-name="Trazado 982341" d="M167.641,315.738s-.492-8.454-7.949-11.432-11.445-1.748-28.094,2.732a159.327,159.327,0,0,1-32.069,4.971v3.729Z" transform="translate(29.327 89.187)" fill="none" stroke="#322d38" stroke-linecap="round" stroke-linejoin="round" stroke-width="1"/>
        <path id="Trazado_982342" data-name="Trazado 982342" d="M151.93,315.738s.491-8.454,7.949-11.432,11.431-1.748,28.094,2.732a159.28,159.28,0,0,0,32.054,4.971v3.729Z" transform="translate(44.767 89.187)" fill="#fff"/>
        <path id="Trazado_982343" data-name="Trazado 982343" d="M151.93,315.738s.491-8.454,7.949-11.432,11.431-1.748,28.094,2.732a159.28,159.28,0,0,0,32.054,4.971v3.729Z" transform="translate(44.767 89.187)" fill="none" stroke="#322d38" stroke-linecap="round" stroke-linejoin="round" stroke-width="1"/>
        <rect id="Rectángulo_406083" data-name="Rectángulo 406083" width="140.444" height="2.732" transform="translate(127.121 403.436)" fill="#322d38"/>
        <rect id="Rectángulo_406084" data-name="Rectángulo 406084" width="140.444" height="2.732" transform="translate(127.121 403.436)" fill="none" stroke="#322d38" stroke-linecap="round" stroke-linejoin="round" stroke-width="1"/>
        <path id="Trazado_982344" data-name="Trazado 982344" d="M154.731,314.693A14.987,14.987,0,0,1,163,305.712" transform="translate(45.592 90.08)" fill="none" stroke="#322d38" stroke-linecap="round" stroke-linejoin="round" stroke-width="1"/>
        <path id="Trazado_982345" data-name="Trazado 982345" d="M158.015,313.757a13.787,13.787,0,0,1,9.345-6.648c4.647-.858,9.369.741,13.748,2.518s11.987,4.116,16.713,4.13" transform="translate(46.56 90.421)" fill="none" stroke="#322d38" stroke-linecap="round" stroke-linejoin="round" stroke-width="1"/>
        <path id="Trazado_982346" data-name="Trazado 982346" d="M120.45,313.162a50.165,50.165,0,0,0,13.547-3.4,59.04,59.04,0,0,1,8.066-3.085,11.146,11.146,0,0,1,8.38.844,11.27,11.27,0,0,1,2.881,2.679,19.9,19.9,0,0,1,2.729,4.581" transform="translate(35.491 90.239)" fill="none" stroke="#322d38" stroke-linecap="round" stroke-linejoin="round" stroke-width="1"/>
        <path id="Trazado_982347" data-name="Trazado 982347" d="M140.288,308.655a6.685,6.685,0,0,1,3.954,2.1,19.91,19.91,0,0,1,2.659,3.7" transform="translate(41.337 90.947)" fill="none" stroke="#322d38" stroke-linecap="round" stroke-linejoin="round" stroke-width="1"/>
        <path id="Trazado_982348" data-name="Trazado 982348" d="M244.079,345.272a41.69,41.69,0,0,1-16.38,3.793c-8.692,0-26.417-17.983-26.417-17.983s-.642-1.943.741-9.184S216.4,248.177,216.4,248.177s1.538-15.467,10.329-24.965,26.045-12.873,26.045-12.873,38.169-16.625,59.571-11.491c21.432,8.5,44.738,17.124,52.537,23.813s26.968,60.345,33.607,87.938c0,0-14.63,31.082-28.269,39.818s-46.595,5.882-46.595,5.882Z" transform="translate(59.265 58.302)" fill="#60ffc8"/>
        <g id="Grupo_1145460" data-name="Grupo 1145460" transform="translate(260.368 276.289)" opacity="0.3">
          <g id="Grupo_1145459" data-name="Grupo 1145459">
            <g id="Grupo_1145458" data-name="Grupo 1145458" clip-path="url(#clip-path-16)">
              <path id="Trazado_982349" data-name="Trazado 982349" d="M239.243,286.67l-5.514-73.263A24.031,24.031,0,0,0,219.277,230.5c-2.865,13.1-20.1,93.755-17.988,96s13.4,11.88,13.4,11.88,12.133,10.377,24.556,4.178,0-55.89,0-55.89" transform="translate(-201.11 -213.407)"/>
            </g>
          </g>
        </g>
        <g id="Grupo_1145463" data-name="Grupo 1145463" transform="translate(259.922 261.856)" opacity="0.3">
          <g id="Grupo_1145462" data-name="Grupo 1145462">
            <g id="Grupo_1145461" data-name="Grupo 1145461" clip-path="url(#clip-path-17)">
              <path id="Trazado_982350" data-name="Trazado 982350" d="M294.134,223.478c-.647,2.192-3.393,2.891-5.681,2.922a27.11,27.11,0,0,1-17.945-6.548c-.913-.79-17.1,9.208-18.965,10.21-2.935,1.576-5.818,3.321-8.81,4.784-2.8,1.37-5.434,2.052-7.26,4.825a24.871,24.871,0,0,0-2.7,6.541c-3.922,12.851-8.064,25.67-11.635,38.613-3.089,11.2-7.259,23.611-7.08,35.366a16.987,16.987,0,0,0,.18,2.513c2.462,15.03,29.953,21.274,29.953,21.274s-9.712,5.948-16.381,3.793-22.15-11.05-27.043-19.363l13.471-70.484s-.168-33.916,24.3-44.055,34.088-11.61,34.088-11.61Z" transform="translate(-200.765 -202.259)"/>
            </g>
          </g>
        </g>
        <g id="Grupo_1145466" data-name="Grupo 1145466" transform="translate(411.737 278.22)" opacity="0.3">
          <g id="Grupo_1145465" data-name="Grupo 1145465">
            <g id="Grupo_1145464" data-name="Grupo 1145464" clip-path="url(#clip-path-18)">
              <path id="Trazado_982351" data-name="Trazado 982351" d="M349.9,330.548s10.685-11.812,14.145-24.967c0,0-16.39-54-20.606-64.1S332.324,219.829,327.5,214.9l-7.822,111.164-1.645,23.387s8.756.374,14.908-2.514S349.9,330.548,349.9,330.548" transform="translate(-318.028 -214.899)"/>
            </g>
          </g>
        </g>
        <path id="Trazado_982352" data-name="Trazado 982352" d="M345.022,354.809l9.469-134.551s-45.848-21.429-57.808-23.422-70.266,20.929-70.266,20.929l8.472,129.069" transform="translate(66.715 57.963)" fill="none" stroke="#322d38" stroke-linecap="round" stroke-linejoin="round" stroke-width="1"/>
        <path id="Trazado_982353" data-name="Trazado 982353" d="M256.977,146.611l-4.713,22.579s-6.031-4.259-7.314.557,2.644,11.441,10.228,11.807c0,0,2.065,10.223,8.778,17.172a126.171,126.171,0,0,0,10.025,9.61s2.649,17.144,11.3,17.8,10.355-7.149,12.105-17.983c0,0,7.482-12.983,9.665-20,0,0,9.187-6.4,3.059-15.755,0,0,3.033-22.341-2.236-26.12s-41.71-1.831-50.9.337" transform="translate(72.106 42.47)" fill="#fff"/>
        <path id="Trazado_982354" data-name="Trazado 982354" d="M281.543,214.241s-2.914,14.64-4.719,15.013-8.978-6.476-15.242-15.013-5.3-8.538-5.3-8.538,2.905-11.195,5.3-12.83,11-1.425,11-1.425l18.874-.721s6.339-.9,10.167,1.6S307.4,205.7,307.4,205.7s-11.276,20.866-20.541,23.551a137.1,137.1,0,0,1-5.311-15.013" transform="translate(75.499 56.152)" fill="#fff"/>
        <line id="Línea_899" data-name="Línea 899" y1="35.115" x2="2.494" transform="translate(295.201 345.215)" fill="none" stroke="#322d38" stroke-miterlimit="10" stroke-width="1"/>
        <path id="Trazado_982355" data-name="Trazado 982355" d="M310.782,152.822s-10.709,4.151-20.182,3.352c0,0-10.005,10.078-22.807,4.086,0,0-11.548,31.271,14.926,51.724a45.262,45.262,0,0,1-27.549-30.705s-7.523,1.177-10.228-10.091c0,0-2.175-4.333,7.75-4.363l-.435-21.755,25.5,5.113,18.3-2.671Z" transform="translate(72.114 42.746)" fill="#60ffc8"/>
        <g id="Grupo_1145469" data-name="Grupo 1145469" transform="translate(316.854 187.816)" opacity="0.4">
          <g id="Grupo_1145468" data-name="Grupo 1145468">
            <g id="Grupo_1145467" data-name="Grupo 1145467" clip-path="url(#clip-path-19)">
              <path id="Trazado_982356" data-name="Trazado 982356" d="M310.782,152.822s-10.709,4.151-20.182,3.352c0,0-10.005,10.078-22.807,4.086,0,0-9.329,33.479,13.845,51.161,0,0-21.01-7.289-26.468-30.142,0,0-7.475-.795-10.228-10.091,0,0-2.175-4.333,7.75-4.363l-.435-21.755,25.5,5.113,18.3-2.671Z" transform="translate(-244.74 -145.07)" fill="#fff"/>
            </g>
          </g>
        </g>
        <path id="Trazado_982357" data-name="Trazado 982357" d="M273.24,188.473a28.124,28.124,0,0,0,2.614,1.863c.59.372,1.48.677,1.9.128a1.362,1.362,0,0,0,.2-.759c.381-6.179-1.059-12.413-.179-18.543" transform="translate(80.512 50.434)" fill="none" stroke="#322d38" stroke-linecap="round" stroke-linejoin="round" stroke-width="1"/>
        <path id="Trazado_982358" data-name="Trazado 982358" d="M279.875,169.186s3.07-6.77,10.984-.687" transform="translate(82.467 48.902)" fill="none" stroke="#322d38" stroke-linecap="round" stroke-linejoin="round" stroke-width="2"/>
        <path id="Trazado_982359" data-name="Trazado 982359" d="M275.143,170.132s-5.783-7.2-12.96.223" transform="translate(77.254 49.207)" fill="none" stroke="#322d38" stroke-linecap="round" stroke-linejoin="round" stroke-width="2"/>
        <path id="Trazado_982360" data-name="Trazado 982360" d="M266.16,193.177s3.084,18.457,13.949,19.016c8.817.453,10.541-14.8,10.879-20.264" transform="translate(78.426 56.553)" fill="none" stroke="#322d38" stroke-linecap="round" stroke-linejoin="round" stroke-width="1"/>
        <path id="Trazado_982361" data-name="Trazado 982361" d="M253.761,165.918s-4.794-5.721-8.041-2.926,1.618,15.1,9.461,13.231" transform="translate(72.102 47.8)" fill="none" stroke="#322d38" stroke-linecap="round" stroke-linejoin="round" stroke-width="1"/>
        <path id="Trazado_982362" data-name="Trazado 982362" d="M267.713,186.3a16.962,16.962,0,0,0,9.214,5.681" transform="translate(78.883 54.895)" fill="none" stroke="#322d38" stroke-linecap="round" stroke-linejoin="round" stroke-width="1"/>
        <path id="Trazado_982363" data-name="Trazado 982363" d="M268.846,176.588c0,1.459-.557,2.642-1.244,2.642s-1.244-1.183-1.244-2.642.557-2.642,1.244-2.642,1.244,1.183,1.244,2.642" transform="translate(78.484 51.254)" fill="#322d38"/>
        <path id="Trazado_982364" data-name="Trazado 982364" d="M284.436,176.588c0,1.459-.557,2.642-1.244,2.642s-1.244-1.183-1.244-2.642.557-2.642,1.244-2.642,1.244,1.183,1.244,2.642" transform="translate(83.078 51.254)" fill="#322d38"/>
        <path id="Trazado_982365" data-name="Trazado 982365" d="M281.878,212.185s-3.023,16.433-5.066,16.8-17.5-13.675-20.541-23.551c0,0,3.277-12.9,6.248-13.372,1.427-.225,3.055-.438,4.36-.6" transform="translate(75.512 56.417)" fill="none" stroke="#322d38" stroke-linecap="round" stroke-linejoin="round" stroke-width="1"/>
        <path id="Trazado_982366" data-name="Trazado 982366" d="M276.05,212.524s2.921,16.433,4.964,16.8,17.5-13.675,20.542-23.551c0,0-3.7-12.812-6.5-13.889a34.456,34.456,0,0,0-5.507-1.57" transform="translate(81.34 56.078)" fill="none" stroke="#322d38" stroke-linecap="round" stroke-linejoin="round" stroke-width="1"/>
        <path id="Trazado_982367" data-name="Trazado 982367" d="M256.6,191.266c1.985,3.437,4.455-8.7,3.406-12.528-.7-2.557-2.077-4.966-2.194-7.615-.132-2.943,1.3-5.693,2.339-8.45s1.647-6.043.028-8.506a38.448,38.448,0,0,0,19.385,6.964,12.14,12.14,0,0,0,5.311-.438,5.2,5.2,0,0,0,3.453-3.788c6.53.832,13.009,1.687,19.532.8,5.463-.742,13.964-2.127,16.776-7.707,4.113-8.158-6.486-16.622-12.733-19.472-15.144-6.91-35.487-8.075-49.124,2.761a49.825,49.825,0,0,1-4.386,3.4c-3.011,1.888-9.859,3.349-12.254,5.976-3.222,3.533.82,30.826.82,30.826s5.247-2.431,7.424,5.694c1.475,5.511.206,8.6,2.218,12.087" transform="translate(72.16 36.902)" fill="#322d38"/>
        <path id="Trazado_982368" data-name="Trazado 982368" d="M292.19,150.867a6.216,6.216,0,0,0-.171,1.036,28.508,28.508,0,0,0,1.084,9.166c.344,1.331.836,2.632,1.047,3.98.508,3.242.5,6.362,2.891,8.991,0,0,4.584-16.016,2.74-27.457-.214-1.326-.638-4.657-2.663-4.042-1.479.449-2.545,3-3.164,4.224a20.68,20.68,0,0,0-1.763,4.1" transform="translate(86.03 41.979)" fill="#322d38"/>
        <path id="Trazado_982369" data-name="Trazado 982369" d="M243.33,141.5c2-1.464,7.908-4.3,14.053-1.888a49.175,49.175,0,0,1,14.881-16.348" transform="translate(71.699 36.321)" fill="none" stroke="#322d38" stroke-linecap="round" stroke-linejoin="round" stroke-width="1"/>
        <g id="Grupo_1145472" data-name="Grupo 1145472" transform="translate(334.056 169.293)" opacity="0.47">
          <g id="Grupo_1145471" data-name="Grupo 1145471">
            <g id="Grupo_1145470" data-name="Grupo 1145470" clip-path="url(#clip-path-20)">
              <path id="Trazado_982370" data-name="Trazado 982370" d="M258.527,135.255s24.649,17.534,39.576,13.193,10.762-17.185,10.762-17.185" transform="translate(-257.88 -130.616)" fill="none" stroke="#fff" stroke-linecap="round" stroke-linejoin="round" stroke-width="1"/>
            </g>
          </g>
        </g>
        <g id="Grupo_1145475" data-name="Grupo 1145475" transform="translate(336.435 164.433)" opacity="0.47">
          <g id="Grupo_1145474" data-name="Grupo 1145474">
            <g id="Grupo_1145473" data-name="Grupo 1145473" clip-path="url(#clip-path-21)">
              <path id="Trazado_982371" data-name="Trazado 982371" d="M260.364,133.41s30.95,14.233,36.157-5.9" transform="translate(-259.717 -126.862)" fill="none" stroke="#fff" stroke-linecap="round" stroke-linejoin="round" stroke-width="1"/>
            </g>
          </g>
        </g>
        <path id="Trazado_982372" data-name="Trazado 982372" d="M266.16,193.177s5.889,11.44,10.5,11.245,13.084-12.493,13.084-12.493-4.566,5.889-11.5,6.5c-4.561.4-12.084-5.252-12.084-5.252" transform="translate(78.426 56.553)" fill="#322d38"/>
        <path id="Trazado_982373" data-name="Trazado 982373" d="M304.406,263l.958-.44a2.588,2.588,0,0,0,1.5-2.848l-.194-1.165a2.591,2.591,0,0,0-2.382-2.162l-1.152-.091a2.588,2.588,0,0,1-2.149-1.476c-.311-.66-.647-1.295-1.01-1.916a2.591,2.591,0,0,1,0-2.589l.6-1.01a2.669,2.669,0,0,0-.414-3.2l-.829-.829a2.59,2.59,0,0,0-3.211-.388l-1.023.608a2.591,2.591,0,0,1-2.589,0,21.2,21.2,0,0,0-5.269-2.149,2.591,2.591,0,0,1-1.864-1.89l-.3-1.2a2.591,2.591,0,0,0-2.589-1.994h-1.165a2.589,2.589,0,0,0-2.589,1.981l-.324,1.295a2.59,2.59,0,0,1-1.825,1.864c-.647.181-1.295.375-1.9.608a2.59,2.59,0,0,1-2.589-.479l-1.036-.893a2.59,2.59,0,0,0-3.185-.181l-.919.621a2.587,2.587,0,0,0-.971,3.12l.466,1.217a2.59,2.59,0,0,1-.4,2.589,19.222,19.222,0,0,0-1.165,1.541,2.588,2.588,0,0,1-2.408,1.113l-1.295-.117a2.59,2.59,0,0,0-2.732,1.722l-.414,1.139a2.589,2.589,0,0,0,.945,3.029l1.191.842a2.588,2.588,0,0,1,1.088,2.369,17.777,17.777,0,0,0-.1,2.033,2.682,2.682,0,0,1-1.295,2.2l-1.217.673a2.589,2.589,0,0,0-1.295,2.991l.3,1.126a2.588,2.588,0,0,0,2.589,1.942h1.295a2.592,2.592,0,0,1,2.266,1.295c.35.621.725,1.217,1.126,1.8a2.589,2.589,0,0,1,.194,2.589l-.531,1.1a2.59,2.59,0,0,0,.686,3.159l.893.751a2.588,2.588,0,0,0,3.224.117l.919-.647a2.59,2.59,0,0,1,2.589-.246q.983.466,2.02.854a2.591,2.591,0,0,1,1.644,1.994l.194,1.126a2.589,2.589,0,0,0,2.382,2.162l1.191.1a2.59,2.59,0,0,0,2.693-1.748l.362-1.01a2.588,2.588,0,0,1,2.007-1.7,20.119,20.119,0,0,0,2.175-.466,2.588,2.588,0,0,1,2.512.686l.764.777a2.59,2.59,0,0,0,3.172.427l1.023-.583a2.588,2.588,0,0,0,1.295-2.991l-.285-1.01a2.587,2.587,0,0,1,.66-2.589c.531-.531,1.049-1.087,1.528-1.67a2.59,2.59,0,0,1,2.473-.88l1.036.194a2.588,2.588,0,0,0,2.861-1.476l.492-1.062a2.59,2.59,0,0,0-.738-3.159l-.777-.634a2.587,2.587,0,0,1-.958-2.408,20.4,20.4,0,0,0,.246-2.33A2.587,2.587,0,0,1,304.406,263m-15.586.673a10.561,10.561,0,1,1-.013-.04Z" transform="translate(75.8 70.205)" fill="#322d38"/>
        <path id="Trazado_982374" data-name="Trazado 982374" d="M230.728,290.109a25.958,25.958,0,0,1-3.357,3.118,28.044,28.044,0,0,0-7.162,11.416,9.321,9.321,0,0,0,.043,6.187c1.517,3.718,6.345,7.572,10.212,5.129" transform="translate(64.736 85.482)" fill="none" stroke="#322d38" stroke-linecap="round" stroke-linejoin="round" stroke-width="1"/>
        <path id="Trazado_982375" data-name="Trazado 982375" d="M231.7,285.02c-3.678-.574-7.3,1.559-9.817,4.3s-4.266,6.094-6.559,9.026" transform="translate(63.448 83.955)" fill="none" stroke="#322d38" stroke-linecap="round" stroke-linejoin="round" stroke-width="1"/>
        <path id="Trazado_982376" data-name="Trazado 982376" d="M235.718,344.023a24.886,24.886,0,0,1-14.578-1.564,41.734,41.734,0,0,1-8.085-5.677l-9.549-7.905c-1.535-1.271-3.239-3.074-2.6-4.964,0,0,15.968-84.186,18.479-93.285,2.9-10.506,14.6-17.654,14.6-17.654" transform="translate(59.157 62.754)" fill="none" stroke="#322d38" stroke-linecap="round" stroke-linejoin="round" stroke-width="1"/>
        <path id="Trazado_982377" data-name="Trazado 982377" d="M320.328,290.838a27.171,27.171,0,0,1,9.078,12.111,68,68,0,0,1,2.852,13.751c-2.478,1.385-7.574,4.97-11.93,4.97" transform="translate(94.387 85.697)" fill="none" stroke="#322d38" stroke-linecap="round" stroke-linejoin="round" stroke-width="1"/>
        <path id="Trazado_982378" data-name="Trazado 982378" d="M320.747,285.451c3.874-1.024,7.716,1.609,10.638,4.35s5.948,5.93,9.933,6.355" transform="translate(94.51 84.043)" fill="none" stroke="#322d38" stroke-linecap="round" stroke-linejoin="round" stroke-width="1"/>
        <path id="Trazado_982379" data-name="Trazado 982379" d="M321.322,349.918c7.5-.791,14.345-4.9,19.768-10.142s9.612-11.609,13.752-17.915c3.354-5.11,6.766-10.347,8.237-16.28,0,0-13.247-43.776-20.606-64.1C334.807,220.3,326.525,214.9,326.525,214.9" transform="translate(94.68 63.321)" fill="none" stroke="#322d38" stroke-linecap="round" stroke-linejoin="round" stroke-width="1"/>
        <path id="Trazado_982380" data-name="Trazado 982380" d="M320.747,286.012c6.829-5.739,17.306-1.088,24.654,2.751" transform="translate(94.51 83.482)" fill="none" stroke="#322d38" stroke-linecap="round" stroke-linejoin="round" stroke-width="1"/>
        <rect id="Rectángulo_406091" data-name="Rectángulo 406091" width="119.251" height="68.542" transform="translate(295.464 346.059)" fill="#fff"/>
        <rect id="Rectángulo_406092" data-name="Rectángulo 406092" width="120.391" height="3.581" transform="translate(294.866 414.601)" fill="#322d38"/>
        <path id="Trazado_982381" data-name="Trazado 982381" d="M227.756,335.84,347.6,267.3l.542,68.542Z" transform="translate(67.11 78.761)" fill="#322d38"/>
        <g id="Grupo_1145478" data-name="Grupo 1145478" transform="translate(294.866 346.06)" opacity="0.9">
          <g id="Grupo_1145477" data-name="Grupo 1145477">
            <g id="Grupo_1145476" data-name="Grupo 1145476" clip-path="url(#clip-path-22)">
              <path id="Trazado_982382" data-name="Trazado 982382" d="M227.756,335.84,347.6,267.3l.542,68.542Z" transform="translate(-227.756 -267.299)" fill="#fff"/>
            </g>
          </g>
        </g>
        <path id="Trazado_982383" data-name="Trazado 982383" d="M287.987,295.227a10.161,10.161,0,1,1-10.16-10.16,10.161,10.161,0,0,1,10.16,10.16" transform="translate(78.869 83.997)" fill="#322d38"/>
        <rect id="Rectángulo_406094" data-name="Rectángulo 406094" width="119.251" height="68.542" transform="translate(295.464 346.059)" fill="none" stroke="#322d38" stroke-linecap="round" stroke-linejoin="round" stroke-width="1"/>
        <path id="Trazado_982384" data-name="Trazado 982384" d="M251.272,159.715s2.609,23.949,5.928,28.216,13.989,19.918,25.607,19.68,19.206-15.175,21.1-21.577a110.114,110.114,0,0,0,4.268-24.9" transform="translate(74.039 47.061)" fill="none" stroke="#322d38" stroke-linecap="round" stroke-linejoin="round" stroke-width="1"/>
        <path id="Trazado_982385" data-name="Trazado 982385" d="M292.865,181.718s8.62-4.451,3.058-15.756" transform="translate(86.295 48.902)" fill="none" stroke="#322d38" stroke-linecap="round" stroke-linejoin="round" stroke-width="1"/>
      </g>
    </g>
  </g>
</svg>
