<svg xmlns="http://www.w3.org/2000/svg" xmlns:xlink="http://www.w3.org/1999/xlink" width="108" height="108" viewBox="0 0 108 108">
  <defs>
    <filter id="Trazado_904820" x="0" y="0" width="108" height="108" filterUnits="userSpaceOnUse">
      <feOffset dy="3" input="SourceAlpha"/>
      <feGaussianBlur stdDeviation="3" result="blur"/>
      <feFlood flood-opacity="0.161"/>
      <feComposite operator="in" in2="blur"/>
      <feComposite in="SourceGraphic"/>
    </filter>
  </defs>
  <g id="Icono" transform="translate(-615.101 -5000)">
    <g transform="matrix(1, 0, 0, 1, 615.1, 5000)" filter="url(#Trazado_904820)">
      <g id="Trazado_904820-2" data-name="Trazado 904820" transform="translate(9 6)" fill="#ecf4fa">
        <path d="M 45 88.5 C 39.12687683105469 88.5 33.43022537231445 87.35007476806641 28.06830024719238 85.08217620849609 C 22.88852500915527 82.89131164550781 18.23629951477051 79.75458526611328 14.2408504486084 75.75914764404297 C 10.24541282653809 71.76370239257812 7.108687400817871 67.11147308349609 4.917825222015381 61.93170166015625 C 2.649924993515015 56.56977462768555 1.5 50.87312316894531 1.5 45 C 1.5 39.12687683105469 2.649924993515015 33.43022537231445 4.917825222015381 28.06830024719238 C 7.108687400817871 22.88852500915527 10.24541282653809 18.23629951477051 14.2408504486084 14.2408504486084 C 18.23629951477051 10.24541282653809 22.88852500915527 7.108687400817871 28.06830024719238 4.917825222015381 C 33.43022537231445 2.649924993515015 39.12687683105469 1.5 45 1.5 C 50.87312316894531 1.5 56.56977462768555 2.649924993515015 61.93170166015625 4.917825222015381 C 67.11147308349609 7.108687400817871 71.76370239257812 10.24541282653809 75.75914764404297 14.2408504486084 C 79.75458526611328 18.23629951477051 82.89131164550781 22.88852500915527 85.08217620849609 28.06830024719238 C 87.35007476806641 33.43022537231445 88.5 39.12687683105469 88.5 45 C 88.5 50.87312316894531 87.35007476806641 56.56977462768555 85.08217620849609 61.93170166015625 C 82.89131164550781 67.11147308349609 79.75458526611328 71.76370239257812 75.75914764404297 75.75914764404297 C 71.76370239257812 79.75458526611328 67.11147308349609 82.89131164550781 61.93170166015625 85.08217620849609 C 56.56977462768555 87.35007476806641 50.87312316894531 88.5 45 88.5 Z" stroke="none"/>
        <path d="M 45 3 C 39.32871246337891 3 33.82865524291992 4.110054016113281 28.65262985229492 6.299339294433594 C 23.65165710449219 8.414573669433594 19.15968322753906 11.44334411621094 15.301513671875 15.301513671875 C 11.44334411621094 19.15968322753906 8.414573669433594 23.65165710449219 6.299339294433594 28.65262985229492 C 4.110054016113281 33.82865524291992 3 39.32871246337891 3 45 C 3 50.67128753662109 4.110054016113281 56.17134475708008 6.299339294433594 61.34737396240234 C 8.414573669433594 66.34834289550781 11.44334411621094 70.84031677246094 15.301513671875 74.698486328125 C 19.15968322753906 78.55665588378906 23.65165710449219 81.58542633056641 28.65262985229492 83.70066070556641 C 33.82865524291992 85.88994598388672 39.32871246337891 87 45 87 C 50.67128753662109 87 56.17134475708008 85.88994598388672 61.34737396240234 83.70066070556641 C 66.34834289550781 81.58542633056641 70.84031677246094 78.55665588378906 74.698486328125 74.698486328125 C 78.55665588378906 70.84031677246094 81.58542633056641 66.34834289550781 83.70066070556641 61.34737396240234 C 85.88994598388672 56.17134475708008 87 50.67128753662109 87 45 C 87 39.32871246337891 85.88994598388672 33.82865524291992 83.70066070556641 28.65262985229492 C 81.58542633056641 23.65165710449219 78.55665588378906 19.15968322753906 74.698486328125 15.301513671875 C 70.84031677246094 11.44334411621094 66.34834289550781 8.414573669433594 61.34737396240234 6.299339294433594 C 56.17134475708008 4.110054016113281 50.67128753662109 3 45 3 M 45 0 C 69.85281372070312 0 90 20.14718627929688 90 45 C 90 69.85281372070312 69.85281372070312 90 45 90 C 20.14718627929688 90 0 69.85281372070312 0 45 C 0 20.14718627929688 20.14718627929688 0 45 0 Z" stroke="none" fill="#2a5673"/>
      </g>
    </g>
    <g id="Grupo_1143892" data-name="Grupo 1143892" transform="translate(640.101 4994.242)">
      <g id="Grupo_1143884" data-name="Grupo 1143884" transform="translate(1.191 37.207)">
        <path id="Trazado_979110" data-name="Trazado 979110" d="M12.188,91.9A2.217,2.217,0,0,0,10,94.21v31.58a2.165,2.165,0,0,0,2.188,2.066h42.88a2.165,2.165,0,0,0,2.188-2.066V109.511H55.268a1.633,1.633,0,0,1-1.632-1.633v-1.164a1.771,1.771,0,0,0-2.624-1.515L50,105.782a1.632,1.632,0,0,1-2.23-.6l-1.879-3.253a1.634,1.634,0,0,1,.6-2.23l1.008-.581a1.791,1.791,0,0,0,0-3.031l-1.007-.581a1.633,1.633,0,0,1-.6-2.23l.794-1.375h-34.5Z" transform="translate(-10 -91.901)" fill="#fff"/>
      </g>
      <g id="Grupo_1143885" data-name="Grupo 1143885" transform="translate(1.191 67.099)">
        <path id="Trazado_979111" data-name="Trazado 979111" d="M57.256,342.8v4a2.166,2.166,0,0,1-2.189,2.066H12.187A2.166,2.166,0,0,1,10,346.792v-4Z" transform="translate(-10 -342.795)" fill="#ced3dd"/>
      </g>
      <g id="Grupo_1143889" data-name="Grupo 1143889" transform="translate(15.1 73.162)">
        <g id="Grupo_1143886" data-name="Grupo 1143886" transform="translate(1.393 0)">
          <path id="Trazado_979112" data-name="Trazado 979112" d="M152.873,399.994l-.735-6.311H142.59l-.735,6.311a3.427,3.427,0,0,1-3.409,3.039c-.058,0,.059,0,0,0h17.835c-.059,0,.058,0,0,0A3.427,3.427,0,0,1,152.873,399.994Z" transform="translate(-138.43 -393.683)" fill="#868eaf"/>
        </g>
        <g id="Grupo_1143887" data-name="Grupo 1143887" transform="translate(0 9.353)">
          <path id="Trazado_979113" data-name="Trazado 979113" d="M128.149,472.183h-1.41" transform="translate(-126.739 -472.183)" fill="#7ba8bd"/>
        </g>
        <g id="Grupo_1143888" data-name="Grupo 1143888" transform="translate(19.244 9.353)">
          <path id="Trazado_979114" data-name="Trazado 979114" d="M289.673,472.183h-1.41" transform="translate(-288.263 -472.183)" fill="#7ba8bd"/>
        </g>
      </g>
      <g id="Grupo_1143890" data-name="Grupo 1143890" transform="translate(36.867 31)">
        <path id="Trazado_979115" data-name="Trazado 979115" d="M310.253,49.621l1.007.582a1.79,1.79,0,0,1,0,3.03l-1.008.582a1.633,1.633,0,0,0-.6,2.23l1.879,3.254a1.632,1.632,0,0,0,2.23.6l1.008-.583a1.77,1.77,0,0,1,2.624,1.515v1.165a1.633,1.633,0,0,0,1.633,1.633h3.757a1.633,1.633,0,0,0,1.633-1.633V60.828a1.77,1.77,0,0,1,2.624-1.515l1.008.583a1.632,1.632,0,0,0,2.23-.6l1.879-3.254a1.632,1.632,0,0,0-.6-2.23l-1.007-.582a1.79,1.79,0,0,1,0-3.03l1.007-.582a1.633,1.633,0,0,0,.6-2.23l-1.879-3.255a1.632,1.632,0,0,0-2.23-.6l-1.008.582a1.77,1.77,0,0,1-2.624-1.515V41.442a1.633,1.633,0,0,0-1.633-1.633h-3.757a1.633,1.633,0,0,0-1.633,1.633v1.165a1.77,1.77,0,0,1-2.624,1.515l-1.008-.582a1.632,1.632,0,0,0-2.23.6l-1.879,3.255A1.633,1.633,0,0,0,310.253,49.621Zm10.654-1.675a3.771,3.771,0,1,1-3.771,3.771A3.772,3.772,0,0,1,320.907,47.946Z" transform="translate(-309.436 -39.809)" fill="#ced3dd"/>
      </g>
      <g id="Grupo_1143891" data-name="Grupo 1143891" transform="translate(0 29.809)">
        <path id="Trazado_979116" data-name="Trazado 979116" d="M59.642,126.507a1.191,1.191,0,0,0-1.684.042l-3.387,3.559a1.191,1.191,0,0,0,0,1.643l3.387,3.559a1.191,1.191,0,1,0,1.726-1.643l-2.605-2.738,2.605-2.738A1.191,1.191,0,0,0,59.642,126.507Z" transform="translate(-47.78 -114.697)"/>
        <path id="Trazado_979117" data-name="Trazado 979117" d="M195.373,135.351a1.2,1.2,0,0,0,1.684-.042l3.387-3.559a1.192,1.192,0,0,0,0-1.643l-3.387-3.559a1.191,1.191,0,0,0-1.726,1.643l2.605,2.738-2.605,2.738A1.191,1.191,0,0,0,195.373,135.351Z" transform="translate(-171.769 -114.697)"/>
        <path id="Trazado_979118" data-name="Trazado 979118" d="M121.588,135.5a1.2,1.2,0,0,0,1.639-.39l4.384-7.118a1.191,1.191,0,1,0-2.029-1.25l-4.384,7.118A1.192,1.192,0,0,0,121.588,135.5Z" transform="translate(-106.602 -114.695)"/>
        <path id="Trazado_979119" data-name="Trazado 979119" d="M75.814,231.017H55.433a1.191,1.191,0,0,0,0,2.383H75.814a1.191,1.191,0,0,0,0-2.383Z" transform="translate(-47.779 -207.044)"/>
        <path id="Trazado_979120" data-name="Trazado 979120" d="M55.433,281.762a1.191,1.191,0,0,0,0,2.383H70.01a1.191,1.191,0,0,0,0-2.383Z" transform="translate(-47.779 -251.743)"/>
        <path id="Trazado_979121" data-name="Trazado 979121" d="M230.243,282.953a1.191,1.191,0,0,0,1.191,1.191h10.178a1.191,1.191,0,1,0,0-2.383H231.434a1.191,1.191,0,0,0-1.191,1.191Z" transform="translate(-202.811 -251.743)"/>
        <path id="Trazado_979122" data-name="Trazado 979122" d="M166.163,83.573a1.191,1.191,0,1,0,.527-1.5A1.2,1.2,0,0,0,166.163,83.573Z" transform="translate(-146.287 -75.719)"/>
        <path id="Trazado_979123" data-name="Trazado 979123" d="M270.328,232.91a1.191,1.191,0,1,0,.329-1.651A1.2,1.2,0,0,0,270.328,232.91Z" transform="translate(-237.947 -207.085)"/>
        <path id="Trazado_979124" data-name="Trazado 979124" d="M59.589,43.974l-1.007-.582a.6.6,0,0,1,0-.967l1.007-.582a2.828,2.828,0,0,0,1.034-3.858l-1.879-3.255A2.854,2.854,0,0,0,54.887,33.7l-1.008.582a.586.586,0,0,1-.837-.483V32.633a2.827,2.827,0,0,0-2.824-2.824H46.46a2.827,2.827,0,0,0-2.824,2.824V33.8a.586.586,0,0,1-.837.483L41.791,33.7a2.854,2.854,0,0,0-3.858,1.033l-.741,1.283H26.31a1.191,1.191,0,0,0,0,2.383h9.548a2.853,2.853,0,0,0,1.231,3.446l1.007.582a.6.6,0,0,1,0,.966l-1.01.582a2.828,2.828,0,0,0-1.032,3.857l1.879,3.253a2.854,2.854,0,0,0,3.859,1.035l1.008-.582a.587.587,0,0,1,.837.483v1.165a2.849,2.849,0,0,0,2.783,2.824l.837.051v9.848H2.383V39.516a1.027,1.027,0,0,1,1-1.118H15.611a1.191,1.191,0,0,0,0-2.383H3.379A3.405,3.405,0,0,0,0,39.516V71.1H0a3.364,3.364,0,0,0,3.379,3.257H19.315l-.581,4.984a2.234,2.234,0,0,1-2.221,1.982h0a.426.426,0,0,0-.049,0l-1.362,0a1.191,1.191,0,0,0,0,2.383H35.754a1.191,1.191,0,0,0,0-2.383l-1.362,0h-.051a2.234,2.234,0,0,1-2.221-1.982v0l-.58-4.981h14.72a3.365,3.365,0,0,0,3.38-3.257V56.008h.579a2.827,2.827,0,0,0,2.824-2.824V52.02a.587.587,0,0,1,.836-.483l1.009.583a2.854,2.854,0,0,0,3.858-1.034l1.879-3.254A2.827,2.827,0,0,0,59.589,43.974ZM47.255,68.291V71.1a.977.977,0,0,1-1,.875H3.379a.977.977,0,0,1-1-.875V68.291Zm-17.5,11.318a4.614,4.614,0,0,0,.548,1.715H20.555a4.6,4.6,0,0,0,.547-1.713l.613-5.257H29.14ZM58.559,46.64,56.68,49.894a.443.443,0,0,1-.6.162l-1.009-.583a2.985,2.985,0,0,0-4.411,2.546v1.165a.442.442,0,0,1-.441.441H46.46a.445.445,0,0,1-.441-.442V52.02a2.985,2.985,0,0,0-4.412-2.547l-1.008.583a.446.446,0,0,1-.6-.162L38.118,46.64a.442.442,0,0,1,.161-.6l1.009-.582a3,3,0,0,0,0-5.093L38.28,39.78a.45.45,0,0,1-.162-.6L40,35.923a.444.444,0,0,1,.6-.161l1.008.582A2.985,2.985,0,0,0,46.019,33.8V32.633a.442.442,0,0,1,.441-.441h3.757a.442.442,0,0,1,.441.441V33.8a2.985,2.985,0,0,0,4.411,2.546l1.009-.582a.443.443,0,0,1,.6.161l1.879,3.255a.442.442,0,0,1-.162.6l-1.006.581a3,3,0,0,0,0,5.094l1.007.582A.442.442,0,0,1,58.559,46.64Z" transform="translate(0 -29.809)"/>
        <path id="Trazado_979125" data-name="Trazado 979125" d="M369.026,98.108a4.962,4.962,0,1,0,4.963,4.962A4.968,4.968,0,0,0,369.026,98.108Zm0,7.542a2.579,2.579,0,1,1,0-5.159,2.613,2.613,0,0,1,2.58,2.579A2.583,2.583,0,0,1,369.026,105.65Z" transform="translate(-320.688 -89.971)"/>
      </g>
    </g>
  </g>
</svg>
